<svg width="266" height="484" viewBox="0 0 266 484" fill="none" xmlns="http://www.w3.org/2000/svg">
<g opacity="0.4" clip-path="url(#clip0_100_1384)">
<path d="M268.354 170.317C279.571 183.28 278.949 183.404 289.966 197.146L291.052 198.505C294.801 203.161 298.736 207.423 303.189 211.411C304.485 212.608 304.485 212.608 304.912 213.497C308.515 204.959 306.007 195.291 303.561 186.792L303.188 185.413C302.408 182.884 301.282 180.516 300.166 178.119C299.886 177.51 299.611 176.899 299.342 176.284C297.798 172.766 296.626 170.11 292.94 168.625L291.953 168.292C287.361 166.266 285.795 162.951 283.955 158.454C281.683 152.562 280.5 145.747 281.384 139.446L282.502 138.362C287.205 138.635 290.753 141.838 293.953 144.996C297.551 149.557 301.199 156.565 300.632 162.485C300.284 164.74 299.745 166.915 299.129 169.109C298.933 170.682 299.248 171.444 299.901 172.88L300.527 174.293L301.198 175.753C301.628 176.707 302.056 177.661 302.483 178.616L303.101 180C303.568 181.097 303.974 182.182 304.339 183.315C304.9 185.02 305.583 186.568 306.376 188.176L307.121 189.699L307.684 190.831C308.758 189.373 308.758 189.373 308.392 187.756C307.947 186.682 307.489 185.614 307.024 184.549C305.416 180.649 304.482 177.22 306.07 173.176C306.472 172.36 306.894 171.554 307.332 170.758L308.028 169.473C311.342 163.77 315.591 158.48 321.566 155.618L322.765 155.042C325.946 153.546 329.102 152.415 332.517 151.559C333.371 157.058 331.995 162.195 330.291 167.399L329.757 169.161C327.788 175.312 324.38 183.189 318.368 186.288C316.702 187.077 315.035 187.848 313.327 188.542C311.318 189.402 310.335 189.824 309.23 191.773C308.935 193.69 309.084 195.09 309.447 196.994C310.093 200.912 309.73 204.495 309.186 208.405C308.598 212.626 308.598 212.626 310.152 216.453C314.512 220.829 323.367 225.533 329.553 225.87L330.491 225.839C329.278 222.68 327.98 220.37 325.421 218.117C322.418 215.419 320.797 213.161 320.423 209.072C320.206 201.476 322.925 193.393 327.996 187.647C330.386 185.473 333.051 183.918 335.896 182.42L337.035 181.809C337.949 181.319 338.866 180.834 339.782 180.349C342.48 191.128 341.282 202.073 337.745 212.51L337.37 213.658C336.334 216.408 334.587 218.312 332.573 220.421C331.582 221.406 331.582 221.406 331.199 222.763C331.398 224.879 332.224 227.094 333.838 228.514C334.754 229.141 335.687 229.711 336.645 230.271L337.695 230.908C338.419 231.346 339.144 231.78 339.872 232.21C340.911 232.826 341.942 233.454 342.972 234.085C347.557 236.882 352.173 239.35 357.204 241.251C365.196 244.301 370.518 248.423 376.264 254.785C376.942 255.546 376.942 255.546 377.819 256.191C378.197 249.253 374.938 239.263 370.617 233.798C368.08 231.634 364.647 230.343 361.655 228.923C357.381 226.842 355.634 220.756 354.104 216.43C351.691 208.899 350.894 198.272 354.321 190.947C355.687 188.481 357.306 186.158 358.917 183.845L359.196 183.445C360.304 181.837 361.263 180.313 362.013 178.504L362.741 176.99C364.285 176.796 364.285 176.796 365.238 177.501C374.915 188.049 379.476 206.838 379.731 220.848C379.532 225.44 378.485 229.091 375.321 232.498C374.138 233.713 374.138 233.713 373.975 234.956C374.445 237.698 375.49 240.138 376.662 242.644C376.993 243.364 377.323 244.085 377.653 244.806C378.168 245.926 378.685 247.045 379.206 248.161C379.714 249.251 380.213 250.343 380.711 251.436L381.175 252.413C382.106 254.473 382.648 256.437 383.085 258.657C383.866 262.326 385.366 265.438 387.068 268.762C387.379 269.381 387.69 270 388 270.62C388.645 271.905 389.294 273.187 389.947 274.468C390.781 276.106 391.608 277.748 392.432 279.391C393.224 280.97 394.02 282.546 394.816 284.123L395.27 285.025C395.696 285.868 396.125 286.71 396.554 287.553L397.29 289.001C397.949 290.184 398.666 291.224 399.508 292.282C400.792 290.082 401.322 288.184 400.711 285.687C399.75 283.626 398.559 281.905 397 280.251C395.475 278.437 394.456 276.57 393.409 274.455L392.801 273.329C391.502 270.705 391.387 269.055 392.126 266.236C392.431 265.073 392.594 263.97 392.718 262.774C393.325 257.526 394.591 253.406 397.164 248.81C397.864 247.543 398.531 246.26 399.196 244.973L399.201 244.965C401.139 241.235 401.14 241.234 402.053 239.512L402.652 238.377C403.641 236.731 404.991 235.899 406.576 234.922L406.718 234.835L408.155 233.941C409.149 233.326 410.144 232.712 411.139 232.099C414.178 230.212 414.178 230.212 417.005 228.03C418.182 227.036 419.159 226.397 420.576 225.823C425.784 240.748 423.525 259.845 417.203 274.098C415.023 278.088 411.977 281.932 407.922 284.073C405.003 285.774 403.124 287.714 402.212 291.018C401.784 293.606 402.486 295.42 403.402 297.789L403.422 297.841L403.834 298.915C404.283 300.082 404.735 301.247 405.189 302.412L405.655 303.613C408.872 311.89 412.431 319.998 416.137 328.067L417.024 327.641L417.011 326.69C417.058 325.436 417.058 325.436 417.358 324.288C417.571 322.768 417.306 322.147 416.606 320.798L416.054 319.7C415.415 318.55 415.415 318.55 414.598 317.462C413.406 315.721 412.472 313.904 411.538 312.015L410.974 310.94C409.329 307.602 409.155 304.956 410.276 301.408L411.055 299.631C411.336 298.978 411.617 298.325 411.895 297.672L412.307 296.711C412.797 295.495 413.137 294.247 413.497 292.988C415.679 286.555 421.382 277.466 427.489 274.323L429.084 273.495L430.757 272.635C434.494 270.709 438.176 268.747 441.754 266.536C444.819 279.369 442.521 292.514 436.985 304.384L436.384 305.744C433.744 311.53 430.754 316.814 424.814 319.538C421.395 321.108 421.395 321.108 419.14 323.988C417.723 330.194 419.617 331.906 422.803 338.544L288.333 403.08C285.588 391.703 285.247 382.192 288.826 371.114L289.404 369.312C293.646 356.199 298.461 344.589 310.715 337.084C312.467 336.447 314.153 335.975 315.995 335.713C318.757 335.149 320.913 334.055 322.609 331.757C323.301 330.615 323.934 329.484 324.507 328.277L324.998 327.255C325.304 326.293 325.304 326.293 324.766 325.448L324.041 324.603L323.253 323.673C322.138 322.452 320.993 321.265 319.813 320.106C319.138 319.365 319.138 319.365 318.498 318.032C316.206 319.554 314.294 321.216 312.461 323.275C309.433 326.653 306.496 329.078 302.01 330.321C300.472 330.33 299.067 330.163 297.55 329.923C296.033 329.755 294.898 329.997 293.564 330.759C292.505 331.696 291.839 332.765 291.051 333.939C288.006 338.108 282.971 340.183 278.064 341.41C276.575 341.624 275.144 341.724 273.641 341.748L272.333 341.814C268.765 341.889 265.325 341.233 261.837 340.568L261.529 340.509C259.903 340.162 259.903 340.162 258.688 340.171C258.547 336.978 260.259 334.268 262.352 331.95C263.974 330.394 265.713 329.266 267.682 328.196L269.216 327.333C274.693 324.456 280.768 322.766 287.001 323.954C289.298 324.705 291.3 325.956 293.339 327.23L293.466 327.31C296.064 328.785 298.465 329.351 301.449 328.718C306.198 327.315 308.862 325.144 311.689 321.167C312.891 319.497 314.191 318.097 315.656 316.66C312.154 311.168 305.3 308.623 299.262 306.93C293.063 305.641 288.421 307.164 282.917 309.881L281.343 310.648C280.229 311.191 279.117 311.735 278.005 312.282C276.289 313.124 274.57 313.959 272.85 314.794C269.928 316.213 267.014 317.646 264.102 319.086C262.908 319.676 261.712 320.261 260.514 320.843C258.748 321.7 256.989 322.572 255.23 323.444L253.62 324.219C250.458 325.805 247.816 327.462 245.842 330.471C245.176 332.764 245.756 334.083 246.846 336.15L247.661 337.752C248.233 338.847 248.808 339.94 249.384 341.032C251.626 345.452 252.618 349.246 251.328 354.132L250.914 355.705L250.495 357.233L250.197 358.583C249.438 361.751 248.165 364.571 246.704 367.464L246.152 368.577C244.44 371.846 242.165 374.08 239.217 376.254C237.3 377.71 235.875 379.483 234.386 381.364C233.59 382.305 233.59 382.305 232.702 382.731C228.824 373.929 226.855 366.831 229.27 357.265C229.743 355.088 229.853 352.932 229.892 350.709C222.049 356.629 217.199 362.681 215.208 372.48C214.632 375.278 213.941 377.925 212.475 380.404L212.027 381.201C209.971 384.363 206.87 385.45 203.509 386.895C199.287 388.454 199.287 388.454 196.085 391.402C195.575 392.815 195.285 393.984 195.172 395.477C194.594 400.318 192.642 403.312 188.946 406.467C187.155 407.592 185.294 408.481 183.368 409.349L181.825 410.063C174.179 413.544 168.553 414.954 160.22 413.637C157.658 413.363 155.242 413.612 152.708 414.011C153.45 409.633 155.768 406.537 158.383 403.082L159.473 401.629C165.409 394.088 174.328 387.322 183.981 385.668C188.075 385.265 191.803 385.934 195.673 387.264C198.517 387.667 201.507 385.804 204.026 384.629L205.19 384.119C208.565 382.54 210.96 380.444 212.254 376.885C212.639 374.856 212.775 372.786 212.909 370.727L212.914 370.653C213.325 367.147 214.287 364.702 216.203 361.792C217.68 359.563 217.68 359.563 218.78 357.136L218.14 355.802C216.543 355.775 215.744 356.227 214.376 357.061C213.452 358.166 212.721 359.37 211.981 360.604C209.171 365.202 206.177 367.719 200.936 369.333C194.484 370.635 185.106 370.39 179.492 366.813C177.601 365.535 175.784 364.17 173.981 362.771L173.001 362.032L172.046 361.307L171.178 360.65C170.499 360.066 170.499 360.066 170.072 359.177C190.646 348.646 190.646 348.646 201.283 349.121L202.784 349.151C206.436 349.338 209.695 350.192 212.297 352.902C213.606 353.962 214.38 353.945 216.008 353.909L216.104 353.907L217.545 353.891C220.831 353.733 223.494 352.777 225.892 350.465C226.957 349.235 227.96 347.974 228.949 346.682L229.995 345.38C232.331 342.405 233.609 340.083 234.147 336.323C234.846 333.533 236.898 332.197 239.041 330.438C240.512 329.136 241.437 327.856 242.373 326.146C243.34 324.484 244.647 323.87 246.318 323.086L246.375 323.059L247.892 322.342L249.539 321.57C250.688 321.026 251.837 320.481 252.986 319.936C254.797 319.08 256.61 318.226 258.424 317.374C260.138 316.568 261.849 315.756 263.56 314.943L263.669 314.891L265.295 314.133C268.451 312.63 271.539 311.042 274.15 308.679L274.611 307.364C271.685 306.755 269.649 306.7 266.973 308.092C265.92 308.782 265.92 308.782 264.8 309.874C261.788 312.455 257.42 315.297 253.345 315.44C251.327 315.225 249.477 314.651 247.553 314.005C246.371 313.677 245.217 313.53 243.999 313.384C241.194 313.017 238.659 312.224 236.007 311.257L234.614 310.755C228.212 308.39 223.899 305.307 219.382 300.225C217.515 298.157 215.601 296.682 213.207 295.269C212.255 294.619 212.255 294.619 211.615 293.285C226.035 285.939 239.821 285.22 255.279 289.836C261.466 291.913 265.901 294.975 268.862 300.789L269.319 301.736C270.214 303.443 270.802 304.16 272.56 304.996C280.081 306.722 286.927 303.407 293.66 300.41C288.355 287.551 276.739 278.418 264.128 273.006C263.291 272.717 262.451 272.436 261.608 272.164C256.889 270.569 252.555 267.893 248.517 265.01C244.309 262.095 240.111 261.039 235.075 260.543C231.768 260.159 228.555 259.286 225.361 258.362C218.872 256.509 214.235 256.185 207.979 259.107C205.634 260.859 205.427 263.362 204.958 266.118C204.073 270.398 201.713 273.744 198.065 276.145C192.284 279.644 185.9 282.489 179.403 284.332L178.145 284.703C175.005 285.518 172.397 285.245 169.239 284.628C165.623 284.039 162.126 283.762 158.46 283.784C157.606 282.005 157.606 282.005 158.027 280.786C164.216 269.561 172.536 262.685 183.991 257.272C184.637 256.965 185.282 256.658 185.928 256.35C187.495 255.604 189.064 254.861 190.634 254.119C180.336 249.129 165.521 252.769 154.924 255.939C153.501 256.461 152.224 257.066 150.93 257.856L150.038 258.361C148.15 259.63 147.577 260.798 147.093 263.014C146.84 264.452 146.628 265.889 146.432 267.336C145.56 272.622 142.601 275.846 138.448 279.062C135.803 280.943 133.129 282.669 130.261 284.188L129.31 284.698C125.428 286.758 122.043 288.527 117.574 288.648C114.455 288.965 111.493 290.241 108.566 291.317C109.891 279.048 113.152 271.236 122.808 263.161C128.083 259.018 134.077 255.557 141.006 256.02C142.085 256.274 143.164 256.531 144.243 256.791C146.383 257.266 147.615 256.776 149.516 255.833L150.722 255.239L151.638 254.78C145.737 253.876 139.825 253.496 133.869 253.184C130.32 252.992 126.816 252.702 123.292 252.228C120.34 251.885 118.184 252.099 115.749 253.951C113.992 255.888 112.471 258.024 110.965 260.16C108.743 262.919 105.26 264.688 101.784 265.145C95.5822 265.601 89.3859 265.52 83.5153 263.292C80.9596 262.357 78.3153 261.659 75.6488 261.127C72.0499 260.153 69.9568 257.783 67.5093 255.118C64.9923 252.434 62.5816 250.102 59.4747 248.114C58.583 247.469 58.583 247.469 57.9428 246.135C71.4362 238.943 88.5123 236.094 103.427 240.617C108.534 242.274 112.446 244.118 115.936 248.282C116.743 249.237 116.743 249.237 118.233 250.024C119.466 249.972 119.466 249.972 120.825 249.737C123.4 249.444 125.51 249.618 128.042 250.105C134.149 251.214 140.363 251.952 146.555 252.365L147.626 252.437C151.747 252.764 151.747 252.764 155.649 251.761C151.276 248.249 146.221 245.974 140.814 244.593C135.579 243.102 131.05 240.81 126.569 237.727C125.633 237.095 124.683 236.491 123.726 235.891C119.098 232.971 114.691 229.846 110.381 226.469C107.022 223.879 102.989 220.959 98.6434 220.584C96.3476 221.418 95.2427 222.566 93.8061 224.512L92.7493 225.923C91.9471 226.957 91.9471 226.957 91.7051 227.743C85.2382 231.808 75.6503 233.727 68.1937 232.154C67.3469 231.938 66.5012 231.718 65.6572 231.491L63.9966 231.16C62.5874 230.778 61.3565 230.219 60.0461 229.581C58.6259 228.98 57.1561 228.645 55.6571 228.304L55.5766 228.286L54.6983 227.998L54.2715 227.108C54.8655 226.292 55.4669 225.481 56.0711 224.672L57.0834 223.301C62.6963 216.853 72.2548 213.159 80.5593 212.039C83.4831 211.873 85.7789 212.071 88.2459 213.709C90.999 215.433 93.5081 216.993 96.8108 217.121C102.017 217.531 108.017 221.398 112.018 224.559L112.444 225.449L113.332 225.023C111.744 222.451 110.242 220.856 107.568 219.412C103.889 217.258 102.827 214.307 101.642 210.353C100.26 204.629 100.806 199.011 101.927 193.295C104.525 192.969 106.262 194.737 108.269 196.27C113.151 200.459 115.51 206.926 116.378 213.166C116.408 216.425 115.777 219.589 115.086 222.762C114.692 224.739 115.123 225.771 116.157 227.496C117.212 228.465 118.368 229.245 119.56 230.035L120.565 230.719C123.529 232.715 126.565 234.569 129.677 236.326L130.522 236.803C132.703 238.032 134.9 239.231 137.103 240.421L138.25 241.046C139.43 241.687 140.614 242.321 141.799 242.954L142.919 243.563L143.977 244.123L144.908 244.622C145.998 245.039 146.887 245.058 148.044 245.017C146.408 235.42 143.647 226.182 137.11 218.824C134.021 215.316 131.53 211.443 129.009 207.521L128.804 207.203C125.014 200.741 125.014 200.741 119.563 195.91C118.445 195.687 117.326 195.474 116.204 195.276C109.271 194.049 105.474 191.743 101.353 185.951C99.9032 183.728 98.7587 181.378 97.6189 178.985L96.8925 177.527C95.4626 174.552 94.5506 171.745 93.9797 168.493C93.4364 165.408 92.5561 162.381 91.6576 159.382C95.7808 158.505 98.7185 159.26 102.65 160.671L103.912 161.092C112.606 164.34 118.164 171.776 121.889 179.897C123.505 183.687 124.603 187.667 123.152 191.657C122.554 193.926 123.388 195.495 124.45 197.492L124.483 197.553C126.19 200.2 128.264 202.484 130.383 204.804C131.156 205.671 131.925 206.541 132.695 207.411L132.765 207.49L133.652 207.064L133.534 205.899C133.262 199.33 136.569 191.563 140.794 186.678C142.772 184.715 144.886 182.919 147.02 181.132C148.524 179.861 149.674 178.505 150.856 176.925L152.188 176.286C154.312 180.295 155.785 183.983 156.405 188.486L156.597 189.767C157.033 193.694 156.312 197.464 155.578 201.304L155.543 201.482L155.358 202.493C153.852 210.645 152.083 217.91 145.081 222.915L145.494 223.674C147.351 227.286 148.202 230.991 149.105 234.926L149.122 235C150.304 239.924 151.596 244.178 155.88 247.158C161.29 250.245 168.403 249.582 174.419 249.557C182.778 249.528 190.398 250.029 198.622 251.606C206.345 253.063 213.692 253.349 221.525 252.799C229.647 252.241 236.448 254.237 243.812 257.673C245.412 258.298 247.034 258.672 248.705 259.073C246.051 254.669 243.423 251.055 239.502 247.674C238.626 246.917 237.754 246.157 236.884 245.393L235.996 244.615C233.804 242.637 232.236 240.51 230.645 238.019C229.307 236.091 227.905 235.339 225.643 234.85C223.411 234.491 221.211 234.339 218.953 234.27C215.701 234.088 213.113 233.123 210.775 230.81C210.202 230.165 209.64 229.511 209.084 228.852L207.88 227.476C202.452 221.188 197.03 214.063 196.307 205.594C195.783 202.421 194.373 199.524 193.062 196.605C204.31 196.888 212.968 200.391 220.841 208.46C225.852 213.766 231.216 219.777 231.351 227.465C231.13 228.998 230.819 230.441 230.182 231.856L229.295 232.282C232.588 238.253 236.189 242.172 241.583 246.272C246.061 249.683 249.986 253.066 253.506 257.487C258.254 263.448 263.452 267.588 269.746 271.839C272.738 273.869 275.581 276.035 278.404 278.293C283.35 282.217 288.623 285.361 294.153 288.38C300.884 292.093 306.302 296.842 311.889 302.056C315.166 305.114 318.427 308.139 322.093 310.733L322.976 311.368C324.433 312.384 324.433 312.384 326.142 312.529C328.054 311.967 329.807 311.064 331.6 310.205L332.799 309.65C334.971 308.613 336.662 307.627 338.289 305.798C336.75 305.255 335.987 305.439 334.388 305.687C331.082 306.036 328.533 305.426 325.427 304.312L323.823 303.747C317.261 301.215 311.896 296.893 306.467 292.521L306.121 292.242L305.219 291.686C303.835 290.372 303.185 288.678 302.389 286.964L301.836 285.803C301.257 284.582 300.683 283.358 300.109 282.134C299.717 281.304 299.324 280.475 298.93 279.646C297.968 277.615 297.011 275.582 296.057 273.548C303.411 272.251 310.376 272.252 317.633 274.134L319.163 274.518C327.945 276.91 340.128 280.711 345.38 288.718C345.867 289.798 346.278 290.893 346.691 292.003C347.769 294.793 348.797 297.368 351.538 298.824C353.693 299.712 355.906 300.202 358.192 300.622L359.206 300.837C364.275 301.887 369.156 301.54 374.28 301.129C380.092 300.679 385.496 300.759 391.126 302.387C393.007 302.875 394.094 303.112 395.848 302.2C396.988 301.001 396.976 300.316 396.949 298.726L396.947 298.606L396.945 297.198C396.588 293.363 394.707 289.991 393.073 286.563C392.6 285.567 392.137 284.568 391.675 283.568C389.041 277.975 385.882 271.926 380.491 268.585C377.66 268.182 375.181 269.682 372.927 271.369L372.095 272.067C367.485 275.827 362.798 276.602 357.021 276.566L356.015 276.561C350.826 276.478 346.321 275.304 341.428 273.656C340.466 273.37 339.502 273.091 338.536 272.821L337.389 272.498C336.267 272.2 336.267 272.2 334.625 271.997C334.384 270.095 334.764 269.682 335.8 268.116L336.584 266.9C341.111 261.264 349.103 258.354 356.1 257.474C362.121 256.921 367.428 257.375 372.459 260.951C373.627 262.005 374.672 263.135 375.711 264.314L376.999 265.645L377.879 266.556C378.441 264.951 378.227 264.668 377.518 263.173L377.027 262.092C374.502 258.1 370.835 255.368 367.104 252.588L366.823 252.378C365.897 251.688 364.977 250.991 364.057 250.293C363.46 249.843 362.863 249.394 362.266 248.946L361.447 248.326C357.152 245.083 357.152 245.083 352.009 244.506C348.877 245.879 347.577 248.13 345.747 250.946C342.045 256.57 336.303 258.359 329.914 259.692L328.224 260.056C322.651 261.213 317.029 262.224 311.344 261.341C308.578 261.008 305.895 261.548 303.276 262.424C302.452 259.422 303.621 256.604 305.028 253.941C311.018 244.083 320.003 239.619 330.877 236.892C334.83 235.995 338.475 236.345 342.432 237.067C335.096 230.946 335.096 230.946 326.497 227.756C323.884 228.561 322.008 229.601 320.568 231.969C319.655 233.707 318.917 235.495 318.186 237.317C316.621 241.131 314.696 243.002 310.965 244.668C291.63 252.147 291.63 252.147 283.432 249.518L281.853 248.72C279.848 247.789 277.939 247.571 275.756 247.389C271.799 247.056 271.799 247.056 270.058 245.542C271.347 243.947 272.645 242.358 273.945 240.771L275.037 239.418C279.21 234.338 283.696 230.682 289.617 227.847L290.649 227.35C293.527 226.001 296.465 224.911 299.483 223.919C301.565 223.233 303.494 222.435 305.45 221.445C302.031 219.243 298.515 217.674 294.738 216.191C291.096 214.748 287.527 213.188 283.991 211.502L282.841 210.96C280.135 209.654 280.135 209.654 279.657 208.658L278.212 209.271C268.414 213.374 268.414 213.374 262.878 211.241L261.246 210.619C256.562 208.659 252.744 205.942 248.914 202.624L248.162 201.98C246.211 200.219 245.071 198.496 243.992 196.114L243.517 195.11C243.024 194.064 242.541 193.014 242.058 191.964C241.723 191.249 241.387 190.534 241.051 189.819C240.233 188.079 239.424 186.334 238.62 184.588C249.132 182.457 259.957 185.677 269.078 191.135C271.58 192.8 273.883 194.657 276.097 196.69L277.212 197.672C278.395 199.087 278.99 200.43 279.695 202.119C281.591 206.635 283.315 209.28 287.987 211.225L289.297 211.8C290.186 212.177 291.079 212.543 291.977 212.899C293.704 213.627 295.36 214.471 297.023 215.334C302.89 218.394 302.89 218.394 309.214 220.185C306.797 217.218 304.371 214.672 301.323 212.347C292.831 205.751 285.159 196.884 278.648 188.354L277.945 187.438C275.402 184.087 273.339 180.83 271.679 176.962C270.092 173.352 268.074 171.471 264.394 170.03C260.843 168.791 258.365 169.965 255.035 171.395C250.23 173.256 245.747 173.248 240.795 172.055L239.442 171.773C234.986 170.698 231.121 168.463 227.185 166.188L227.011 166.088L225.65 165.322C223.105 163.78 221.016 161.869 218.904 159.79L218.105 159.005C215.789 156.648 214.067 154.097 212.678 151.084L212.197 150.05L211.852 149.292C220.82 144.491 229.856 142.729 239.801 145.639C241.442 146.138 243.073 146.668 244.703 147.203L246.517 147.784C253.001 149.943 258.81 153.692 262.002 159.997C262.712 161.71 262.95 163.313 263.147 165.157C264.098 167.836 265.161 168.835 267.697 170.086L268.354 170.317Z" fill="#C6E0EA"/>
<path d="M57.9466 246.134C71.4399 238.943 88.516 236.093 103.431 240.617C108.538 242.274 112.45 244.118 115.94 248.282C116.747 249.237 116.747 249.237 118.237 250.024C119.47 249.971 119.47 249.971 120.829 249.737C123.392 249.444 125.493 249.608 128.013 250.106C129.628 250.393 131.227 250.618 132.854 250.817C133.382 250.881 133.91 250.946 134.454 251.013C135.527 251.142 136.601 251.269 137.675 251.393C138.169 251.454 138.663 251.515 139.172 251.578C139.62 251.631 140.068 251.683 140.53 251.738C140.868 251.812 141.206 251.886 141.554 251.963C141.695 252.256 141.835 252.55 141.981 252.852C140.122 253.421 138.607 253.503 136.672 253.359C135.844 253.3 135.844 253.3 134.999 253.24C134.426 253.195 133.853 253.15 133.263 253.104C132.703 253.063 132.142 253.023 131.565 252.982C128.363 252.746 125.167 252.469 121.971 252.154C119.489 251.93 117.76 252.474 115.753 253.951C113.989 255.881 112.474 258.025 110.969 260.16C108.747 262.918 105.264 264.688 101.788 265.144C95.5859 265.601 89.3897 265.52 83.5191 263.292C80.9634 262.356 78.3191 261.659 75.6525 261.127C72.0536 260.152 69.9605 257.783 67.5131 255.117C64.9961 252.434 62.5854 250.102 59.4785 248.113C58.5868 247.468 58.5868 247.468 57.9466 246.134Z" fill="#C6E0EA"/>
<path d="M211.859 149.292C220.827 144.49 229.863 142.728 239.808 145.638C241.449 146.137 243.08 146.667 244.709 147.202C245.308 147.394 245.907 147.585 246.524 147.783C253.007 149.942 258.817 153.691 262.009 159.996C262.719 161.71 262.957 163.312 263.154 165.157C264.072 167.605 265.099 168.837 267.26 170.298C266.821 170.509 266.381 170.72 265.929 170.937C265.5 170.725 265.072 170.513 264.631 170.295C262.398 169.241 260.622 169.221 258.288 170.024C257.79 170.252 257.291 170.479 256.778 170.713C251.332 172.961 246.525 173.433 240.802 172.055C240.356 171.961 239.909 171.868 239.449 171.772C234.928 170.681 231.014 168.397 227.018 166.087C226.569 165.835 226.12 165.582 225.657 165.322C223.112 163.779 221.022 161.868 218.911 159.789C218.647 159.53 218.384 159.271 218.112 159.004C215.796 156.647 214.074 154.096 212.685 151.083C212.526 150.742 212.367 150.401 212.204 150.049C212.09 149.799 211.976 149.549 211.859 149.292Z" fill="#C6E0EA"/>
<path d="M204.055 255.888C205.611 255.849 206.784 256.033 208.228 256.621C207.201 257.182 207.201 257.182 206.009 257.685C205.576 257.533 205.142 257.38 204.695 257.222C204.484 256.782 204.272 256.342 204.055 255.888Z" fill="white"/>
<path d="M249.161 219.162L206.939 153.694L204.725 144.86L250.763 116.894L309.067 102.285L357.418 269.022L289.278 270.605L249.161 219.162Z" fill="white"/>
</g>
<defs>
<clipPath id="clip0_100_1384">
<rect width="373.623" height="356.456" fill="white" transform="translate(0.65625 162.028) rotate(-25.6377)"/>
</clipPath>
</defs>
</svg>
