<svg width="14" height="14" viewBox="0 0 14 14" fill="none" xmlns="http://www.w3.org/2000/svg">
<path fill-rule="evenodd" clip-rule="evenodd" d="M11.9503 12.6599C12.1456 12.8551 12.4622 12.8551 12.6574 12.6599C12.8527 12.4646 12.8527 12.148 12.6574 11.9528L7.70775 7.00309L12.6574 2.05342C12.8527 1.85816 12.8527 1.54157 12.6574 1.34631C12.4622 1.15105 12.1456 1.15105 11.9503 1.34631L7.00065 6.29598L2.05082 1.34615C1.85556 1.15089 1.53898 1.15089 1.34371 1.34615C1.14845 1.54142 1.14845 1.858 1.34371 2.05326L6.29354 7.00309L1.34371 11.9529C1.14845 12.1482 1.14845 12.4648 1.34371 12.66C1.53897 12.8553 1.85556 12.8553 2.05082 12.66L7.00064 7.71019L11.9503 12.6599Z" fill="white"/>
</svg>
