<svg width="110" height="110" viewBox="0 0 110 110" fill="none" xmlns="http://www.w3.org/2000/svg">
<rect opacity="0.2" width="110" height="110" rx="55" fill="#E33E3E"/>
<rect x="10" y="10" width="90" height="90" rx="45" fill="#E33E3E"/>
<path fill-rule="evenodd" clip-rule="evenodd" d="M68.435 44.5827C68.9232 44.0945 68.9232 43.3031 68.435 42.8149C67.9469 42.3268 67.1554 42.3268 66.6673 42.8149L55 54.4822L43.3327 42.8149C42.8446 42.3268 42.0531 42.3268 41.565 42.8149C41.0768 43.3031 41.0768 44.0945 41.565 44.5827L53.2322 56.2499L41.565 67.9172C41.0768 68.4054 41.0768 69.1968 41.565 69.685C42.0531 70.1731 42.8446 70.1731 43.3327 69.685L55 58.0177L66.6673 69.685C67.1554 70.1731 67.9469 70.1731 68.435 69.685C68.9232 69.1968 68.9232 68.4054 68.435 67.9172L56.7678 56.2499L68.435 44.5827Z" fill="white"/>
</svg>
