<svg width="390" height="226" viewBox="0 0 390 226" fill="none" xmlns="http://www.w3.org/2000/svg">
<path opacity="0.4" d="M-4.11152 0.941187C-3.19199 1.61148 -3.0784 2.5633 -2.76148 3.61115C-1.67643 7.00183 -0.522066 9.52746 2.74016 11.245C11.8584 15.6187 21.7798 15.1367 31.6149 14.6056C43.2589 13.9773 43.2589 13.9773 47.1632 14.4474C47.4041 14.476 47.6451 14.5047 47.8933 14.5342C48.9252 14.6587 49.9568 14.784 50.9867 14.9238C51.2184 14.9549 51.45 14.9859 51.6887 15.0179C51.89 15.0459 52.0912 15.0738 52.2986 15.1026C54.5563 15.3209 56.6366 15.26 58.8792 14.9146C59.3037 14.8516 59.3037 14.8516 59.7368 14.7873C60.6512 14.6494 61.5647 14.5064 62.4781 14.3621C62.9465 14.2891 62.9465 14.2891 63.4245 14.2146C68.398 13.432 73.1661 12.3554 77.9703 10.864C79.2892 10.4609 80.6178 10.1028 81.9538 9.76087C82.1705 9.70533 82.3872 9.64979 82.6105 9.59257C84.6412 9.08876 86.6887 8.75884 88.7627 8.48806C89.0161 8.8546 89.0161 8.8546 89.2745 9.22854C90.9534 11.6336 92.7446 13.8976 94.653 16.1237C94.9932 16.5302 95.3332 16.9371 95.6726 17.3443C92.9825 17.7984 90.3083 18.1425 87.5881 18.3734C84.3109 18.657 81.0441 19.0122 77.7898 19.4935C77.4057 19.5499 77.0214 19.6044 76.6368 19.657C74.4759 19.9553 72.8579 20.2257 71.2253 21.7231C70.4579 22.8901 70.2187 23.9361 70.3485 25.3088C70.7914 27.1371 72.0761 28.6276 73.1984 30.0969C73.5146 30.5116 73.8306 30.9266 74.1463 31.3417C74.3116 31.5589 74.4768 31.7762 74.6471 32C76.0181 33.8414 77.1748 35.7706 78.3104 37.7637C81.5098 43.3553 84.8554 47.3155 90.1628 51.0052C92.0134 52.3125 93.8382 53.7422 94.3711 56.0496C94.3866 56.9578 94.1362 57.6592 93.8494 58.5198C92.38 63.1369 95.0372 68.1295 97.1096 72.213C99.6428 77.0973 102.5 81.9985 106.417 85.9186C106.739 86.2812 106.739 86.2812 106.824 86.8201C108.639 85.9456 109.182 84.7911 109.988 82.9949C110.242 82.4527 110.497 81.9107 110.753 81.3688C110.88 81.0953 111.007 80.8218 111.138 80.5401C112.833 76.9262 114.73 73.4374 116.774 70.0104C117.222 69.2559 117.657 68.4941 118.094 67.7338C119.062 66.0874 120.115 64.5031 121.184 62.9222C121.52 62.4235 121.853 61.9228 122.185 61.4214C123.813 58.9663 125.45 56.5169 127.351 54.2615C130.562 50.4514 133.723 46.4668 136.205 42.1431C139.724 36.1243 144.609 30.3518 151.505 28.2048C152.767 27.9236 154.037 27.7187 155.316 27.5219C155.646 27.4659 155.975 27.4099 156.315 27.3521C161.302 26.5688 165.843 27.1239 170.057 30.0013C171.346 31.0048 172.387 32.1456 173.443 33.3803C175.879 36.1868 178.791 36.7966 182.273 37.7434C182.37 38.3658 182.468 38.9883 182.568 39.6295C181.751 40.1791 180.938 40.5207 180.013 40.8404C178.599 41.3501 177.58 41.8848 176.676 43.1225C176.027 44.6353 176.37 46.188 176.616 47.7731C176.647 47.9821 176.679 48.1912 176.712 48.4065C176.815 49.0829 176.921 49.7588 177.027 50.4347C177.063 50.6664 177.099 50.898 177.136 51.1367C177.544 53.7396 177.974 56.3119 178.673 58.8555C180.029 63.8333 181.288 69.3614 180.292 74.4922C180.231 74.8611 180.171 75.23 180.11 75.599C179.277 80.3739 177.509 84.6601 175.08 88.8346C174.971 89.0213 174.863 89.2081 174.751 89.4006C171.29 95.2843 167.025 100.504 161.657 104.755C161.491 104.887 161.325 105.018 161.154 105.154C160.394 105.742 159.693 106.217 158.799 106.566C159.17 107.091 159.545 107.612 159.924 108.132C160.133 108.423 160.342 108.714 160.557 109.013C162.03 110.667 164.287 110.693 166.382 110.9C167.599 110.952 168.809 110.942 170.026 110.916C170.348 110.912 170.67 110.907 171.001 110.903C173.082 110.87 175.161 110.805 177.236 110.644C179.223 110.517 180.55 111.066 182.069 112.309C182.26 112.502 182.452 112.694 182.65 112.892C184.134 114.362 185.107 115.016 187.2 115.095C187.405 115.115 187.61 115.134 187.822 115.155C190.511 115.396 193.13 115.034 195.782 114.606C196.089 114.558 196.397 114.51 196.713 114.46C197.685 114.306 198.657 114.15 199.628 113.995C200.291 113.89 200.954 113.785 201.617 113.68C203.234 113.424 204.85 113.166 206.466 112.907C206.39 112.775 206.314 112.642 206.235 112.506C203.359 107.498 201.001 102.212 202.321 96.305C202.414 95.9708 202.508 95.6366 202.604 95.2923C202.654 95.1151 202.703 94.9379 202.754 94.7553C204.968 87.0544 210.437 80.6964 217.408 76.8154C219.921 75.4666 219.921 75.4666 221.286 75.2529C223.446 78.4442 225.538 81.6268 227.244 85.0863C227.38 85.3533 227.515 85.6204 227.655 85.8955C229.157 89.182 230.133 93.6063 228.984 97.108C228.837 97.4678 228.837 97.4678 228.687 97.8348C228.595 98.071 228.502 98.3072 228.407 98.5505C228.117 99.225 227.797 99.8665 227.45 100.513C227.302 100.802 227.302 100.802 227.151 101.097C224.819 105.223 220.499 108.082 216.818 110.886C216.182 111.379 215.564 111.888 214.95 112.407C215.817 113.04 217.607 112.703 218.653 112.714C219.216 112.721 219.778 112.732 220.341 112.743C223.777 112.793 226.611 112.786 229.28 110.44C229.53 110.185 229.781 109.929 230.039 109.666C230.938 108.94 231.53 108.993 232.658 109.084C232.377 109.036 232.096 108.989 231.807 108.941C231.547 101.958 234.538 96.034 239.138 91.0337C244.216 85.7248 250.565 81.6029 257.148 78.4042C257.426 78.2681 257.704 78.1321 257.991 77.9919C258.675 77.6821 258.675 77.6821 259.214 77.5977C261.236 81.1084 262.213 86.8515 261.385 90.7834C261.303 91.0698 261.222 91.3562 261.138 91.6513C261.089 91.8234 261.04 91.9954 260.99 92.1727C259.381 97.6846 255.975 101.735 252.025 105.776C259.758 104.36 267.964 101.253 272.775 94.7372C273.619 93.504 274.258 92.2674 274.828 90.8887C274.95 90.6124 275.072 90.336 275.197 90.0513C278.509 82.0579 279.352 73.1156 280.562 64.6191C282.091 53.9126 284.398 43.6149 290.596 34.5906C290.763 34.3411 290.929 34.0915 291.101 33.8344C293.269 30.7067 296.194 27.594 299.389 25.4848C299.581 25.5459 299.773 25.6069 299.971 25.6698C299.733 25.9542 299.733 25.9542 299.491 26.2442C297.516 28.6583 295.754 31.1907 294.018 33.7807C293.653 34.3224 293.283 34.8602 292.91 35.3963C285.222 46.5867 282.471 60.7379 281.453 74.0522C281.378 75.0133 281.292 75.9733 281.205 76.9334C281.173 77.2896 281.141 77.6458 281.108 78.0128C281.01 79.0849 280.897 80.1553 280.784 81.2259C280.571 83.2408 280.384 85.2388 280.337 87.2659C282.694 86.2149 284.879 84.9002 287.096 83.5877C290.445 81.6076 293.796 79.6861 297.28 77.9541C300.348 76.4236 303.169 74.6423 306.008 72.7334C307.922 71.4501 309.837 70.2652 311.924 69.2844C313.317 68.6258 314.697 67.9376 315.363 66.4851C315.416 66.2246 315.468 65.9641 315.522 65.6957C315.586 65.39 315.65 65.0844 315.715 64.7695C315.853 63.9005 315.954 63.0357 316.043 62.1607C316.579 57.1223 318.123 50.4732 322.098 47.051C321.86 48.2424 321.468 49.35 321.029 50.4791C320.959 50.6625 320.889 50.8458 320.817 51.0348C320.458 51.9679 320.076 52.8806 319.648 53.7837C318.36 56.7954 318.313 59.5774 319.026 62.7146C323.778 60.8622 326.715 57.8011 330.103 54.0796C330.344 53.8154 330.586 53.5513 330.835 53.2791C331.46 52.5885 332.076 51.8917 332.688 51.1903C332.81 51.0513 332.932 50.9123 333.057 50.7691C335.854 47.5655 338.489 44.2407 341.007 40.8131C341.121 40.6575 341.236 40.5019 341.354 40.3415C342.268 39.0839 343.098 37.78 343.915 36.4586C344.035 36.2661 344.154 36.0736 344.277 35.8753C346.924 31.5743 349.34 27.1034 351.059 22.3445C351.133 22.1578 351.208 21.9711 351.284 21.7787C351.373 21.7648 351.462 21.7509 351.554 21.7365C352.176 25.7117 350.167 29.5705 348.346 33.0046C348.151 33.3768 348.151 33.3768 347.951 33.7565C345.841 37.6018 343.191 41.109 340.455 44.5246C339.717 45.4497 338.99 46.3833 338.262 47.316C337.44 48.3658 336.617 49.4144 335.784 50.4546C335.534 50.7673 335.283 51.08 335.033 51.3927C334.91 51.546 334.787 51.6993 334.66 51.8572C334.039 52.6383 333.441 53.4275 332.872 54.2477C329.163 59.5884 324.151 63.5093 319.013 67.4001C317.252 68.7349 315.511 70.0917 313.785 71.4714C313.565 71.6477 313.344 71.824 313.116 72.0057C312.153 72.7197 312.153 72.7197 311.336 73.58C311.7 73.5291 311.7 73.5291 312.072 73.4771C322.875 71.9843 333.987 70.7797 344.705 73.4812C344.979 73.5495 344.979 73.5495 345.259 73.6192C347.017 74.0996 348.584 74.87 349.618 76.4215C349.674 76.7772 349.73 77.1329 349.787 77.4993C348.622 77.4878 347.52 77.2935 346.382 77.0629C345.976 76.9838 345.571 76.9047 345.165 76.8258C344.539 76.7031 343.913 76.5795 343.288 76.453C337.132 75.2133 331.247 74.9061 324.994 75.4795C324.369 75.5334 323.744 75.5872 323.119 75.6409C314.255 76.4233 306.25 77.2098 299.259 83.2096C296.733 85.1759 293.665 86.0737 290.658 87.0246C287.459 88.077 284.764 89.6989 282.087 91.7194C281.757 91.9663 281.757 91.9663 281.42 92.2181C274.602 97.1977 274.602 97.1977 269.674 103.842C269.916 103.878 270.158 103.914 270.408 103.951C271.384 104.129 272.303 104.385 273.255 104.661C280.465 106.639 287.995 107.231 295.428 107.653C297.581 107.775 299.729 107.918 301.878 108.1C309.71 108.738 315.555 107.787 322.887 104.855C323.788 104.508 324.565 104.31 325.521 104.21C325.529 104.846 325.538 105.483 325.547 106.138C325.298 106.221 325.05 106.303 324.794 106.389C322.812 107.062 320.889 107.805 318.989 108.683C318.792 108.773 318.595 108.863 318.392 108.956C317.552 109.342 316.715 109.73 315.883 110.132C311.188 112.249 306.656 112.082 301.704 111.225C298.336 110.685 294.922 110.611 291.518 110.619C285.924 110.631 280.92 109.818 275.477 108.535C275.157 108.46 274.836 108.385 274.505 108.308C273.881 108.161 273.257 108.012 272.634 107.861C272.348 107.793 272.061 107.726 271.767 107.656C271.515 107.595 271.263 107.534 271.004 107.472C269.297 107.194 267.669 107.429 265.982 107.705C265.769 107.739 265.557 107.773 265.338 107.807C264.665 107.914 263.993 108.023 263.32 108.132C262.862 108.205 262.403 108.278 261.944 108.351C260.825 108.529 259.707 108.709 258.589 108.889C258.76 109.06 258.932 109.231 259.109 109.407C265.989 116.267 271.331 123.885 272.696 133.734C272.354 133.648 272.013 133.561 271.66 133.472C267.167 132.367 262.703 131.805 258.085 131.587C257.434 131.555 256.784 131.523 256.133 131.49C255.71 131.469 255.286 131.449 254.863 131.43C250.682 131.217 246.862 130.08 242.914 128.734C242.667 128.653 242.42 128.571 242.165 128.487C239.488 127.589 237.615 126.661 236.297 124.027C235.946 123.332 235.571 122.653 235.195 121.971C232.919 117.81 232.919 117.81 232.802 117.066C232.462 117.132 232.122 117.198 231.772 117.266C228.519 117.855 225.34 118.15 222.044 118.277C215.995 118.525 210.096 119.381 204.132 120.374C202.839 120.588 201.545 120.795 200.251 121.003C197.745 121.407 195.24 121.818 192.736 122.234C193.437 123.13 194.14 124.024 194.844 124.918C195.04 125.168 195.236 125.419 195.437 125.677C197.971 128.891 200.732 131.808 204.011 134.271C204.236 134.451 204.462 134.63 204.694 134.815C207.635 137.085 211.981 139.208 215.791 138.805C216.472 138.717 217.149 138.615 217.827 138.51C218.054 138.478 218.281 138.445 218.514 138.412C221.76 137.912 224.493 136.565 227.364 135.033C235.915 130.489 235.915 130.489 239.999 131.727C240.427 131.906 240.849 132.097 241.264 132.305C241.577 132.45 241.89 132.594 242.213 132.743C244.582 134.318 246.228 137.083 247.845 139.363C249.416 141.54 251.077 143.371 253.586 144.42C253.867 144.544 253.867 144.544 254.154 144.67C254.775 144.938 255.4 145.197 256.026 145.453C256.257 145.548 256.487 145.642 256.725 145.739C264.682 148.969 270.568 149.387 278.6 146.438C282.941 144.846 287.126 143.529 291.765 143.24C294.243 143.085 296.662 142.699 299.107 142.286C300.11 142.117 301.115 141.953 302.119 141.789C303.979 141.486 305.839 141.18 307.697 140.865C308.999 140.645 310.302 140.431 311.606 140.222C312.096 140.142 312.587 140.06 313.077 139.974C316.39 139.4 319.254 139.378 322.563 140.007C322.577 140.096 322.59 140.185 322.605 140.277C322.308 140.334 322.012 140.392 321.706 140.451C312.504 142.157 312.504 142.157 303.682 145.206C302.8 145.566 302.049 145.751 301.106 145.85C301.269 146.007 301.431 146.164 301.598 146.326C303.573 148.31 305.256 150.456 306.912 152.714C308.216 154.471 309.633 156.012 311.218 157.518C311.4 157.692 311.581 157.865 311.768 158.044C315.027 161.119 318.575 164.339 323.268 164.697C325.745 164.427 327.785 161.779 329.272 159.937C331.898 156.45 333.552 152.271 335.176 148.247C337.197 150.445 338.12 153.868 338.579 156.755C338.615 156.976 338.651 157.197 338.689 157.424C338.924 159.164 338.774 160.521 337.856 162.061C336.432 163.71 334.82 165.03 333.023 166.251C337.545 165.685 341.347 164.315 345.415 162.347C346.5 161.824 347.59 161.312 348.68 160.799C349.221 160.545 349.763 160.289 350.303 160.033C350.55 159.917 350.797 159.8 351.051 159.68C351.268 159.577 351.486 159.474 351.71 159.368C356.177 157.373 361.045 157.212 365.58 158.878C367.127 159.48 368.591 160.206 370.056 160.983C371.094 161.503 372.15 161.954 373.225 162.391C373.497 162.503 373.497 162.503 373.774 162.618C375.298 163.228 376.84 163.709 378.481 163.881C378.765 163.91 379.048 163.94 379.341 163.97C379.076 165.096 378.465 165.938 377.79 166.853C377.669 167.016 377.549 167.179 377.424 167.348C373.957 171.952 370.068 175.353 364.583 177.322C364.9 177.423 365.216 177.524 365.542 177.628C374.384 180.517 383.029 186.725 387.561 195.043C388.982 198.243 389.701 202.239 388.696 205.656C388.647 205.839 388.597 206.023 388.546 206.211C387.976 207.222 387.093 207.703 386.006 208.033C376.47 209.452 366.612 208.376 358.553 202.789C352.45 198.115 348.423 191.378 344.934 184.677C344.806 184.43 344.677 184.183 344.545 183.929C343.769 182.414 343.086 180.884 342.464 179.299C341.274 176.824 338.169 175.862 335.818 174.79C334.885 174.361 333.961 173.915 333.036 173.469C328.751 171.407 324.419 169.489 319.999 167.738C320.513 168.488 321.074 169.164 321.683 169.84C332.809 182.275 335.785 193.648 335.081 210.166C334.817 214.88 334.1 220.2 330.389 223.53C329.562 224.06 328.718 224.551 327.861 225.03C327.831 224.86 327.8 224.69 327.769 224.514C326.775 219.084 325.648 215.737 321.662 211.825C315.942 206.204 312.95 201.052 312.677 192.764C312.695 191.556 312.886 190.416 313.145 189.238C313.198 188.969 313.198 188.969 313.253 188.693C314.246 183.69 316.083 178.887 317.996 174.173C318.659 172.53 318.55 171.406 318.095 169.692C316.788 166.667 313.196 164.623 310.565 162.831C307.642 160.681 306 157.672 304.31 154.539C303.005 152.161 301.389 150.07 298.832 148.967C292.666 147.237 286.642 149.119 280.783 151.203C275.881 152.918 270.736 153.803 265.548 153.349C265.125 153.317 264.703 153.286 264.28 153.256C263.467 153.197 262.654 153.132 261.841 153.064C260.936 152.998 260.044 152.968 259.136 152.972C262.139 157.7 266.691 161.375 270.95 164.925C271.088 165.051 271.225 165.177 271.367 165.307C272.105 165.735 272.679 165.675 273.527 165.653C273.85 165.647 274.173 165.641 274.505 165.635C275.011 165.621 275.011 165.621 275.527 165.606C281.044 165.479 281.044 165.479 283.796 166.382C283.997 166.448 284.197 166.513 284.404 166.58C287.578 167.648 290.44 169.191 293.184 171.107C293.425 171.271 293.667 171.435 293.916 171.604C299.384 175.419 302.408 180.704 303.573 187.138C303.647 187.556 303.721 187.973 303.795 188.39C303.872 188.818 303.95 189.245 304.028 189.672C304.216 190.71 304.402 191.748 304.586 192.786C296.832 194.177 289.982 194.312 283.128 189.796C277.506 185.855 274.721 180.33 272.219 174.102C270.483 169.724 270.483 169.724 267.302 166.324C267.668 167.453 268.074 168.561 268.496 169.67C269.315 171.87 269.976 174.103 270.584 176.37C270.64 176.581 270.697 176.793 270.756 177.01C271.723 180.655 272.448 184.322 273.05 188.044C273.111 188.406 273.111 188.406 273.173 188.776C274.055 194.091 273.851 199.743 270.703 204.37C268.902 206.641 266.493 208.017 264.056 209.51C262.134 210.701 260.47 211.99 258.926 213.652C258.483 214.081 258.483 214.081 257.944 214.166C255.748 211.043 253.936 207.856 252.468 204.326C252.396 204.155 252.324 203.984 252.25 203.808C250.191 198.689 249.33 192.486 249.825 187.003C249.84 186.815 249.855 186.626 249.871 186.432C250.446 179.533 252.839 173.613 257.491 168.495C259.788 165.988 259.788 165.988 260.803 162.857C260.773 162.662 260.743 162.467 260.712 162.266C260.687 162.071 260.662 161.876 260.636 161.675C260.128 160.329 258.848 159.382 257.829 158.394C256.427 157.032 255.12 155.644 253.896 154.12C252.61 152.53 251.203 151.284 249.565 150.053C247.955 148.789 246.422 147.475 244.937 146.068C242.736 143.996 240.659 142.291 237.719 141.418C237.552 141.349 237.385 141.28 237.214 141.209C235.874 140.88 234.446 141.286 233.098 141.502C232.544 141.589 231.989 141.67 231.434 141.749C226.267 142.532 222.494 144.474 219.1 148.467C217.652 150.011 215.88 150.775 213.845 151.227C213.645 151.276 213.444 151.325 213.237 151.375C211.768 151.684 210.966 151.564 209.633 150.783C209.388 150.648 209.144 150.514 208.892 150.376C205.401 148.306 202.837 144.507 200.301 141.421C195.779 135.919 190.446 130.893 184.843 126.506C184.588 126.304 184.334 126.103 184.071 125.895C175.953 119.709 166.54 117.932 156.623 116.866C152.719 116.425 148.772 115.815 144.917 115.054C142.42 114.713 139.851 115.697 137.515 116.488C137.096 116.626 137.096 116.626 136.669 116.766C135.43 117.177 134.195 117.601 132.97 118.055C132.792 118.12 132.615 118.186 132.432 118.253C131.263 118.841 130.545 119.832 130.06 121.024C128.577 126.015 129.765 131.645 130.574 136.656C130.62 136.949 130.666 137.241 130.714 137.542C131.347 141.523 132.083 145.428 133.112 149.327C133.493 150.85 133.783 152.393 134.081 153.934C134.3 155.052 134.541 156.153 134.838 157.254C135.181 158.54 135.425 159.826 135.632 161.141C135.668 161.352 135.705 161.563 135.742 161.781C136.047 163.694 136.094 165.517 135.449 167.363C133.878 167.437 132.357 167.395 130.79 167.264C130.581 167.248 130.371 167.232 130.155 167.215C129.312 167.147 128.483 167.068 127.648 166.928C127.224 166.341 126.856 165.78 126.491 165.159C126.144 164.582 125.797 164.004 125.44 163.409C123.558 163.612 121.676 163.816 119.737 164.026C118.097 161.487 118.097 161.487 117.728 160.458C117.656 160.261 117.584 160.064 117.51 159.861C117.46 159.719 117.411 159.576 117.36 159.429C116.876 159.654 116.876 159.654 116.383 159.884C115.957 160.08 115.532 160.276 115.107 160.471C114.894 160.571 114.682 160.67 114.463 160.772C114.257 160.866 114.051 160.961 113.839 161.058C113.556 161.189 113.556 161.189 113.267 161.323C112.719 161.535 112.719 161.535 111.64 161.704C111.433 159.476 111.567 157.319 111.762 155.094C111.793 154.736 111.823 154.377 111.854 154.007C112.05 151.748 112.308 149.505 112.639 147.262C112.933 145.259 113.127 143.251 113.317 141.235C113.534 138.993 113.84 136.769 114.194 134.545C114.665 131.453 114.525 128.411 114.298 125.302C114.275 124.967 114.251 124.631 114.227 124.285C114.153 123.223 114.078 122.162 114.002 121.1C113.926 120.034 113.852 118.969 113.777 117.903C113.731 117.243 113.684 116.583 113.637 115.923C113.525 114.344 113.434 112.77 113.4 111.187C113.241 111.148 113.083 111.108 112.92 111.066C110.58 110.213 108.466 108.372 106.625 106.727C105.316 107.392 104.345 108.382 103.296 109.387C103.097 109.576 102.899 109.765 102.694 109.959C101.419 111.171 100.153 112.393 98.8866 113.615C94.2528 118.086 94.2528 118.086 93.3168 118.748C93.1249 118.687 92.9331 118.626 92.7354 118.563C93.7453 116.032 94.753 113.515 96.0396 111.11C97.1172 109.095 98.0893 107.037 99.0475 104.963C99.1928 104.649 99.338 104.336 99.4876 104.013C100.601 101.882 100.601 101.882 100.828 99.577C99.752 97.2126 97.3832 95.7731 95.0812 94.7312C93.9075 94.3031 92.7145 93.9447 91.5157 93.5942C89.6878 93.0416 88.2457 92.4209 87.2708 90.7088C86.4527 88.8618 86.0942 86.9538 85.8145 84.9682C85.7813 84.7327 85.7481 84.4972 85.7139 84.2546C85.5784 83.2757 85.4459 82.2965 85.3221 81.316C84.559 75.3623 82.2497 70.5959 79.2288 65.4666C78.9713 65.024 78.7141 64.5812 78.4572 64.1381C77.9452 63.256 77.4313 62.375 76.9161 61.4947C76.3758 60.5692 75.8419 59.6402 75.3124 58.7084C75.1773 58.4706 75.0422 58.2329 74.903 57.9879C74.647 57.5366 74.3916 57.085 74.137 56.6329C71.6374 52.2276 68.3512 48.5077 64.8995 44.8245C62.2487 41.9863 60.1802 39.1409 58.3458 35.7128C56.0028 30.9468 56.0028 30.9468 51.7826 28.079C48.471 27.3437 45.1096 27.4382 41.7488 27.7172C41.4541 27.7407 41.1593 27.7642 40.8556 27.7884C38.1663 28.0139 35.4867 28.3149 32.805 28.6155C18.9939 30.1581 5.95132 31.1241 -5.42231 22.0562C-5.79371 21.7586 -6.16508 21.461 -6.53639 21.1633C-7.09509 20.727 -7.66556 20.3127 -8.2426 19.901C-9.08142 19.2953 -9.82129 18.6583 -10.5356 17.9059C-10.7251 17.7096 -10.9147 17.5133 -11.1099 17.3111C-11.5657 16.7596 -11.8112 16.3838 -12.0193 15.7055C-11.7335 14.9476 -11.4298 14.2708 -11.0614 13.5542C-10.9051 13.2401 -10.9051 13.2401 -10.7456 12.9196C-10.4117 12.2537 -10.0714 11.5915 -9.72877 10.9301C-9.61864 10.7171 -9.50851 10.504 -9.39505 10.2845C-7.74359 7.10568 -6.01712 3.97585 -4.11152 0.941187Z" fill="#C6E0EA"/>
</svg>
