<svg width="335" height="241" viewBox="0 0 335 241" fill="none" xmlns="http://www.w3.org/2000/svg">
<path opacity="0.4" d="M395.112 3.94094C394.192 4.61124 394.078 5.56305 393.761 6.61091C392.676 10.0016 391.522 12.5272 388.26 14.2448C379.142 18.6185 369.22 18.1364 359.385 17.6054C347.741 16.977 347.741 16.977 343.837 17.4471C343.596 17.4758 343.355 17.5044 343.107 17.5339C342.075 17.6584 341.043 17.7838 340.013 17.9236C339.782 17.9546 339.55 17.9857 339.311 18.0176C339.11 18.0456 338.909 18.0736 338.701 18.1024C336.444 18.3206 334.363 18.2598 332.121 17.9144C331.696 17.8513 331.696 17.8513 331.263 17.787C330.349 17.6492 329.435 17.5062 328.522 17.3619C328.053 17.2889 328.053 17.2889 327.576 17.2144C322.602 16.4318 317.834 15.3551 313.03 13.8637C311.711 13.4606 310.382 13.1025 309.046 12.7606C308.83 12.7051 308.613 12.6495 308.39 12.5923C306.359 12.0885 304.311 11.7586 302.237 11.4878C301.984 11.8544 301.984 11.8544 301.725 12.2283C300.047 14.6334 298.255 16.8973 296.347 19.1234C296.007 19.53 295.667 19.9368 295.327 20.3441C298.017 20.7981 300.692 21.1422 303.412 21.3732C306.689 21.6568 309.956 22.0119 313.21 22.4932C313.594 22.5496 313.979 22.6042 314.363 22.6567C316.524 22.9551 318.142 23.2255 319.775 24.7228C320.542 25.8899 320.781 26.9358 320.652 28.3085C320.209 30.1369 318.924 31.6273 317.802 33.0966C317.485 33.5114 317.169 33.9263 316.854 34.3415C316.688 34.5587 316.523 34.7759 316.353 34.9997C314.982 36.8411 313.825 38.7703 312.69 40.7635C309.49 46.355 306.145 50.3153 300.837 54.005C298.987 55.3122 297.162 56.7419 296.629 59.0494C296.613 59.9575 296.864 60.6589 297.151 61.5195C298.62 66.1367 295.963 71.1293 293.89 75.2128C291.357 80.0971 288.5 84.9982 284.583 88.9184C284.261 89.281 284.261 89.281 284.176 89.8199C282.361 88.9454 281.818 87.7909 281.012 85.9947C280.758 85.4525 280.503 84.9104 280.247 84.3685C280.12 84.0951 279.993 83.8216 279.862 83.5398C278.167 79.9259 276.27 76.4371 274.226 73.0101C273.778 72.2556 273.343 71.4939 272.906 70.7335C271.938 69.0872 270.885 67.5029 269.816 65.922C269.48 65.4233 269.147 64.9225 268.815 64.4212C267.187 61.9661 265.55 59.5166 263.649 57.2613C260.438 53.4512 257.277 49.4665 254.795 45.1429C251.276 39.1241 246.391 33.3516 239.495 31.2046C238.233 30.9234 236.963 30.7184 235.684 30.5217C235.354 30.4657 235.025 30.4096 234.685 30.3519C229.698 29.5685 225.157 30.1236 220.943 33.001C219.654 34.0046 218.613 35.1454 217.557 36.38C215.121 39.1866 212.209 39.7963 208.727 40.7432C208.63 41.3656 208.532 41.988 208.432 42.6293C209.249 43.1788 210.062 43.5204 210.987 43.8401C212.401 44.3499 213.42 44.8846 214.324 46.1222C214.973 47.6351 214.63 49.1878 214.384 50.7729C214.353 50.9819 214.321 51.1909 214.288 51.4063C214.185 52.0827 214.079 52.7586 213.973 53.4345C213.937 53.6661 213.901 53.8978 213.864 54.1364C213.456 56.7393 213.026 59.3117 212.327 61.8552C210.971 66.8331 209.712 72.3612 210.708 77.492C210.769 77.8608 210.829 78.2298 210.89 78.5988C211.723 83.3736 213.491 87.6599 215.92 91.8343C216.029 92.0211 216.137 92.2079 216.249 92.4004C219.71 98.284 223.975 103.504 229.343 107.755C229.509 107.887 229.675 108.018 229.846 108.154C230.606 108.742 231.307 109.217 232.201 109.566C231.83 110.091 231.455 110.612 231.076 111.132C230.867 111.423 230.658 111.713 230.443 112.013C228.97 113.667 226.713 113.693 224.618 113.9C223.401 113.952 222.191 113.942 220.974 113.916C220.652 113.911 220.33 113.907 219.999 113.903C217.918 113.87 215.839 113.805 213.764 113.644C211.777 113.517 210.45 114.066 208.931 115.309C208.74 115.501 208.548 115.694 208.35 115.892C206.866 117.361 205.893 118.016 203.8 118.094C203.595 118.114 203.39 118.134 203.178 118.155C200.489 118.396 197.87 118.034 195.218 117.606C194.911 117.558 194.603 117.509 194.287 117.459C193.315 117.306 192.343 117.15 191.372 116.994C190.709 116.889 190.046 116.784 189.383 116.679C187.766 116.423 186.15 116.166 184.534 115.907C184.61 115.774 184.686 115.642 184.765 115.505C187.641 110.497 189.999 105.212 188.679 99.3048C188.586 98.9706 188.492 98.6364 188.396 98.292C188.346 98.1148 188.297 97.9377 188.246 97.7551C186.032 90.0541 180.563 83.6961 173.592 79.8152C171.079 78.4664 171.079 78.4664 169.714 78.2527C167.554 81.444 165.462 84.6265 163.756 88.0861C163.62 88.3531 163.485 88.6201 163.345 88.8953C161.843 92.1818 160.867 96.6061 162.016 100.108C162.163 100.468 162.163 100.468 162.313 100.835C162.405 101.071 162.498 101.307 162.593 101.55C162.883 102.225 163.203 102.866 163.55 103.513C163.698 103.802 163.698 103.802 163.849 104.096C166.181 108.223 170.501 111.082 174.182 113.886C174.818 114.379 175.436 114.888 176.05 115.407C175.183 116.04 173.393 115.703 172.347 115.714C171.784 115.721 171.222 115.732 170.659 115.742C167.223 115.793 164.389 115.786 161.72 113.44C161.47 113.185 161.219 112.929 160.961 112.666C160.062 111.94 159.47 111.993 158.342 112.083C158.623 112.036 158.904 111.989 159.193 111.94C159.453 104.958 156.462 99.0338 151.862 94.0335C146.784 88.7245 140.435 84.6026 133.852 81.4039C133.574 81.2679 133.296 81.1318 133.009 80.9917C132.325 80.6819 132.325 80.6819 131.786 80.5975C129.764 84.1081 128.787 89.8513 129.615 93.7831C129.697 94.0695 129.778 94.356 129.862 94.651C129.911 94.8231 129.96 94.9952 130.01 95.1725C131.619 100.684 135.025 104.735 138.975 108.776C131.242 107.359 123.036 104.253 118.225 97.737C117.381 96.5037 116.742 95.2671 116.172 93.8885C116.05 93.6121 115.928 93.3358 115.803 93.051C112.491 85.0576 111.648 76.1154 110.438 67.6189C108.909 56.9123 106.602 46.6146 100.404 37.5904C100.237 37.3408 100.071 37.0912 99.899 36.8341C97.7305 33.7065 94.8064 30.5937 91.6107 28.4845C91.4188 28.5456 91.227 28.6067 91.0293 28.6696C91.2668 28.9539 91.2668 28.9539 91.5091 29.244C93.4843 31.658 95.2462 34.1905 96.9821 36.7804C97.3471 37.3222 97.717 37.8599 98.0902 38.396C105.778 49.5864 108.529 63.7377 109.547 77.0519C109.622 78.013 109.708 78.973 109.795 79.9331C109.827 80.2893 109.859 80.6455 109.892 81.0125C109.99 82.0846 110.103 83.1551 110.216 84.2257C110.429 86.2406 110.616 88.2385 110.663 90.2657C108.306 89.2146 106.121 87.9 103.904 86.5875C100.555 84.6073 97.2042 82.6859 93.7202 80.9539C90.6521 79.4234 87.8309 77.6421 84.9916 75.7332C83.078 74.4499 81.1632 73.265 79.0756 72.2842C77.6829 71.6255 76.3027 70.9373 75.6367 69.4849C75.5841 69.2244 75.5317 68.9639 75.4776 68.6955C75.414 68.3898 75.3504 68.0841 75.2849 67.7692C75.147 66.9003 75.0458 66.0354 74.9568 65.1605C74.421 60.1221 72.877 53.4729 68.9022 50.0507C69.1397 51.2421 69.532 52.3498 69.9709 53.4789C70.0409 53.6622 70.1109 53.8456 70.1831 54.0345C70.5422 54.9677 70.924 55.8803 71.3524 56.7834C72.6397 59.7952 72.6874 62.5771 71.974 65.7144C67.2217 63.862 64.285 60.8009 60.8974 57.0793C60.6557 56.8152 60.414 56.551 60.165 56.2789C59.5404 55.5883 58.9241 54.8914 58.3116 54.1901C58.1899 54.0511 58.0682 53.9121 57.9428 53.7688C55.1456 50.5652 52.5106 47.2404 49.9933 43.8129C49.8786 43.6573 49.7639 43.5016 49.6458 43.3413C48.7323 42.0837 47.9022 40.7797 47.0845 39.4584C46.9651 39.2659 46.8456 39.0734 46.7226 38.8751C44.076 34.574 41.6596 30.1032 39.9412 25.3443C39.8669 25.1576 39.7925 24.9709 39.7159 24.7785C39.6269 24.7646 39.538 24.7506 39.4463 24.7363C38.8241 28.7115 40.8327 32.5703 42.6539 36.0043C42.8493 36.3765 42.8493 36.3765 43.0486 36.7563C45.1593 40.6015 47.8088 44.1087 50.5447 47.5244C51.2829 48.4494 52.0099 49.3831 52.7384 50.3157C53.5598 51.3656 54.3825 52.4141 55.2161 53.4543C55.4664 53.767 55.7167 54.0797 55.9669 54.3925C56.0899 54.5458 56.2129 54.6991 56.3397 54.857C56.961 55.6381 57.5589 56.4272 58.1276 57.2475C61.837 62.5882 66.849 66.5091 71.9869 70.3998C73.7476 71.7347 75.4887 73.0915 77.2145 74.4711C77.4355 74.6474 77.6564 74.8238 77.8841 75.0054C78.8469 75.7194 78.8469 75.7194 79.6636 76.5798C79.2995 76.5288 79.2995 76.5288 78.9282 76.4769C68.1249 74.9841 57.0129 73.7795 46.2954 76.481C46.0211 76.5493 46.0211 76.5493 45.7412 76.6189C43.9833 77.0994 42.4157 77.8698 41.3816 79.4213C41.326 79.777 41.2703 80.1326 41.2129 80.4991C42.3783 80.4876 43.4803 80.2933 44.6181 80.0627C45.0237 79.9835 45.4293 79.9045 45.8349 79.8256C46.4609 79.7028 47.0866 79.5792 47.7118 79.4528C53.8678 78.2131 59.7528 77.9059 66.0059 78.4792C66.6309 78.5331 67.2559 78.5869 67.8809 78.6406C76.745 79.4231 84.7498 80.2095 91.7411 86.2094C94.267 88.1757 97.3349 89.0735 100.342 90.0244C103.541 91.0767 106.236 92.6987 108.913 94.7191C109.243 94.966 109.243 94.966 109.58 95.2179C116.398 100.197 116.398 100.197 121.326 106.841C121.084 106.878 120.842 106.914 120.592 106.951C119.616 107.128 118.697 107.385 117.745 107.661C110.535 109.638 103.005 110.231 95.572 110.652C93.4195 110.775 91.2707 110.918 89.1224 111.1C81.2901 111.737 75.4448 110.787 68.1128 107.855C67.2119 107.507 66.4351 107.309 65.479 107.21C65.4705 107.846 65.462 108.482 65.4533 109.138C65.7017 109.221 65.9501 109.303 66.206 109.388C68.1878 110.062 70.1109 110.804 72.0114 111.683C72.2084 111.773 72.4055 111.863 72.6085 111.956C73.4482 112.341 74.2851 112.73 75.1171 113.132C79.8119 115.249 84.3438 115.082 89.2961 114.224C92.6643 113.685 96.078 113.61 99.482 113.619C105.076 113.631 110.08 112.818 115.523 111.535C115.843 111.46 116.164 111.385 116.495 111.308C117.119 111.161 117.743 111.012 118.366 110.861C118.652 110.793 118.939 110.725 119.233 110.656C119.485 110.595 119.737 110.534 119.996 110.472C121.703 110.193 123.331 110.429 125.018 110.705C125.231 110.739 125.443 110.772 125.662 110.807C126.335 110.914 127.007 111.023 127.68 111.131C128.138 111.204 128.597 111.278 129.056 111.35C130.175 111.529 131.293 111.708 132.411 111.889C132.24 112.06 132.068 112.231 131.891 112.406C125.011 119.267 119.669 126.885 118.304 136.734C118.646 136.647 118.987 136.561 119.34 136.471C123.833 135.367 128.297 134.805 132.915 134.587C133.566 134.555 134.216 134.523 134.867 134.49C135.29 134.469 135.714 134.449 136.137 134.429C140.318 134.217 144.138 133.08 148.086 131.734C148.333 131.652 148.58 131.571 148.835 131.487C151.512 130.589 153.385 129.661 154.703 127.026C155.054 126.332 155.429 125.653 155.805 124.971C158.081 120.81 158.081 120.81 158.198 120.066C158.538 120.132 158.878 120.198 159.228 120.266C162.481 120.855 165.66 121.15 168.956 121.277C175.005 121.525 180.904 122.381 186.868 123.374C188.161 123.588 189.455 123.795 190.749 124.003C193.255 124.407 195.76 124.818 198.264 125.233C197.563 126.129 196.86 127.024 196.156 127.917C195.96 128.168 195.764 128.419 195.563 128.677C193.029 131.89 190.268 134.808 186.989 137.271C186.764 137.45 186.538 137.63 186.306 137.814C183.365 140.084 179.019 142.208 175.209 141.805C174.528 141.717 173.851 141.615 173.173 141.509C172.946 141.477 172.719 141.445 172.486 141.412C169.24 140.912 166.507 139.564 163.636 138.033C155.085 133.489 155.085 133.489 151.001 134.726C150.573 134.906 150.151 135.097 149.736 135.305C149.423 135.449 149.11 135.594 148.787 135.743C146.418 137.317 144.772 140.082 143.155 142.363C141.584 144.539 139.923 146.371 137.414 147.42C137.133 147.544 137.133 147.544 136.846 147.67C136.225 147.938 135.6 148.197 134.974 148.453C134.743 148.547 134.513 148.642 134.275 148.739C126.318 151.969 120.432 152.387 112.4 149.438C108.059 147.846 103.874 146.529 99.235 146.24C96.7566 146.085 94.3381 145.699 91.8929 145.285C90.8895 145.116 89.8853 144.953 88.8811 144.789C87.021 144.485 85.1613 144.18 83.3031 143.865C82.0011 143.645 80.6982 143.431 79.3943 143.222C78.9035 143.142 78.4131 143.059 77.9231 142.974C74.6097 142.4 71.7464 142.378 68.4374 143.007C68.4235 143.096 68.4096 143.185 68.3952 143.277C68.6917 143.334 68.9881 143.391 69.2935 143.45C78.496 145.157 78.496 145.157 87.318 148.205C88.2002 148.566 88.9505 148.75 89.8937 148.85C89.7314 149.007 89.5691 149.164 89.4018 149.325C87.4265 151.31 85.7437 153.456 84.0884 155.714C82.7844 157.47 81.3667 159.011 79.7819 160.518C79.6005 160.691 79.419 160.865 79.2321 161.044C75.9732 164.119 72.4249 167.339 67.7317 167.697C65.2545 167.427 63.2145 164.779 61.7275 162.937C59.1016 159.45 57.4481 155.27 55.8242 151.247C53.8033 153.445 52.8802 156.867 52.4211 159.755C52.3849 159.976 52.3487 160.196 52.3113 160.424C52.076 162.163 52.2262 163.521 53.144 165.061C54.5681 166.71 56.1798 168.03 57.9773 169.251C53.4546 168.685 49.653 167.315 45.5851 165.347C44.5002 164.824 43.4103 164.311 42.3201 163.799C41.7785 163.545 41.2374 163.289 40.6966 163.033C40.45 162.916 40.2034 162.8 39.9492 162.68C39.7318 162.577 39.5144 162.474 39.2904 162.368C34.823 160.373 29.9546 160.211 25.4198 161.878C23.8729 162.479 22.4094 163.206 20.9443 163.983C19.906 164.502 18.8503 164.954 17.7754 165.391C17.5034 165.503 17.5034 165.503 17.226 165.617C15.7023 166.227 14.16 166.709 12.5192 166.88C12.2354 166.91 11.9517 166.94 11.6593 166.97C11.9242 168.096 12.5347 168.937 13.2105 169.853C13.3309 170.016 13.4514 170.179 13.5755 170.347C17.0425 174.952 20.9325 178.353 26.4166 180.322C26.1003 180.423 25.784 180.524 25.4582 180.628C16.6159 183.517 7.97077 189.725 3.43938 198.043C2.01779 201.243 1.29873 205.238 2.30356 208.656C2.35322 208.839 2.40285 209.022 2.45402 209.211C3.02364 210.222 3.9067 210.703 4.9943 211.033C14.53 212.452 24.3876 211.376 32.4474 205.789C38.5502 201.115 42.577 194.377 46.0655 187.676C46.194 187.43 46.3225 187.183 46.4549 186.929C47.2313 185.414 47.9141 183.884 48.5364 182.298C49.7261 179.824 52.8305 178.862 55.1818 177.79C56.1147 177.361 57.0391 176.914 57.9643 176.468C62.2488 174.407 66.581 172.489 71.0014 170.738C70.487 171.488 69.9261 172.164 69.3174 172.84C58.1915 185.274 55.2151 196.648 55.9194 213.166C56.1835 217.88 56.8996 223.2 60.6114 226.53C61.4376 227.059 62.2822 227.551 63.1385 228.03C63.1692 227.86 63.1998 227.689 63.2314 227.514C64.225 222.084 65.3517 218.737 69.3382 214.825C75.0581 209.204 78.0496 204.052 78.3231 195.764C78.305 194.556 78.1139 193.416 77.8549 192.238C77.8015 191.968 77.8015 191.968 77.7471 191.693C76.7545 186.69 74.9172 181.887 73.0042 177.173C72.3408 175.53 72.4497 174.406 72.905 172.692C74.2123 169.667 77.8045 167.623 80.4348 165.831C83.3585 163.68 85.0003 160.671 86.6899 157.538C87.9954 155.16 89.6107 153.07 92.1677 151.967C98.3337 150.237 104.358 152.119 110.217 154.203C115.119 155.918 120.264 156.803 125.452 156.348C125.875 156.317 126.297 156.286 126.72 156.256C127.533 156.196 128.346 156.132 129.159 156.064C130.064 155.998 130.956 155.968 131.864 155.972C128.861 160.7 124.309 164.374 120.05 167.925C119.912 168.051 119.775 168.177 119.633 168.307C118.895 168.734 118.321 168.674 117.473 168.653C117.15 168.647 116.827 168.641 116.495 168.635C115.989 168.621 115.989 168.621 115.473 168.606C109.956 168.478 109.956 168.478 107.204 169.382C107.003 169.447 106.803 169.513 106.596 169.58C103.422 170.648 100.56 172.191 97.8163 174.107C97.5745 174.271 97.3328 174.435 97.0837 174.603C91.6162 178.419 88.5917 183.703 87.4271 190.138C87.3531 190.555 87.2792 190.973 87.2053 191.39C87.1278 191.817 87.0501 192.245 86.9722 192.672C86.7835 193.71 86.5977 194.748 86.4135 195.786C94.1684 197.177 101.018 197.311 107.872 192.796C113.494 188.855 116.279 183.33 118.781 177.101C120.517 172.724 120.517 172.724 123.698 169.324C123.332 170.453 122.926 171.561 122.504 172.67C121.685 174.87 121.024 177.103 120.416 179.37C120.36 179.581 120.303 179.792 120.244 180.01C119.277 183.655 118.552 187.322 117.95 191.043C117.889 191.406 117.889 191.406 117.827 191.776C116.945 197.09 117.149 202.743 120.297 207.37C122.098 209.64 124.507 211.017 126.944 212.51C128.866 213.701 130.53 214.99 132.074 216.652C132.517 217.081 132.517 217.081 133.056 217.166C135.252 214.043 137.064 210.856 138.532 207.326C138.604 207.155 138.676 206.984 138.75 206.807C140.809 201.689 141.67 195.486 141.175 190.003C141.16 189.814 141.145 189.626 141.129 189.432C140.554 182.533 138.161 176.612 133.509 171.495C131.212 168.987 131.212 168.987 130.197 165.857C130.227 165.662 130.257 165.467 130.288 165.266C130.313 165.071 130.338 164.876 130.364 164.675C130.872 163.329 132.152 162.381 133.171 161.394C134.573 160.032 135.88 158.644 137.104 157.12C138.39 155.53 139.797 154.284 141.435 153.053C143.045 151.789 144.578 150.475 146.063 149.067C148.264 146.996 150.341 145.291 153.281 144.417C153.448 144.348 153.615 144.28 153.786 144.209C155.126 143.88 156.554 144.286 157.902 144.501C158.456 144.589 159.011 144.669 159.566 144.749C164.733 145.532 168.506 147.473 171.9 151.467C173.348 153.011 175.12 153.775 177.155 154.227C177.355 154.276 177.556 154.325 177.763 154.375C179.232 154.684 180.034 154.564 181.367 153.782C181.612 153.648 181.856 153.514 182.108 153.375C185.599 151.305 188.163 147.507 190.699 144.421C195.221 138.919 200.554 133.893 206.157 129.505C206.412 129.304 206.666 129.103 206.929 128.895C215.047 122.709 224.46 120.932 234.377 119.866C238.281 119.425 242.228 118.815 246.083 118.054C248.58 117.713 251.149 118.697 253.485 119.488C253.904 119.625 253.904 119.625 254.331 119.766C255.57 120.177 256.805 120.601 258.03 121.054C258.208 121.12 258.385 121.185 258.568 121.253C259.737 121.841 260.455 122.832 260.94 124.023C262.423 129.015 261.235 134.645 260.426 139.656C260.38 139.948 260.334 140.241 260.286 140.542C259.653 144.523 258.917 148.428 257.888 152.327C257.507 153.85 257.217 155.393 256.919 156.934C256.7 158.052 256.459 159.153 256.162 160.253C255.819 161.54 255.575 162.826 255.368 164.14C255.332 164.352 255.295 164.563 255.258 164.78C254.953 166.693 254.906 168.516 255.551 170.363C257.122 170.437 258.643 170.395 260.21 170.264C260.419 170.248 260.629 170.231 260.845 170.215C261.688 170.147 262.517 170.068 263.352 169.928C263.776 169.341 264.144 168.78 264.509 168.159C264.856 167.582 265.203 167.004 265.56 166.409C267.442 166.612 269.324 166.816 271.263 167.025C272.903 164.487 272.903 164.487 273.272 163.458C273.344 163.261 273.416 163.064 273.49 162.861C273.54 162.718 273.589 162.576 273.64 162.428C274.124 162.654 274.124 162.654 274.617 162.883C275.043 163.079 275.468 163.275 275.893 163.471C276.106 163.57 276.318 163.669 276.537 163.771C276.743 163.866 276.949 163.96 277.161 164.058C277.444 164.189 277.444 164.189 277.733 164.323C278.281 164.535 278.281 164.535 279.36 164.704C279.567 162.476 279.433 160.319 279.238 158.094C279.207 157.735 279.177 157.377 279.146 157.007C278.95 154.748 278.692 152.505 278.361 150.262C278.067 148.258 277.873 146.25 277.683 144.235C277.466 141.993 277.16 139.769 276.806 137.545C276.335 134.453 276.475 131.411 276.702 128.302C276.725 127.966 276.749 127.631 276.773 127.285C276.847 126.223 276.922 125.161 276.998 124.1C277.074 123.034 277.148 121.969 277.223 120.903C277.269 120.243 277.316 119.583 277.363 118.923C277.475 117.344 277.566 115.77 277.6 114.187C277.759 114.147 277.917 114.107 278.08 114.066C280.42 113.213 282.534 111.372 284.375 109.727C285.684 110.392 286.655 111.381 287.704 112.387C287.903 112.576 288.101 112.764 288.306 112.959C289.581 114.171 290.847 115.393 292.113 116.615C296.747 121.086 296.747 121.086 297.683 121.748C297.875 121.686 298.067 121.625 298.265 121.562C297.255 119.031 296.247 116.515 294.96 114.11C293.883 112.095 292.911 110.037 291.952 107.962C291.807 107.649 291.662 107.336 291.512 107.013C290.399 104.882 290.399 104.882 290.172 102.577C291.248 100.212 293.617 98.7728 295.919 97.731C297.093 97.3028 298.286 96.9444 299.484 96.5939C301.312 96.0414 302.754 95.4207 303.729 93.7085C304.547 91.8616 304.906 89.9536 305.185 87.9679C305.219 87.7325 305.252 87.497 305.286 87.2544C305.422 86.2754 305.554 85.2962 305.678 84.3157C306.441 78.3621 308.75 73.5956 311.771 68.4664C312.029 68.0238 312.286 67.5809 312.543 67.1379C313.055 66.2557 313.569 65.3748 314.084 64.4945C314.624 63.5689 315.158 62.64 315.688 61.7081C315.823 61.4704 315.958 61.2326 316.097 60.9877C316.353 60.5364 316.608 60.0847 316.863 59.6327C319.363 55.2273 322.649 51.5075 326.1 47.8242C328.751 44.9861 330.82 42.1406 332.654 38.7125C334.997 33.9465 334.997 33.9465 339.217 31.0787C342.529 30.3434 345.89 30.438 349.251 30.7169C349.546 30.7404 349.841 30.7639 350.144 30.7882C352.834 31.0137 355.513 31.3147 358.195 31.6152C372.006 33.1579 385.049 34.1239 396.422 25.0559C396.794 24.7584 397.165 24.4608 397.536 24.1631C398.095 23.7267 398.666 23.3125 399.243 22.9008C400.081 22.2951 400.821 21.6581 401.536 20.9057C401.725 20.7094 401.915 20.5131 402.11 20.3108C402.566 19.7594 402.811 19.3836 403.019 18.7052C402.733 17.9473 402.43 17.2705 402.061 16.5539C401.905 16.2398 401.905 16.2398 401.746 15.9194C401.412 15.2535 401.071 14.5913 400.729 13.9299C400.619 13.7168 400.509 13.5038 400.395 13.2843C398.744 10.1054 397.017 6.9756 395.112 3.94094Z" fill="#C6E0EA"/>
</svg>
