<svg width="124" height="63" viewBox="0 0 124 63" fill="none" xmlns="http://www.w3.org/2000/svg">
<g clip-path="url(#clip0_100_1099)">
<path fill-rule="evenodd" clip-rule="evenodd" d="M34.7578 39.042V29.9268H36.8595V33.4761H43.6496V29.9268H45.7513V39.042H43.6496V35.17H36.8595V39.042H34.7578Z" fill="#231F20"/>
<path fill-rule="evenodd" clip-rule="evenodd" d="M48.6641 39.042V29.9268H50.5233L50.6041 36.2187L57.96 29.9268H59.4959V39.042H57.6367L57.5558 32.6694L50.1999 39.042H48.6641Z" fill="#231F20"/>
<path fill-rule="evenodd" clip-rule="evenodd" d="M49.3933 24.603V17.1011H45.3516V15.4878H55.6175V17.1011H51.495V24.603H49.3933Z" fill="#231F20"/>
<path fill-rule="evenodd" clip-rule="evenodd" d="M81.8047 24.603V15.4878H83.7447V21.8604L91.1815 15.4878H92.7173V24.603H90.8581L90.7773 18.3111L83.3405 24.603H81.8047Z" fill="#231F20"/>
<path fill-rule="evenodd" clip-rule="evenodd" d="M83.5781 39.042V29.9268H85.6798V33.4761H92.4699V29.9268H94.5716V39.042H92.4699V35.17H85.6798V39.042H83.5781Z" fill="#231F20"/>
<path fill-rule="evenodd" clip-rule="evenodd" d="M111.227 38.9614V29.8462H113.167L113.247 36.2188L120.603 29.8462H122.139V38.9614H120.28L120.199 32.6695L112.762 38.9614H111.227Z" fill="#231F20"/>
<path fill-rule="evenodd" clip-rule="evenodd" d="M97.4844 38.9614V29.8462H99.4244V36.2188L106.861 29.8462H108.397V38.9614H106.457V32.6695L99.0202 38.9614H97.4844Z" fill="#231F20"/>
<path fill-rule="evenodd" clip-rule="evenodd" d="M75.0986 15.6489L80.8379 24.7642H69.3594L75.0986 15.6489Z" fill="#231F20"/>
<path fill-rule="evenodd" clip-rule="evenodd" d="M57.88 15.5684H67.0143C67.5801 15.5684 68.0651 16.0524 68.0651 16.617V23.6349C68.0651 24.1996 67.5801 24.6836 67.0143 24.6836H57.88C57.3141 24.6836 56.8291 24.1996 56.8291 23.6349V16.617C56.7483 15.9717 57.2333 15.5684 57.88 15.5684ZM58.6883 17.101H66.1251V23.1509H58.6883V17.101Z" fill="#231F20"/>
<path fill-rule="evenodd" clip-rule="evenodd" d="M119.475 28.1522H34.6797V16.617C34.6797 16.0524 35.0839 15.5684 35.5689 15.5684H43.4906C43.9756 15.5684 44.3798 16.0524 44.3798 16.617V18.6337H42.359V17.0203H36.5389V26.1356H118.424L119.475 28.1522Z" fill="#231F20"/>
<path fill-rule="evenodd" clip-rule="evenodd" d="M75.0952 34.202L81.1578 29.9268H78.0861L72.9935 33.7181L72.9126 29.9268H70.811V33.7181L65.7184 29.9268H62.6467L68.7093 34.202L62 39.042H65.0717L70.811 34.7667V39.042H72.9126L72.9935 34.7667L78.7327 39.042H81.8044L75.0952 34.202Z" fill="#231F20"/>
<path fill-rule="evenodd" clip-rule="evenodd" d="M105.245 15.5685L105.164 23.0704H107.265V24.603H96.4337C95.8678 24.603 95.3828 24.119 95.3828 23.5544V15.4878H97.3228V23.0704H103.305V15.4878H105.245V15.5685Z" fill="#231F20"/>
<path fill-rule="evenodd" clip-rule="evenodd" d="M119.874 26.8616L117.611 22.5863H111.952L110.82 24.6029H108.719L113.811 15.5684H115.913L121.895 26.8616H119.874ZM112.922 20.973L114.862 17.4237L116.721 20.973H112.922Z" fill="#231F20"/>
<path fill-rule="evenodd" clip-rule="evenodd" d="M90.3713 3.30716L91.3413 4.19449L89.7246 3.71049L88.5121 4.67848L88.5929 3.4685L87.2188 3.06517L88.6738 2.90383V1.69385L89.8054 2.7425L91.3413 2.58117L90.3713 3.30716Z" fill="#231F20"/>
<path fill-rule="evenodd" clip-rule="evenodd" d="M71.8594 2.74242L73.3952 2.25843L72.8294 0.967773L74.6077 1.8551L76.4669 1.29044L75.7394 2.41976L77.3561 3.22642L75.3353 3.06508L74.3652 4.4364L73.6377 2.90375L71.8594 2.74242Z" fill="#231F20"/>
<path fill-rule="evenodd" clip-rule="evenodd" d="M55.5312 3.22642L57.5521 2.58109L56.7438 0.967773L59.088 2.01643L61.4322 1.20977L60.543 2.74242L62.5638 3.62975L60.058 3.54908L59.088 5.32373L58.0371 3.38775L55.5312 3.22642Z" fill="#231F20"/>
<path fill-rule="evenodd" clip-rule="evenodd" d="M37.3438 5.88866L39.4454 4.43668L37.6671 2.82336L40.8196 3.54935L43.2447 1.93604L43.083 4.11401L46.1547 4.92067L43.0022 5.324L42.8405 7.50198L40.658 5.48533L37.3438 5.88866Z" fill="#231F20"/>
<path fill-rule="evenodd" clip-rule="evenodd" d="M24.4921 8.22797L20.5312 7.50198L22.9563 9.35729L20.7738 11.0513L24.4113 10.4866L27.2405 12.5839L27.1597 10.0026L30.8781 9.35729L27.0788 8.71197L26.998 6.29199L24.4921 8.22797Z" fill="#231F20"/>
<path fill-rule="evenodd" clip-rule="evenodd" d="M12.9333 17.4236L8.16406 16.8589L11.4783 18.7949L9.05324 21.1342L13.4991 20.0856L17.2984 22.3442L16.5708 19.3596L20.9359 18.3109L16.2475 17.8269L15.52 14.8423L12.9333 17.4236Z" fill="#231F20"/>
<path fill-rule="evenodd" clip-rule="evenodd" d="M7.19445 31.1369L1.85938 29.8463L7.67945 29.201L8.40696 25.813L11.4787 28.717L17.1371 27.991L13.1762 30.3303L16.0862 33.1536L10.6703 31.9436L6.54777 34.3636L7.19445 31.1369Z" fill="#231F20"/>
<path fill-rule="evenodd" clip-rule="evenodd" d="M15.355 42.0264L16.325 38.3965L19.6392 41.6231L26.591 40.8971L21.4984 43.8011L24.8126 47.0277L18.6692 45.3337L13.8191 48.1571L14.7891 44.4464L8.72656 42.8331L15.355 42.0264Z" fill="#231F20"/>
<path fill-rule="evenodd" clip-rule="evenodd" d="M33.2201 51.0612L34.2709 46.5439L38.3127 50.4159L46.0728 49.3672L40.8185 52.5939L44.6177 56.3852L37.5043 54.6105L31.7651 58.2405L32.7351 53.5619L26.1875 52.0292L33.2201 51.0612Z" fill="#231F20"/>
<path fill-rule="evenodd" clip-rule="evenodd" d="M58.5243 53.9654L60.0601 48.7222L64.4252 53.3201L73.0745 52.3521L67.0119 55.9014L71.2153 60.338L62.8085 58.2407L56.0993 62.032L57.6351 56.9501L49.875 54.8528L58.5243 53.9654Z" fill="#231F20"/>
<path fill-rule="evenodd" clip-rule="evenodd" d="M90.2116 52.2713L93.6875 46.4634L97.1634 52.352H107.429L99.1034 55.6593L102.498 61.3866L93.445 57.8373L84.8765 61.2252L88.1907 55.7399L79.7031 52.352L90.2116 52.2713Z" fill="#231F20"/>
<path fill-rule="evenodd" clip-rule="evenodd" d="M100.959 5.24309L101.686 5.88842L100.555 5.56575L99.6653 6.21108L99.7462 5.32376L98.6953 5.08176L99.7462 4.92043V4.11377L100.555 4.83976L101.686 4.67843L100.959 5.24309Z" fill="#231F20"/>
</g>
<defs>
<clipPath id="clip0_100_1099">
<rect width="124" height="63" fill="white"/>
</clipPath>
</defs>
</svg>
