<svg width="141" height="42" viewBox="0 0 141 42" fill="none" xmlns="http://www.w3.org/2000/svg">
<g clip-path="url(#clip0_104_3965)">
<path d="M30.6916 35.2604C30.4659 35.2281 30.2362 35.1917 30.0105 35.1393C28.5729 34.8243 27.1868 34.1499 25.9314 33.3746C25.7413 33.2575 25.5513 33.1162 25.3612 32.9627C25.2067 32.8376 25.0562 32.7043 24.9057 32.5549C23.2068 30.8912 21.7296 27.8505 21.7296 24.5716V18.987L18.502 15.6959C18.4387 15.6959 10.3994 15.6919 10.3994 15.6919L13.6983 19.0556V24.5716C13.6983 28.5007 15.813 32.0905 17.8961 33.3746C19.3575 34.2711 20.993 35.0383 22.684 35.2604C22.9019 35.2887 23.1197 35.3048 23.3375 35.3169C23.4404 35.321 23.5434 35.3331 23.6464 35.3331H31.6738C31.3411 35.3331 31.0124 35.3008 30.6837 35.2564M18.0941 19.8915C17.4645 19.8915 16.9536 19.3706 16.9536 18.7285C16.9536 18.0865 17.4645 17.5656 18.0941 17.5656C18.7238 17.5656 19.2347 18.0865 19.2347 18.7285C19.2347 19.3706 18.7238 19.8915 18.0941 19.8915Z" fill="#FFBD55"/>
<path d="M18.102 19.8997C18.7316 19.8997 19.2425 19.3787 19.2425 18.7367C19.2425 18.0946 18.7316 17.5737 18.102 17.5737C17.4723 17.5737 16.9614 18.0946 16.9614 18.7367C16.9614 19.3787 17.4723 19.8997 18.102 19.8997Z" fill="#4B3620"/>
<path d="M26.1298 19.8997C26.7595 19.8997 27.2704 19.3787 27.2704 18.7367C27.2704 18.0946 26.7595 17.5737 26.1298 17.5737C25.5001 17.5737 24.9893 18.0946 24.9893 18.7367C24.9893 19.3787 25.5001 19.8997 26.1298 19.8997Z" fill="white"/>
<path d="M20.5971 42H37.0757V40.7886H32.3273L35.4124 35.3372H37.7133L32.0699 28.7188H33.06L38.7033 35.3372H40.5963L34.953 28.7188H35.943L41.5864 35.3372H43.4833L37.84 28.7188H38.83L44.4734 35.3372H46.5921L32.1412 18.3894C30.6839 16.6772 28.5651 15.696 26.3434 15.696H18.5101L21.7377 18.9911V24.5757C21.7377 27.8546 23.2149 30.8953 24.9138 32.559C25.0643 32.7044 25.2148 32.8416 25.3692 32.9668C25.5593 33.1203 25.7494 33.2616 25.9395 33.3787C27.1949 34.15 28.581 34.8243 30.0185 35.1433C30.2443 35.1918 30.47 35.2322 30.6997 35.2645C31.0284 35.3089 31.3571 35.3412 31.6898 35.3412H34.05L30.965 40.7926H20.9457L24.0307 35.3412H23.6624C23.5594 35.3412 23.4564 35.3291 23.3535 35.3251C23.1357 35.317 22.9178 35.2968 22.7 35.2685L19.5913 40.7643C9.3501 40.2232 1.18807 31.5656 1.18807 21.002C1.18807 10.4384 9.89265 1.21142 20.5971 1.21142C25.4524 1.21142 30.0977 3.04875 33.6817 6.38419L34.4817 5.49178C30.6799 1.95039 25.7494 0 20.5971 0C9.23921 0 0 9.42082 0 21.002C0 32.5832 9.23921 42.004 20.5971 42.004M26.1335 17.5777C26.7632 17.5777 27.2741 18.0986 27.2741 18.7407C27.2741 19.3828 26.7632 19.9037 26.1335 19.9037C25.5039 19.9037 24.993 19.3828 24.993 18.7407C24.993 18.0986 25.5039 17.5777 26.1335 17.5777Z" fill="#4B3620"/>
<path d="M74.781 27.6405C74.3968 27.2407 73.9414 26.9338 73.4068 26.7158C72.8721 26.4977 72.2821 26.3887 71.6326 26.3887C70.9079 26.3887 70.2425 26.534 69.6406 26.8288C69.0386 27.1236 68.5476 27.5113 68.1634 27.9877L69.1693 29.0255C69.4663 28.6661 69.8227 28.3754 70.2425 28.1493C70.6584 27.9231 71.1217 27.8101 71.6286 27.8101C72.183 27.8101 72.6662 27.9393 73.082 28.1977C73.4939 28.4562 73.8147 28.8115 74.0364 29.2678C74.1552 29.5061 74.2384 29.7645 74.2938 30.0431H70.1435V31.4161H74.3295C74.278 31.7835 74.1869 32.1187 74.0364 32.4256C73.8147 32.8819 73.4978 33.2413 73.082 33.4997C72.6701 33.7582 72.183 33.8874 71.6286 33.8874C71.1059 33.8874 70.6306 33.7743 70.199 33.5522C69.7713 33.3301 69.4109 33.0475 69.1218 32.7042L68.1396 33.7057C68.5159 34.1822 69.0069 34.5698 69.6208 34.8646C70.2346 35.1594 70.9158 35.3047 71.6643 35.3047C72.5315 35.3047 73.2879 35.1149 73.9374 34.7313C74.5869 34.3477 75.0859 33.8228 75.4423 33.1565C75.7987 32.4862 75.9769 31.7189 75.9769 30.8507C75.9769 30.1966 75.874 29.5989 75.668 29.0538C75.4621 28.5087 75.1651 28.0362 74.7849 27.6405H74.781Z" fill="#4B3620"/>
<path d="M68.0012 17.2305C67.7834 16.6894 67.4705 16.2209 67.0666 15.8212C66.6587 15.4214 66.1874 15.1145 65.6449 14.8884C65.1023 14.6663 64.5083 14.5532 63.8588 14.5532C63.2093 14.5532 62.6153 14.6663 62.0727 14.8884C61.5302 15.1105 61.0549 15.4214 60.651 15.8212C60.2471 16.2209 59.9342 16.6894 59.7164 17.2305C59.4986 17.7716 59.3877 18.3652 59.3877 19.0113C59.3877 19.6573 59.4986 20.2509 59.7164 20.7961C59.9342 21.3412 60.2471 21.8137 60.651 22.2094C61.0549 22.6092 61.5302 22.9161 62.0727 23.1422C62.6153 23.3643 63.2093 23.4774 63.8588 23.4774C64.5083 23.4774 65.1023 23.3643 65.6449 23.1422C66.1874 22.9201 66.6626 22.6092 67.0666 22.2094C67.4705 21.8096 67.7834 21.3412 68.0012 20.7961C68.219 20.2509 68.3299 19.6573 68.3299 19.0113C68.3299 18.3652 68.219 17.7756 68.0012 17.2305ZM66.3102 20.578C66.0726 21.0343 65.7439 21.3978 65.3201 21.6602C64.9003 21.9227 64.4093 22.056 63.8548 22.056C63.3004 22.056 62.8212 21.9227 62.3975 21.6602C61.9737 21.3978 61.6411 21.0384 61.4035 20.578C61.1658 20.1217 61.047 19.5968 61.047 19.0072C61.047 18.4177 61.1658 17.8967 61.4035 17.4445C61.6411 16.9922 61.9737 16.6328 62.3975 16.3704C62.8212 16.1079 63.3083 15.9746 63.8548 15.9746C64.4013 15.9746 64.8964 16.1079 65.3201 16.3704C65.7399 16.6328 66.0726 16.9922 66.3102 17.4445C66.5478 17.8967 66.6666 18.4177 66.6666 19.0072C66.6666 19.5968 66.5478 20.1177 66.3102 20.578Z" fill="#4B3620"/>
<path d="M74.892 15.0742C74.4445 14.8561 73.9177 14.7471 73.3158 14.7471H69.9219V23.2836H71.502V19.9643H73.3158C73.9177 19.9643 74.4405 19.8552 74.892 19.6372C75.3395 19.4191 75.6919 19.1122 75.9454 18.7165C76.1988 18.3208 76.3256 17.8685 76.3256 17.3476C76.3256 16.8267 76.1988 16.3785 75.9454 15.9868C75.6919 15.5951 75.3395 15.2922 74.892 15.0742ZM74.3494 18.2683C74.0999 18.4904 73.7554 18.6034 73.3198 18.6034H71.506V16.1079H73.3198C73.7554 16.1079 74.0999 16.221 74.3494 16.4431C74.5989 16.6652 74.7256 16.968 74.7256 17.3516C74.7256 17.7352 74.5989 18.0462 74.3494 18.2723V18.2683Z" fill="#4B3620"/>
<path d="M53.9817 16.3704C54.3975 16.1079 54.8727 15.9746 55.4034 15.9746C55.8945 15.9746 56.342 16.0877 56.7459 16.3138C57.1499 16.54 57.4785 16.8468 57.736 17.2264L58.7775 16.1523C58.4092 15.6758 57.934 15.2882 57.3479 14.9934C56.7617 14.6986 56.1162 14.5532 55.4034 14.5532C54.7618 14.5532 54.1718 14.6622 53.6292 14.8803C53.0867 15.0984 52.6154 15.4093 52.2194 15.8131C51.8194 16.2169 51.5105 16.6894 51.2887 17.2345C51.0669 17.7796 50.9561 18.3692 50.9561 19.0072C50.9561 19.6452 51.063 20.255 51.2768 20.7961C51.4907 21.3372 51.7956 21.8096 52.1916 22.2094C52.5877 22.6132 53.051 22.9201 53.5896 23.1422C54.1282 23.3603 54.7222 23.4693 55.3677 23.4693C56.0766 23.4693 56.7301 23.3239 57.3281 23.0291C57.9261 22.7344 58.4052 22.3467 58.7735 21.8702L57.732 20.7961C57.4746 21.1797 57.1459 21.4826 56.7419 21.7087C56.338 21.9348 55.8945 22.0479 55.3994 22.0479C54.8688 22.0479 54.3935 21.9146 53.9777 21.6522C53.5619 21.3897 53.2292 21.0303 52.9877 20.57C52.7461 20.1136 52.6233 19.5887 52.6233 18.9991C52.6233 18.4096 52.7461 17.8887 52.9877 17.4364C53.2292 16.9841 53.5579 16.6248 53.9777 16.3623L53.9817 16.3704Z" fill="#4B3620"/>
<path d="M58.5519 26.5786H53.0036L52.3819 31.8321C52.3027 32.5105 52.1997 32.9951 52.073 33.2939C51.9423 33.5927 51.772 33.7422 51.5502 33.7422H50.7305V37.1907H52.2156V35.1151H58.0688V37.1907H59.542V33.7422H58.548V26.5786H58.5519ZM53.5422 33.3343C53.6967 32.983 53.8115 32.5469 53.8828 32.0219L54.3778 27.9516H56.9876V33.7422H53.3046C53.3957 33.621 53.4789 33.4878 53.5462 33.3343H53.5422Z" fill="#4B3620"/>
<path d="M64.0683 31.3474L61.7833 26.5825H60.1675L63.3079 32.9344C63.2525 33.0273 63.1971 33.1121 63.1456 33.1848C62.9951 33.3907 62.8208 33.5401 62.6307 33.6249C62.4407 33.7138 62.207 33.7582 61.9337 33.7582H60.8447V35.119H62.0169C62.4446 35.119 62.8208 35.0584 63.1337 34.9333C63.4505 34.8081 63.7277 34.6142 63.9693 34.3477C64.2109 34.0812 64.4366 33.7339 64.6465 33.3019L67.8662 26.5825H66.2504L64.0644 31.3474H64.0683Z" fill="#4B3620"/>
<path d="M136.018 13.3659C136.406 13.6566 136.881 13.802 137.452 13.802C138.022 13.802 138.501 13.6566 138.893 13.3659C139.285 13.0751 139.511 12.635 139.57 12.0454H138.343C138.303 12.3563 138.204 12.5784 138.05 12.7077C137.895 12.8409 137.693 12.9055 137.452 12.9055C137.21 12.9055 137.02 12.8409 136.862 12.7077C136.703 12.5744 136.6 12.3563 136.565 12.0454H135.337C135.408 12.635 135.634 13.0751 136.022 13.3659H136.018Z" fill="#4B3620"/>
<path d="M104.174 18.789C104.15 18.781 104.122 18.7729 104.099 18.7648C104.435 18.5912 104.708 18.3651 104.903 18.0864C105.128 17.7634 105.243 17.3959 105.243 16.984C105.243 16.5318 105.128 16.136 104.903 15.8009C104.677 15.4657 104.356 15.2073 103.944 15.0256C103.532 14.8439 103.045 14.751 102.491 14.751H99.0137V23.2875H102.598C103.2 23.2875 103.726 23.1865 104.178 22.9846C104.629 22.7827 104.982 22.492 105.231 22.1205C105.481 21.7449 105.607 21.3169 105.607 20.8323C105.607 20.3477 105.481 19.9439 105.227 19.5967C104.974 19.2494 104.621 18.9829 104.174 18.7971V18.789ZM102.412 16.0957C102.796 16.0957 103.097 16.1885 103.318 16.3702C103.54 16.552 103.651 16.8104 103.651 17.1456C103.651 17.4807 103.54 17.7553 103.318 17.9532C103.097 18.147 102.792 18.2439 102.412 18.2439H100.598V16.0957H102.412ZM103.627 21.6157C103.378 21.8257 103.037 21.9307 102.61 21.9307H100.594V19.5684H102.61C103.037 19.5684 103.378 19.6693 103.627 19.8713C103.877 20.0732 104.004 20.3599 104.004 20.7233C104.004 21.0867 103.877 21.4017 103.627 21.6117V21.6157Z" fill="#4B3620"/>
<path d="M109.548 16.3704C109.963 16.1079 110.439 15.9746 110.969 15.9746C111.46 15.9746 111.908 16.0877 112.312 16.3138C112.716 16.54 113.044 16.8468 113.302 17.2264L114.343 16.1523C113.975 15.6758 113.5 15.2882 112.914 14.9934C112.328 14.6986 111.682 14.5532 110.969 14.5532C110.328 14.5532 109.738 14.6622 109.195 14.8803C108.653 15.0984 108.181 15.4093 107.785 15.8131C107.385 16.2169 107.076 16.6894 106.855 17.2345C106.633 17.7796 106.522 18.3692 106.522 19.0072C106.522 19.6452 106.629 20.255 106.843 20.7961C107.057 21.3372 107.362 21.8096 107.758 22.2094C108.154 22.6132 108.617 22.9201 109.156 23.1422C109.694 23.3603 110.288 23.4693 110.934 23.4693C111.643 23.4693 112.296 23.3239 112.894 23.0291C113.492 22.7344 113.971 22.3467 114.339 21.8702L113.298 20.7961C113.041 21.1797 112.712 21.4826 112.308 21.7087C111.904 21.9348 111.46 22.0479 110.965 22.0479C110.435 22.0479 109.959 21.9146 109.544 21.6522C109.128 21.3897 108.795 21.0303 108.554 20.57C108.312 20.1136 108.189 19.5887 108.189 18.9991C108.189 18.4096 108.312 17.8887 108.554 17.4364C108.795 16.9841 109.124 16.6248 109.544 16.3623L109.548 16.3704Z" fill="#4B3620"/>
<path d="M126.141 20.8971V14.7471H124.561V23.2836H126.224L130.192 17.077V23.2836H131.773V14.7471H130.09L126.141 20.8971Z" fill="#4B3620"/>
<path d="M76.4639 27.9516H79.0895V35.1151H80.6696V27.9516H83.2913V26.5786H76.4639V27.9516Z" fill="#4B3620"/>
<path d="M122.91 14.7471H120.957L117.326 18.7367V14.7471H115.746V23.2836H117.326V19.1607L121.262 23.2836H123.405L119.08 18.8498L122.91 14.7471Z" fill="#4B3620"/>
<path d="M96.1584 15.8212C95.7544 15.4214 95.2792 15.1145 94.7367 14.8884C94.1941 14.6663 93.6001 14.5532 92.9506 14.5532C92.3011 14.5532 91.7071 14.6663 91.1645 14.8884C90.622 15.1105 90.1467 15.4214 89.7428 15.8212C89.3389 16.2209 89.026 16.6894 88.8082 17.2305C88.5904 17.7716 88.4795 18.3652 88.4795 19.0113C88.4795 19.6573 88.5904 20.2509 88.8082 20.7961C89.026 21.3412 89.3389 21.8137 89.7428 22.2094C90.1507 22.6092 90.622 22.9161 91.1645 23.1422C91.7071 23.3643 92.3011 23.4774 92.9506 23.4774C93.6001 23.4774 94.1941 23.3643 94.7367 23.1422C95.2792 22.9201 95.7544 22.6092 96.1584 22.2094C96.5623 21.8096 96.8752 21.3412 97.093 20.7961C97.3108 20.2509 97.4217 19.6573 97.4217 19.0113C97.4217 18.3652 97.3108 17.7756 97.093 17.2305C96.8752 16.6894 96.5623 16.2209 96.1584 15.8212ZM95.402 20.578C95.1644 21.0343 94.8357 21.3978 94.4119 21.6602C93.9921 21.9227 93.5011 22.056 92.9466 22.056C92.3922 22.056 91.913 21.9227 91.4893 21.6602C91.0655 21.3978 90.7329 21.0384 90.4952 20.578C90.2576 20.1217 90.1388 19.5968 90.1388 19.0072C90.1388 18.4177 90.2576 17.8967 90.4952 17.4445C90.7329 16.9922 91.0655 16.6328 91.4893 16.3704C91.913 16.1079 92.4001 15.9746 92.9466 15.9746C93.4931 15.9746 93.9882 16.1079 94.4119 16.3704C94.8317 16.6328 95.1644 16.9922 95.402 17.4445C95.6396 17.8967 95.7584 18.4177 95.7584 19.0072C95.7584 19.5968 95.6396 20.1177 95.402 20.578Z" fill="#4B3620"/>
<path d="M139.313 14.7471L135.369 20.8971V14.7471H133.789V23.2836H135.452L139.42 17.077V23.2836H141V14.7471H139.313Z" fill="#4B3620"/>
<path d="M82.3488 20.5982L79.6162 14.7471H77.7905V23.2836H79.3113V17.1497L81.7587 22.3629H82.9269L85.3387 17.2224V23.2836H86.8872V14.7471H85.0813L82.3488 20.5982Z" fill="#4B3620"/>
<path d="M68.892 5.70578C69.0504 5.82693 69.2484 5.88346 69.482 5.88346C69.7157 5.88346 69.9137 5.82289 70.0761 5.70578C70.2384 5.58464 70.3295 5.40697 70.3573 5.16064H69.8503C69.8345 5.28986 69.7949 5.3787 69.7315 5.43523C69.6682 5.48773 69.585 5.516 69.486 5.516C69.387 5.516 69.3078 5.48773 69.2444 5.43523C69.1771 5.38274 69.1375 5.28986 69.1217 5.16064H68.6147C68.6425 5.40293 68.7375 5.58464 68.8959 5.70578H68.892Z" fill="#4B3620"/>
<path d="M73.3633 8.09252L74.9831 9.78851H75.8662L74.0841 7.9633L75.6603 6.27539H74.8564L73.3633 7.91485V6.27539H72.7139V9.78851H73.3633V8.09252Z" fill="#4B3620"/>
<path d="M70.2938 7.23241V9.78851H70.9433V6.27539H70.2503L68.6226 8.80726V6.27539H67.9731V9.78851H68.6583L70.2938 7.23241Z" fill="#4B3620"/>
<path d="M80.7293 7.26472L81.7352 9.40894H82.2183L83.2084 7.29298V9.78851H83.846V6.27539H83.1054L81.9768 8.68208L80.8521 6.27539H80.0996V9.78851H80.7293V7.26472Z" fill="#4B3620"/>
<path d="M76.282 9.34403C76.4483 9.50959 76.6424 9.63477 76.8681 9.72765C77.0899 9.82053 77.3354 9.86494 77.6047 9.86494C77.874 9.86494 78.1156 9.82053 78.3413 9.72765C78.5631 9.63477 78.7611 9.50959 78.9274 9.34403C79.0937 9.17847 79.2244 8.98464 79.3116 8.76255C79.4026 8.53642 79.4462 8.29413 79.4462 8.02762C79.4462 7.76111 79.4026 7.51882 79.3116 7.29673C79.2205 7.07464 79.0937 6.88081 78.9274 6.71525C78.7611 6.54969 78.567 6.42451 78.3413 6.33163C78.1195 6.23875 77.874 6.19434 77.6047 6.19434C77.3354 6.19434 77.0938 6.23875 76.8681 6.33163C76.6463 6.42451 76.4483 6.54969 76.282 6.71525C76.1156 6.88081 75.985 7.0706 75.8978 7.29673C75.8067 7.51882 75.7632 7.76515 75.7632 8.02762C75.7632 8.2901 75.8067 8.53642 75.8978 8.76255C75.9889 8.98868 76.1156 9.18251 76.282 9.34403ZM76.5948 7.38153C76.6938 7.19578 76.8285 7.04637 77.0027 6.93734C77.177 6.82831 77.379 6.77582 77.6047 6.77582C77.8304 6.77582 78.0324 6.82831 78.2066 6.93734C78.3809 7.04637 78.5155 7.19174 78.6145 7.38153C78.7136 7.56728 78.7611 7.7813 78.7611 8.02358C78.7611 8.26587 78.7136 8.47989 78.6145 8.66967C78.5155 8.85946 78.3809 9.00483 78.2066 9.11386C78.0324 9.22289 77.8304 9.27539 77.6047 9.27539C77.379 9.27539 77.1809 9.22289 77.0027 9.11386C76.8285 9.00483 76.6899 8.85543 76.5948 8.66967C76.4958 8.47989 76.4483 8.26587 76.4483 8.02358C76.4483 7.7813 76.4958 7.56728 76.5948 7.38153Z" fill="#4B3620"/>
<path d="M94.5585 9.22722H92.7843V8.29039H94.4634V7.7291H92.7843V6.83264H94.5585V6.27539H92.1309V9.78851H94.5585V9.22722Z" fill="#4B3620"/>
<path d="M60.6311 9.70775C60.7381 9.65526 60.8212 9.56642 60.8806 9.45335C60.94 9.33625 60.9836 9.18684 61.0074 8.99705L61.2687 6.84072H62.334V9.78851H62.9835V6.27539H60.7024L60.3896 8.96879C60.3777 9.0657 60.35 9.13435 60.3143 9.17069C60.2747 9.20703 60.2113 9.22318 60.1203 9.22318H59.8232V9.78851H60.2272C60.3896 9.78851 60.5242 9.76025 60.6311 9.70775Z" fill="#4B3620"/>
<path d="M88.9544 9.70775C89.0613 9.65526 89.1445 9.56642 89.2039 9.45335C89.2633 9.33625 89.3068 9.18684 89.3306 8.99705L89.592 6.84072H90.6573V9.78851H91.3067V6.27539H89.0257L88.7128 8.96879C88.7009 9.0657 88.6732 9.13435 88.6376 9.17069C88.598 9.20703 88.5346 9.22318 88.4435 9.22318H88.1465V9.78851H88.5504C88.7128 9.78851 88.8474 9.76025 88.9544 9.70775Z" fill="#4B3620"/>
<path d="M98.1384 6.27539H97.3344L95.8375 7.91485V6.27539H95.188V9.78851H95.8375V8.09252L97.4572 9.78851H98.3403L96.5582 7.9633L98.1384 6.27539Z" fill="#4B3620"/>
<path d="M64.1555 9.34403C64.3218 9.50959 64.5198 9.63477 64.7416 9.72765C64.9634 9.82053 65.2089 9.86494 65.4782 9.86494C65.7475 9.86494 65.9891 9.82053 66.2148 9.72765C66.4366 9.63477 66.6346 9.50959 66.8009 9.34403C66.9673 9.17847 67.098 8.98464 67.1851 8.76255C67.2762 8.53642 67.3197 8.29413 67.3197 8.02762C67.3197 7.76111 67.2762 7.51882 67.1851 7.29673C67.094 7.07464 66.9673 6.88081 66.8009 6.71525C66.6346 6.54969 66.4406 6.42451 66.2148 6.33163C65.9931 6.23875 65.7475 6.19434 65.4782 6.19434C65.2089 6.19434 64.9674 6.23875 64.7416 6.33163C64.5198 6.42451 64.3218 6.54969 64.1555 6.71525C63.9892 6.88081 63.8585 7.0706 63.7714 7.29673C63.6803 7.51882 63.6367 7.76515 63.6367 8.02762C63.6367 8.2901 63.6803 8.53642 63.7714 8.76255C63.8625 8.98868 63.9892 9.18251 64.1555 9.34403ZM64.4684 7.38153C64.5674 7.19578 64.702 7.04637 64.8763 6.93734C65.0505 6.82831 65.2525 6.77582 65.4782 6.77582C65.704 6.77582 65.9059 6.82831 66.0802 6.93734C66.2544 7.04637 66.3891 7.19174 66.4881 7.38153C66.5871 7.56728 66.6346 7.7813 66.6346 8.02358C66.6346 8.26587 66.5871 8.47989 66.4881 8.66967C66.3891 8.85946 66.2544 9.00483 66.0802 9.11386C65.9059 9.22289 65.704 9.27539 65.4782 9.27539C65.2525 9.27539 65.0545 9.22289 64.8763 9.11386C64.702 9.00483 64.5634 8.85543 64.4684 8.66967C64.3694 8.47989 64.3218 8.26587 64.3218 8.02358C64.3218 7.7813 64.3694 7.56728 64.4684 7.38153Z" fill="#4B3620"/>
<path d="M84.6738 9.78851H85.3273V6.84072H86.9549V9.78851H87.6044V6.27539H84.6738V9.78851Z" fill="#4B3620"/>
<path d="M58.6312 7.23241V9.78851H59.2846V6.27539H58.5876L56.9639 8.80726V6.27539H56.3145V9.78851H56.9996L58.6312 7.23241Z" fill="#4B3620"/>
<path d="M51.5384 9.78851L52.9601 8.1006V9.78851H53.6096V8.1006L55.0352 9.78851H55.8352L54.3184 7.9633L55.756 6.27539H54.9877L53.6096 7.91485V6.27539H52.9601V7.91485L51.5819 6.27539H50.8176L52.2552 7.9633L50.7305 9.78851H51.5384Z" fill="#4B3620"/>
<path d="M100.055 9.86494C100.348 9.86494 100.617 9.80437 100.863 9.68323C101.108 9.56209 101.306 9.4046 101.457 9.20674L101.029 8.76255C100.922 8.92004 100.788 9.04522 100.621 9.13809C100.455 9.23097 100.273 9.27942 100.071 9.27942C99.8531 9.27942 99.659 9.22693 99.4848 9.1179C99.3145 9.00887 99.1759 8.85946 99.0769 8.67371C98.9779 8.48392 98.9264 8.26991 98.9264 8.02762C98.9264 7.78534 98.9779 7.57132 99.0769 7.38557C99.1759 7.19982 99.3105 7.05041 99.4848 6.94138C99.6551 6.83235 99.8531 6.77986 100.071 6.77986C100.273 6.77986 100.459 6.82831 100.621 6.92119C100.788 7.01406 100.922 7.13924 101.029 7.29673L101.457 6.85254C101.306 6.65468 101.108 6.49719 100.871 6.37605C100.629 6.25491 100.364 6.19434 100.071 6.19434C99.8056 6.19434 99.564 6.23875 99.3422 6.32759C99.1204 6.41643 98.9264 6.54565 98.7601 6.71121C98.5977 6.87677 98.467 7.0706 98.3759 7.29673C98.2848 7.52286 98.2373 7.76515 98.2373 8.02762C98.2373 8.2901 98.2809 8.54046 98.368 8.76659C98.4551 8.98868 98.5818 9.18251 98.7442 9.34807C98.9066 9.51363 99.0967 9.64285 99.3184 9.73169C99.5402 9.82053 99.7858 9.86494 100.051 9.86494H100.055Z" fill="#4B3620"/>
</g>
<defs>
<clipPath id="clip0_104_3965">
<rect width="141" height="42" fill="white"/>
</clipPath>
</defs>
</svg>
