<svg width="35" height="35" viewBox="0 0 35 35" fill="none" xmlns="http://www.w3.org/2000/svg">
<path d="M27.0785 14.7089C25.6088 15.4437 24.6887 16.9408 24.6777 18.6149V26.049C25.4078 26.2719 26.1775 26.3874 26.9657 26.3874C27.2439 26.3874 27.5249 26.373 27.8072 26.3437C30.4411 26.0702 32.6648 24.5109 33.7559 22.173C34.5816 20.4032 35 18.5097 35 16.543V10.7898L27.0785 14.7089ZM8.03428 26.3874C8.82246 26.3874 9.59219 26.2719 10.3223 26.049V18.6149C10.3113 16.9408 9.39121 15.4438 7.91738 14.7068L0 10.7898V16.543C0 18.5097 0.418359 20.4032 1.24414 22.173C2.33516 24.5109 4.55889 26.0702 7.19277 26.3437C7.4751 26.373 7.75537 26.3874 8.03428 26.3874ZM12.373 14.4922H16.4746V12.4414C16.4746 10.7452 15.0946 9.36523 13.3984 9.36523C11.7022 9.36523 10.3223 10.7452 10.3223 12.4414V13.4668H12.373V14.4922ZM18.5254 12.4414V14.4922H22.627V13.4668H24.6777V12.4414C24.6777 10.7452 23.2978 9.36523 21.6016 9.36523C19.9054 9.36523 18.5254 10.7452 18.5254 12.4414ZM18.5254 28.9519V26.7969H16.4746V28.9519C14.1269 29.4306 12.373 31.5088 12.373 33.9746V35H22.627V33.9746C22.627 31.5099 20.8738 29.4307 18.5254 28.9519ZM22.627 27.823V26.7969H20.5762V27.4914C21.7602 28.0554 22.7568 28.9324 23.4719 30.0043C24.1233 30.1978 24.7071 30.597 25.1221 31.1493L26.9336 33.5645L28.5742 32.334L26.7627 29.9188C25.7899 28.6207 24.2471 27.8414 22.627 27.823ZM14.4238 27.4914V26.7969H12.373V27.823C10.7529 27.8414 9.21006 28.6207 8.2373 29.9188L6.42578 32.334L8.06641 33.5645L9.87793 31.1493C10.2929 30.597 10.8767 30.1978 11.5281 30.0043C12.2042 28.9796 13.2091 28.0697 14.4238 27.4914ZM12.373 23.3789V24.7461H22.627V16.543H12.373V23.3789ZM16.4746 19.2773H18.5254V21.3281H16.4746V19.2773ZM16.2497 8.18262L17.021 7.27692C17.1772 7.30146 17.3371 7.31445 17.5 7.31445C17.6629 7.31445 17.8228 7.30146 17.979 7.27692L18.7503 8.18262C19.345 7.78271 20.0279 7.50449 20.7635 7.3835L19.811 6.26514C20.2867 5.72332 20.5762 5.01416 20.5762 4.23828V2.1875H18.5254V0H16.4746V2.1875H14.4238V4.23828C14.4238 5.01416 14.7133 5.72332 15.189 6.26514L14.2365 7.3835C14.9572 7.50215 15.6438 7.77471 16.2497 8.18262Z" fill="#006E90"/>
</svg>
