<svg width="31" height="31" viewBox="0 0 31 31" fill="none" xmlns="http://www.w3.org/2000/svg">
<path d="M11.125 16.5938C11.7291 16.5938 12.2188 16.1041 12.2188 15.5C12.2188 14.8959 11.7291 14.4062 11.125 14.4062C10.5209 14.4062 10.0312 14.8959 10.0312 15.5C10.0312 16.1041 10.5209 16.5938 11.125 16.5938Z" fill="#006E90"/>
<path d="M19.875 24.25C20.4791 24.25 20.9688 23.7603 20.9688 23.1562C20.9688 22.5522 20.4791 22.0625 19.875 22.0625C19.2709 22.0625 18.7812 22.5522 18.7812 23.1562C18.7812 23.7603 19.2709 24.25 19.875 24.25Z" fill="#006E90"/>
<path d="M30.4247 12.4781L16.206 0.446838C16.0085 0.279703 15.7581 0.187988 15.4994 0.187988C15.2407 0.187988 14.9903 0.279703 14.7928 0.446838L0.5741 12.4781C0.460777 12.5697 0.366903 12.683 0.297993 12.8114C0.229082 12.9398 0.186524 13.0807 0.172818 13.2258C0.159111 13.3709 0.174534 13.5172 0.218179 13.6562C0.261824 13.7953 0.332812 13.9242 0.426973 14.0354C0.521134 14.1466 0.636569 14.2379 0.766499 14.3039C0.896428 14.3699 1.03823 14.4092 1.18358 14.4196C1.32893 14.43 1.4749 14.4113 1.6129 14.3645C1.75091 14.3177 1.87818 14.2438 1.98722 14.1472L3.46816 12.8937V27.5314C3.46816 28.4016 3.81386 29.2362 4.42922 29.8516C5.04457 30.4669 5.87917 30.8126 6.74941 30.8126H24.2494C25.1197 30.8126 25.9543 30.4669 26.5696 29.8516C27.185 29.2362 27.5307 28.4016 27.5307 27.5314V12.8937L29.0116 14.1472C29.1206 14.2438 29.2479 14.3177 29.3859 14.3645C29.5239 14.4113 29.6699 14.43 29.8152 14.4196C29.9606 14.4092 30.1024 14.3699 30.2323 14.3039C30.3623 14.2379 30.4777 14.1466 30.5719 14.0354C30.666 13.9242 30.737 13.7953 30.7806 13.6562C30.8243 13.5172 30.8397 13.3709 30.826 13.2258C30.8123 13.0807 30.7697 12.9398 30.7008 12.8114C30.6319 12.683 30.538 12.5697 30.4247 12.4781ZM7.84316 15.5001C7.84316 14.8511 8.0356 14.2168 8.39615 13.6772C8.7567 13.1376 9.26916 12.717 9.86873 12.4686C10.4683 12.2203 11.1281 12.1553 11.7646 12.2819C12.4011 12.4085 12.9857 12.721 13.4446 13.1799C13.9035 13.6388 14.216 14.2235 14.3426 14.86C14.4692 15.4965 14.4042 16.1562 14.1559 16.7558C13.9075 17.3554 13.487 17.8678 12.9474 18.2284C12.4078 18.5889 11.7734 18.7814 11.1244 18.7814C10.2542 18.7814 9.41957 18.4357 8.80422 17.8203C8.18886 17.205 7.84316 16.3704 7.84316 15.5001ZM11.1244 25.3439C10.9134 25.3441 10.7068 25.2833 10.5295 25.1688C10.3523 25.0542 10.2119 24.8908 10.1255 24.6983C10.039 24.5058 10.01 24.2924 10.0421 24.0838C10.0742 23.8752 10.1659 23.6804 10.3063 23.5228L19.0563 13.679C19.2492 13.4615 19.5206 13.3294 19.8109 13.312C20.1011 13.2946 20.3864 13.3932 20.6039 13.5861C20.8215 13.779 20.9535 14.0504 20.971 14.3406C20.9884 14.6309 20.8898 14.9162 20.6969 15.1337L11.9469 24.9775C11.8437 25.0934 11.7169 25.1861 11.5751 25.2492C11.4333 25.3124 11.2797 25.3447 11.1244 25.3439ZM19.8744 26.4376C19.2254 26.4376 18.591 26.2452 18.0514 25.8846C17.5119 25.5241 17.0913 25.0116 16.8429 24.412C16.5946 23.8125 16.5296 23.1527 16.6562 22.5162C16.7828 21.8797 17.0953 21.2951 17.5542 20.8362C18.0131 20.3773 18.5978 20.0648 19.2343 19.9382C19.8708 19.8116 20.5305 19.8765 21.1301 20.1249C21.7297 20.3732 22.2421 20.7938 22.6027 21.3334C22.9632 21.873 23.1557 22.5074 23.1557 23.1564C23.1557 24.0266 22.81 24.8612 22.1946 25.4766C21.5793 26.0919 20.7447 26.4376 19.8744 26.4376Z" fill="#006E90"/>
</svg>
