<svg width="33" height="35" viewBox="0 0 33 35" fill="none" xmlns="http://www.w3.org/2000/svg">
<path d="M7.27 0C5.00766 0 3.16797 1.83969 3.16797 4.10204C3.16797 6.36438 5.00766 8.27244 7.27 8.27244C9.53234 8.27244 11.372 6.36438 11.372 4.10204C11.372 1.83969 9.53234 0 7.27 0ZM29.8312 4.10204C29.8312 1.83969 27.9915 0 25.7292 0C23.4668 0 21.6271 1.83969 21.6271 4.10204C21.6271 6.36438 23.4668 8.27244 25.7292 8.27244C27.9915 8.27244 29.8312 6.36438 29.8312 4.10204ZM10.9752 31.1126C13.3622 33.1155 13.9498 33.6798 14.5887 34.2229C15.1976 34.7407 15.9577 35.0001 16.7179 35.0001C17.485 35.0001 18.2521 34.7357 18.8611 34.2089C19.9735 33.2459 21.179 32.1347 22.2632 31.1842C21.6812 30.9887 21.133 30.6766 20.6757 30.2188C19.458 29.0026 19.1198 27.1602 19.8896 25.5477C17.7985 24.4407 15.2044 24.4436 13.1123 25.5523C13.8782 27.1629 13.5406 29.0032 12.3225 30.2198C11.9377 30.6046 11.4795 30.9082 10.9752 31.1126Z" fill="#006E90"/>
<path d="M16.4983 20.5786C17.631 20.5786 18.5493 19.6603 18.5493 18.5276C18.5493 17.3948 17.631 16.4766 16.4983 16.4766C15.3655 16.4766 14.4473 17.3948 14.4473 18.5276C14.4473 19.6603 15.3655 20.5786 16.4983 20.5786Z" fill="#006E90"/>
<path d="M16.4992 13.1436C15.0952 10.6139 12.6716 8.42365 9.23453 8.42365C4.50755 8.42365 0.943359 12.2553 0.943359 17.3357C0.943359 21.8236 3.99562 25.1141 8.81947 29.277C9.52954 29.4905 10.3253 29.3147 10.873 28.7685C11.7134 27.9303 11.6453 26.5655 10.7899 25.7881C6.38738 21.7882 5.04546 19.9266 5.04546 17.8416H7.09648C7.09648 19.1336 8.3567 20.7672 11.8144 23.9405C14.6667 22.2668 18.333 22.2704 21.1842 23.9406C24.6418 20.7674 25.9022 19.1336 25.9022 17.8416H27.9532C27.9532 19.9266 26.6112 21.7882 22.2088 25.7881C21.3582 26.5613 21.2813 27.9262 22.1247 28.7675C22.8162 29.4571 23.8927 29.5348 24.703 29.0079C29.8323 24.3348 32.0553 21.4358 32.0553 17.3357C32.0553 12.2552 28.4911 8.42358 23.7641 8.42358C20.3258 8.42365 17.9033 10.6139 16.4992 13.1436ZM20.6013 18.5275C20.6013 20.7899 18.7616 22.6295 16.4992 22.6295C14.2369 22.6295 12.3972 20.7899 12.3972 18.5275C12.3972 16.2652 14.2369 14.4255 16.4992 14.4255C18.7616 14.4255 20.6013 16.2652 20.6013 18.5275Z" fill="#006E90"/>
</svg>
