<svg width="31" height="35" viewBox="0 0 31 35" fill="none" xmlns="http://www.w3.org/2000/svg">
<path d="M16.1057 13.9125V15.6722C16.1057 16.231 16.2173 16.7 16.4377 17.0653C16.7415 17.5695 17.2403 17.8583 17.8067 17.8583C18.3616 17.8583 18.913 17.5881 19.4455 17.0557L25.2576 11.2435C26.5337 9.96741 26.5337 7.891 25.2576 6.61486L19.4455 0.802676C18.9129 0.27002 18.3616 0 17.8067 0C16.96 0 16.1057 0.676074 16.1057 2.18613V3.78437C7.85405 4.27157 1.0229 10.6042 0.00762271 18.8952C-0.0199932 19.1204 0.027888 19.3484 0.143764 19.5435C0.25964 19.7386 0.436962 19.8897 0.647945 19.9732C0.85893 20.0568 1.09168 20.068 1.30972 20.0051C1.52776 19.9422 1.71875 19.8087 1.85278 19.6256C4.57594 15.9048 8.94828 13.6834 13.5487 13.6834C14.4061 13.6839 15.2618 13.7606 16.1057 13.9125Z" fill="#006E90"/>
<path d="M29.9591 15.0269C29.7481 14.9433 29.5153 14.9321 29.2973 14.9951C29.0792 15.058 28.8882 15.1916 28.7543 15.3748C26.0314 19.0953 21.659 21.3167 17.0586 21.3167C16.2012 21.3162 15.3455 21.2395 14.5016 21.0876V19.3279C14.5016 17.8178 13.6471 17.1418 12.8006 17.1418C12.2457 17.1418 11.6943 17.412 11.1616 17.9447L5.34944 23.7566C4.07358 25.0327 4.07358 27.1091 5.34971 28.3855L11.1616 34.1974C11.6942 34.7301 12.2457 35.0001 12.8006 35.0001C13.6471 35.0001 14.5016 34.324 14.5016 32.814V31.2157C22.7536 30.7285 29.5844 24.3958 30.5997 16.1052C30.6273 15.8799 30.5795 15.6518 30.4635 15.4566C30.3476 15.2615 30.1702 15.1103 29.9591 15.0269Z" fill="#006E90"/>
</svg>
