<svg width="35" height="35" viewBox="0 0 35 35" fill="none" xmlns="http://www.w3.org/2000/svg">
<path d="M30.7617 5.81055C30.7617 3.73741 29.0751 2.05078 27.002 2.05078H26.25V5.12695C26.25 5.69324 25.7909 6.15234 25.2246 6.15234C24.6583 6.15234 24.1992 5.69324 24.1992 5.12695V2.05078H19.6875V5.12695C19.6875 5.69324 19.2284 6.15234 18.6621 6.15234C18.0958 6.15234 17.6367 5.69324 17.6367 5.12695V2.05078H13.125V5.12695C13.125 5.69324 12.6659 6.15234 12.0996 6.15234C11.5333 6.15234 11.0742 5.69324 11.0742 5.12695V2.05078H6.5625V5.12695C6.5625 5.69324 6.1034 6.15234 5.53711 6.15234C4.97082 6.15234 4.51172 5.69324 4.51172 5.12695V2.05078H3.75977C1.68663 2.05078 0 3.73741 0 5.81055V8.88672H30.7617V5.81055ZM6.5625 1.02539C6.5625 0.459102 6.1034 0 5.53711 0C4.97082 0 4.51172 0.459102 4.51172 1.02539V2.05078H6.5625V1.02539ZM26.25 1.02539C26.25 0.459102 25.7909 0 25.2246 0C24.6583 0 24.1992 0.459102 24.1992 1.02539V2.05078H26.25V1.02539ZM19.6875 1.02539C19.6875 0.459102 19.2284 0 18.6621 0C18.0958 0 17.6367 0.459102 17.6367 1.02539V2.05078H19.6875V1.02539ZM13.125 1.02539C13.125 0.459102 12.6659 0 12.0996 0C11.5333 0 11.0742 0.459102 11.0742 1.02539V2.05078H13.125V1.02539ZM27.4805 17.9102C28.6326 17.9102 29.7378 18.1149 30.7617 18.4897V10.9375H0V26.3184C0 28.0146 1.37997 29.3945 3.07617 29.3945H18.1026C17.9744 28.7646 17.9099 28.1233 17.9102 27.4805C17.9102 22.2034 22.2034 17.9102 27.4805 17.9102ZM23.6523 14.5264H25.3613C25.9276 14.5264 26.3867 14.9855 26.3867 15.5518C26.3867 16.118 25.9276 16.5771 25.3613 16.5771H23.6523C23.0861 16.5771 22.627 16.118 22.627 15.5518C22.627 14.9855 23.0861 14.5264 23.6523 14.5264ZM17.5684 14.5264H19.2773C19.8436 14.5264 20.3027 14.9855 20.3027 15.5518C20.3027 16.118 19.8436 16.5771 19.2773 16.5771H17.5684C17.0021 16.5771 16.543 16.118 16.543 15.5518C16.543 14.9855 17.0021 14.5264 17.5684 14.5264ZM7.10938 25.8057H5.40039C4.8341 25.8057 4.375 25.3466 4.375 24.7803C4.375 24.214 4.8341 23.7549 5.40039 23.7549H7.10938C7.67566 23.7549 8.13477 24.214 8.13477 24.7803C8.13477 25.3466 7.67566 25.8057 7.10938 25.8057ZM7.10938 21.1914H5.40039C4.8341 21.1914 4.375 20.7323 4.375 20.166C4.375 19.5997 4.8341 19.1406 5.40039 19.1406H7.10938C7.67566 19.1406 8.13477 19.5997 8.13477 20.166C8.13477 20.7323 7.67566 21.1914 7.10938 21.1914ZM13.1934 25.8057H11.4844C10.9181 25.8057 10.459 25.3466 10.459 24.7803C10.459 24.214 10.9181 23.7549 11.4844 23.7549H13.1934C13.7596 23.7549 14.2188 24.214 14.2188 24.7803C14.2188 25.3466 13.7596 25.8057 13.1934 25.8057ZM13.1934 21.1914H11.4844C10.9181 21.1914 10.459 20.7323 10.459 20.166C10.459 19.5997 10.9181 19.1406 11.4844 19.1406H13.1934C13.7596 19.1406 14.2188 19.5997 14.2188 20.166C14.2188 20.7323 13.7596 21.1914 13.1934 21.1914ZM13.1934 16.5771H11.4844C10.9181 16.5771 10.459 16.118 10.459 15.5518C10.459 14.9855 10.9181 14.5264 11.4844 14.5264H13.1934C13.7596 14.5264 14.2188 14.9855 14.2188 15.5518C14.2188 16.118 13.7596 16.5771 13.1934 16.5771ZM16.543 20.166C16.543 19.5997 17.0021 19.1406 17.5684 19.1406H19.2773C19.8436 19.1406 20.3027 19.5997 20.3027 20.166C20.3027 20.7323 19.8436 21.1914 19.2773 21.1914H17.5684C17.0021 21.1914 16.543 20.7323 16.543 20.166Z" fill="#006E90"/>
<path d="M27.4805 19.9609C23.3342 19.9609 19.9609 23.3342 19.9609 27.4805C19.9609 31.6267 23.3342 35 27.4805 35C31.6267 35 35 31.6267 35 27.4805C35 23.3342 31.6267 19.9609 27.4805 19.9609ZM30.8984 28.5059H27.4805C26.9142 28.5059 26.4551 28.0468 26.4551 27.4805V24.0625C26.4551 23.4962 26.9142 23.0371 27.4805 23.0371C28.0468 23.0371 28.5059 23.4962 28.5059 24.0625V26.4551H30.8984C31.4647 26.4551 31.9238 26.9142 31.9238 27.4805C31.9238 28.0468 31.4647 28.5059 30.8984 28.5059Z" fill="#006E90"/>
</svg>
