<svg width="35" height="33" viewBox="0 0 35 33" fill="none" xmlns="http://www.w3.org/2000/svg">
<path d="M11.6661 10.6665C18.343 10.6665 23.3321 8.02694 23.3321 5.66679C23.3321 3.30686 18.3429 0.667236 11.6661 0.667236C4.98922 0.667236 0.000111123 3.30686 0.000111123 5.66679C0.000111123 8.02694 4.98911 10.6665 11.6661 10.6665ZM11.6661 30.6658C12.6406 30.6658 13.5786 30.6091 14.4708 30.5059C13.713 29.5324 13.0938 28.4585 12.6308 27.3149C12.3107 27.3256 11.9894 27.3331 11.666 27.3331C7.85076 27.3331 4.23769 26.5771 1.49261 25.2045C0.952106 24.9343 0.454717 24.6439 0.000111123 24.3365V25.6662C0.000111123 28.0262 4.98911 30.6658 11.6661 30.6658ZM11.6661 23.9994C11.7003 23.9994 11.734 23.9988 11.7681 23.9987C11.6988 23.4457 11.6641 22.8889 11.6641 22.3315C11.6641 21.7672 11.6996 21.2112 11.7681 20.6653C11.734 20.6653 11.7002 20.6666 11.6661 20.6666C7.85087 20.6666 4.23792 19.9106 1.49272 18.538C0.952106 18.2677 0.454606 17.9774 0 17.6701V18.9997C0.000111123 21.3598 4.98911 23.9994 11.6661 23.9994ZM11.6661 17.3328C11.9968 17.3328 12.323 17.3261 12.6452 17.3134C13.1592 16.0533 13.8629 14.8792 14.7318 13.8318C13.7137 13.9439 12.6903 14.0001 11.6661 14.0002C7.85087 14.0002 4.23792 13.2442 1.49272 11.8716C0.952106 11.6012 0.454606 11.311 0 11.0036V12.3333C0.000111123 14.6934 4.98911 17.3328 11.6661 17.3328ZM16.6666 16.8068C15.9326 17.9091 15.426 19.1468 15.1767 20.4474C15.0577 21.0684 14.9978 21.6993 14.9979 22.3315C14.9979 22.8157 15.0332 23.2917 15.1 23.7577C15.2609 24.8803 15.6131 25.9671 16.1412 26.9707C16.6836 28.0015 17.4009 28.9302 18.261 29.7156C20.0399 31.3403 22.4057 32.3326 24.999 32.3326C30.5136 32.3326 35.0001 27.8461 35.0001 22.3315C35.0001 16.8168 30.5136 12.3304 24.999 12.3304C24.4291 12.3304 23.8702 12.3791 23.3259 12.4711C20.5536 12.9399 18.1658 14.5533 16.6666 16.8068Z" fill="#4B3620"/>
</svg>
