<svg width="248" height="221" viewBox="0 0 248 221" fill="none" xmlns="http://www.w3.org/2000/svg">
<path d="M168.648 0.837757C168.946 0.928046 168.946 0.928046 169.25 1.02016C171.95 1.97031 174.08 4.23437 175.773 6.48261C176.263 7.06469 176.803 7.53887 177.381 8.03143C177.669 8.28013 177.95 8.53588 178.224 8.79944C179.418 9.93642 180.74 10.762 182.139 11.6163C182.757 11.9951 183.354 12.3936 183.943 12.8187C184.782 13.4232 185.65 13.9663 186.53 14.5083C189.247 16.194 191.721 18.1635 194.184 20.1989C194.69 20.6167 195.198 21.0323 195.707 21.446C195.855 21.5669 196.003 21.6878 196.155 21.8124C197.193 22.5946 197.932 22.9295 199.237 22.7516C205.398 21.5432 211.595 17.6714 217.104 14.7252C217.395 14.5703 217.395 14.5703 217.692 14.4123C217.945 14.2763 217.945 14.2763 218.203 14.1375C218.611 13.9451 218.611 13.9451 219.018 13.9451C218.555 13.4272 218.107 13.1477 217.482 12.8515C217.3 12.7648 217.118 12.678 216.93 12.5887C216.645 12.4554 216.645 12.4554 216.355 12.3195C216.078 12.1874 216.078 12.1874 215.796 12.0527C214.063 11.2329 212.325 10.496 210.479 9.97705C210.18 9.89047 209.881 9.80379 209.582 9.71705C209.426 9.67227 209.271 9.62749 209.111 9.58135C208.232 9.32812 207.354 9.07151 206.477 8.81224C206.311 8.76449 206.146 8.71674 205.975 8.66754C205.154 8.42422 204.379 8.15012 203.602 7.78983C202.777 7.40883 201.969 7.16812 201.086 6.96902C200.006 6.71363 198.945 6.43626 197.893 6.08341C196.394 5.69976 194.848 5.70936 193.311 5.66341C190.727 5.57079 188.216 5.46904 185.778 4.52419C185.778 3.91593 185.778 3.30767 185.778 2.68098C189.403 2.63837 192.986 2.59848 196.586 3.09058C196.599 2.93508 196.611 2.77959 196.624 2.61938C196.641 2.41583 196.658 2.21228 196.676 2.00257C196.692 1.80061 196.709 1.59865 196.726 1.39056C196.79 0.837757 196.79 0.837757 196.994 0.223351C199.251 0.569043 201.034 1.75781 202.894 3.01523C204.52 4.11076 206.144 5.07005 207.93 5.88101C208.111 5.9632 208.292 6.04538 208.478 6.13006C210.1 6.84134 211.68 7.37907 213.446 7.53383C214.161 7.62795 214.835 7.83983 215.526 8.04103C216.544 8.31199 217.577 8.49775 218.612 8.69224C219.222 8.82504 219.222 8.82504 219.426 9.02984C219.773 9.0962 220.122 9.15457 220.471 9.20904C221.425 9.37462 222.213 9.6519 223.097 10.0539C223.376 10.1321 223.656 10.2045 223.938 10.2715C224.728 10.4635 224.728 10.4635 225.205 10.6659C228.495 11.9208 231.733 11.344 234.819 9.96745C235.022 9.877 235.226 9.78654 235.436 9.69335C235.842 9.5112 236.247 9.32632 236.651 9.13834C239.802 7.70974 242.844 7.77609 246.141 8.62024C246.208 8.68782 246.275 8.75541 246.345 8.82504C246.62 8.8723 246.896 8.90932 247.173 8.94024C247.438 8.96981 247.703 8.99938 247.976 9.02984C248.07 10.2038 247.906 10.7815 247.16 11.6923C245.961 12.8041 244.816 12.9941 243.248 13.1387C242.11 13.2019 242.11 13.2019 241.043 13.5355C240.712 13.5918 240.38 13.6419 240.048 13.6891C233.349 14.8039 227.141 17.6845 221.084 20.6644C220.91 20.7499 220.736 20.8355 220.557 20.9236C219.701 21.345 218.846 21.7687 217.994 22.1963C215.105 23.6367 212.187 24.8591 209.067 25.6984C208.503 25.8556 207.943 26.0235 207.382 26.1916C207.162 26.2574 206.942 26.3231 206.715 26.3908C206.273 26.5229 205.832 26.6557 205.391 26.7892C205.187 26.8497 204.983 26.9101 204.774 26.9724C204.591 27.0273 204.409 27.0821 204.22 27.1386C203.724 27.2572 203.724 27.2572 202.908 27.2572C205.311 30.3194 208.495 32.4747 212.141 33.7445C212.901 34.0157 212.901 34.0157 213.559 34.3317C214.387 34.6965 215.242 34.806 216.131 34.9408C217.155 35.0981 218.169 35.3074 219.184 35.5133C219.51 35.5792 219.51 35.5792 219.842 35.6464C221.387 35.9609 222.931 36.2828 224.473 36.6141C224.766 36.6762 224.766 36.6762 225.065 36.7396C226.447 37.0403 226.447 37.0403 227.081 37.2981C227.88 37.6148 228.716 37.7302 229.559 37.8813C229.946 37.9541 230.333 38.0272 230.72 38.1005C231.266 38.2036 231.812 38.3067 232.359 38.4075C235.21 38.9426 238.182 39.7847 240.635 41.3886C239.466 42.0406 238.307 42.0426 237.002 42.0414C236.831 42.0414 236.66 42.0413 236.484 42.0413C235.142 42.0292 233.845 41.9043 232.518 41.703C230.233 41.3837 227.924 41.3467 225.621 41.3502C225.407 41.3503 225.407 41.3503 225.19 41.3503C222.839 41.3545 220.533 41.4792 218.203 41.7982C217.851 41.8432 217.499 41.8883 217.147 41.9334C215.313 42.1763 213.493 42.4763 211.677 42.835C211.508 42.8682 211.338 42.9014 211.164 42.9357C210.344 43.1035 209.588 43.2925 208.822 43.6414C208.942 43.7678 208.942 43.7678 209.064 43.8967C210.486 45.3997 211.898 46.9081 213.245 48.4798C213.343 48.5934 213.44 48.707 213.541 48.8239C215.144 50.7138 215.144 50.7138 215.144 51.4239C214.762 51.4354 214.379 51.4431 213.997 51.4495C213.784 51.4542 213.571 51.459 213.351 51.4639C210.865 51.3988 208.559 50.7478 206.209 50.0031C205.914 49.9113 205.618 49.8197 205.322 49.7283C204.156 49.3664 202.994 48.9994 201.842 48.5934C200.239 48.0901 198.754 48.617 197.173 49.0357C195.884 49.3676 194.585 49.6035 193.273 49.8239C193.072 49.858 192.872 49.8921 192.666 49.9273C187.225 50.8177 182.039 50.5903 176.862 48.6154C175.442 48.0925 173.951 47.8046 172.523 48.4542C171.888 48.8142 171.352 49.2522 170.795 49.7223C169.451 50.8123 167.976 51.6426 166.48 52.5027C164.973 53.386 163.645 54.3748 162.327 55.5199C162.183 55.6429 162.039 55.7658 161.891 55.8925C161.512 56.2183 161.135 56.5468 160.759 56.8767C160.496 57.1072 160.234 57.3376 159.971 57.5679C159.849 57.6751 159.727 57.7823 159.601 57.8927C159.328 58.1294 159.052 58.3614 158.774 58.5919C156.282 60.6707 155.177 62.6759 154.87 65.8624C154.845 66.1069 154.819 66.3515 154.793 66.6034C154.654 67.9557 154.537 69.3087 154.431 70.6638C154.416 70.8535 154.401 71.0431 154.386 71.2385C154.364 71.5223 154.364 71.5223 154.342 71.8119C154.22 73.2385 153.995 74.6311 153.736 76.0385C153.637 76.6125 153.539 77.1867 153.442 77.7609C153.367 78.1791 153.275 78.5942 153.179 79.0082C153.071 79.7184 153.051 80.0558 153.354 80.7106C154.224 81.5988 155.303 82.2309 156.356 82.8768C157.031 83.3005 157.67 83.7701 158.312 84.2434C159.151 84.8517 160.003 85.4337 160.874 85.997C163.075 87.4644 165.092 89.1716 166.966 91.0403C167.083 91.1563 167.199 91.2724 167.319 91.392C167.998 92.0855 168.545 92.7869 169.056 93.6131C169.06 93.3003 169.06 93.3003 169.065 92.9811C169.14 90.3421 169.66 87.8588 170.688 85.421C170.931 85.4448 171.175 85.4685 171.426 85.493C173.266 85.6516 173.266 85.6516 174.953 85.0514C175.432 84.5183 175.813 83.9809 176.194 83.373C176.35 83.1446 176.507 82.9169 176.664 82.6898C177.063 82.1051 177.449 81.5149 177.825 80.9154C180.977 81.219 180.977 81.219 181.749 81.981C181.993 82.4424 182.178 82.8686 182.311 83.373C184.154 83.224 185.984 82.9965 187.817 82.7586C187.407 83.635 186.885 84.4423 186.374 85.2618C185.453 86.6663 185.453 86.6663 185.37 88.2882C187.09 89.9219 189.729 89.8034 191.934 89.7603C192.209 89.7572 192.484 89.7544 192.758 89.7519C193.423 89.7447 194.087 89.7346 194.751 89.7219C194.751 89.857 194.751 89.9922 194.751 90.1315C194.413 90.4068 194.073 90.6796 193.731 90.9507C193.341 91.3359 193.341 91.3359 193.12 91.7699C193.198 92.5425 193.566 92.9066 194.103 93.4395C194.263 93.5986 194.422 93.7576 194.587 93.9215C194.754 94.0858 194.922 94.2502 195.095 94.4195C195.259 94.5831 195.423 94.7466 195.592 94.9151C196.283 95.6 196.973 96.2732 197.725 96.8907C197.887 97.0256 198.05 97.1605 198.218 97.2995C198.218 97.3671 198.218 97.4347 198.218 97.5043C197.545 97.5043 196.872 97.5043 196.179 97.5043C196.179 98.5181 196.179 99.5319 196.179 100.576C193.083 100.576 189.987 100.576 186.798 100.576C187.493 101.857 188.177 103.106 188.939 104.34C191.454 108.503 191.454 108.503 191.284 110.407C191.218 110.591 191.151 110.776 191.083 110.966C190.83 111.786 190.824 112.499 190.838 113.351C190.838 113.498 190.838 113.644 190.839 113.796C190.847 114.797 190.941 115.764 191.08 116.756C189.576 116.512 188.219 116.063 186.792 115.546C185.719 115.178 184.846 115.068 183.713 115.079C182.456 115.045 182.456 115.045 181.81 114.453C181.399 113.871 181.042 113.273 180.68 112.66C179.928 111.77 179.072 110.931 178.029 110.407C176.928 110.367 176.265 110.725 175.481 111.455C174.95 112.121 174.755 112.864 174.562 113.684C174.526 113.809 174.49 113.934 174.453 114.063C174.323 114.668 174.287 115.268 174.244 115.885C174.226 116.125 174.209 116.365 174.192 116.612C174.179 116.794 174.167 116.977 174.154 117.165C173.658 117.406 173.161 117.644 172.663 117.882C172.522 117.951 172.382 118.019 172.237 118.089C171.165 118.599 171.165 118.599 170.484 118.599C170.084 117.86 169.685 117.12 169.286 116.38C169.151 116.129 169.015 115.878 168.879 115.626C168.683 115.264 168.488 114.902 168.293 114.539C168.117 114.212 168.117 114.212 167.937 113.879C167.466 112.954 167.168 112.257 167.181 111.209C167.183 110.923 167.183 110.923 167.185 110.631C167.188 110.435 167.192 110.238 167.195 110.036C167.197 109.835 167.199 109.635 167.201 109.428C167.206 108.935 167.212 108.442 167.221 107.949C166.968 108.008 166.714 108.068 166.454 108.128C166.119 108.205 165.784 108.282 165.449 108.359C165.199 108.417 165.199 108.417 164.945 108.477C164.127 108.663 163.375 108.824 162.53 108.768C161.878 103.354 161.878 103.354 163.123 101.392C163.412 100.944 163.412 100.944 163.346 100.167C163.084 99.8198 163.084 99.8198 162.734 99.5268C162.39 99.218 162.39 99.218 162.123 98.938C162.123 98.8028 162.123 98.6676 162.123 98.5284C162.609 98.1836 163.094 97.8663 163.601 97.5555C163.748 97.4644 163.895 97.3732 164.046 97.2792C165.274 96.5271 166.528 95.8617 167.833 95.2515C167.245 94.1242 166.565 93.2498 165.691 92.3331C165.565 92.1993 165.438 92.0655 165.308 91.9276C161.637 88.0802 157.256 84.9258 152.742 82.1442C152.723 82.2675 152.705 82.3908 152.685 82.5179C152.133 85.9821 150.338 89.2426 148.867 92.3843C148.728 92.6814 148.728 92.6814 148.586 92.9846C148.071 94.083 147.553 95.1799 147.032 96.2755C147.237 96.2441 147.443 96.2127 147.655 96.1803C148.886 96.0126 150.081 95.8617 151.314 96.0707C151.726 96.4295 151.882 96.7459 152.107 97.2419C152.366 97.7754 152.668 98.1105 153.086 98.5284C153.292 98.7363 153.292 98.7363 153.503 98.9484C153.958 99.3673 153.958 99.3673 154.524 99.6636C155.187 100.06 155.571 100.339 156.005 100.986C156.135 101.882 156.06 102.776 156.012 103.677C155.941 105.353 156.315 106.275 157.432 107.54C157.74 107.91 158.046 108.281 158.35 108.653C158.491 108.814 158.632 108.974 158.777 109.139C159.064 109.588 159.064 109.588 159.012 109.98C158.848 110.439 158.637 110.747 158.348 111.136C157.692 112.158 157.682 113.11 157.674 114.298C157.655 115.312 157.655 115.312 157.636 116.346C155.685 116.346 153.733 116.346 151.722 116.346C151.805 127.526 151.805 127.526 156.413 137.236C156.484 137.145 156.556 137.055 156.63 136.961C159.314 133.58 161.529 130.944 165.997 130.273C166.828 130.218 167.611 130.231 168.444 130.273C168.31 131.354 168.175 132.435 168.036 133.549C169.986 133.336 171.856 133.053 173.758 132.573C175.07 132.255 175.07 132.255 175.786 132.525C175.973 132.811 176.159 133.096 176.339 133.385C177.579 135.13 179.447 135.977 181.322 136.853C181.861 137.107 182.392 137.376 182.923 137.646C181.555 139.503 179.173 140.725 176.946 141.235C176.55 141.294 176.55 141.294 175.99 141.332C175.99 141.94 175.99 142.549 175.99 143.175C176.117 143.188 176.244 143.201 176.374 143.214C179.631 143.648 182.766 144.979 185.778 146.247C185.778 146.45 185.778 146.653 185.778 146.862C184.903 147.267 184.029 147.673 183.127 148.09C183.257 150.759 183.553 152.559 185.06 154.778C185.37 155.259 185.37 155.259 185.574 155.873C184.797 155.977 184.019 156.079 183.242 156.18C183.024 156.209 182.806 156.239 182.581 156.269C181.323 156.431 180.113 156.519 178.845 156.487C178.71 157.163 178.575 157.839 178.437 158.535C177.608 158.369 177.206 158.256 176.51 157.861C176.339 157.766 176.167 157.671 175.991 157.574C175.81 157.473 175.628 157.372 175.442 157.268C172.407 155.565 172.407 155.565 169.056 154.849C169.121 154.99 169.186 155.131 169.252 155.277C169.551 155.931 169.845 156.587 170.139 157.243C170.241 157.464 170.343 157.686 170.448 157.915C171.803 160.953 172.161 163.846 172.115 167.137C171.928 167.201 171.742 167.266 171.549 167.332C171.307 167.42 171.065 167.508 170.815 167.598C170.574 167.683 170.332 167.769 170.084 167.857C169.389 168.198 169.315 168.282 169.056 168.98C168.983 169.423 168.927 169.868 168.882 170.315C168.856 170.571 168.83 170.827 168.803 171.091C168.764 171.491 168.764 171.491 168.725 171.899C168.697 172.171 168.67 172.444 168.642 172.716C168.575 173.382 168.509 174.048 168.444 174.715C167.876 174.441 167.352 174.137 166.826 173.787C166.603 173.639 166.603 173.639 166.374 173.488C166.064 173.282 165.754 173.076 165.444 172.869C165.02 172.59 164.593 172.32 164.162 172.052C163.988 171.941 163.813 171.83 163.634 171.715C163.081 171.582 163.081 171.582 162.44 172.044C162.187 172.235 161.937 172.43 161.689 172.628C160.338 173.674 160.338 173.674 159.675 173.896C159.675 173.709 159.675 173.709 159.674 173.518C159.572 171.207 158.73 168.993 157.438 167.09C156.943 166.234 156.863 165.224 156.742 164.257C156.568 162.93 156.568 162.93 155.954 161.761C155.265 161.321 154.97 161.238 154.169 161.403C151.756 162.983 150.283 165.959 149.373 168.631C148.664 170.702 148.664 170.702 148.055 171.063C147.605 171.143 147.605 171.143 147.132 171.175C145.332 171.382 143.787 172.887 142.546 174.1C141.836 173.625 141.839 173.529 141.678 172.732C141.612 172.447 141.612 172.447 141.545 172.156C141.456 171.756 141.373 171.355 141.294 170.953C141.249 170.762 141.203 170.572 141.155 170.376C141.119 170.202 141.082 170.028 141.044 169.848C140.591 169.13 140.591 169.13 138.671 168.775C138.469 167.086 138.267 165.396 138.059 163.655C136.78 163.588 135.502 163.52 134.184 163.451C134.642 162.302 134.642 162.302 135.11 161.711C135.211 161.581 135.312 161.451 135.416 161.317C135.523 161.18 135.629 161.044 135.739 160.903C138.303 157.636 138.303 157.636 139.359 153.774C139.361 153.604 139.362 153.434 139.364 153.259C139.262 152.682 139.136 152.535 138.671 152.186C138.098 152.102 138.098 152.102 137.451 152.126C137.214 152.128 136.977 152.13 136.732 152.132C136.361 152.14 136.361 152.14 135.982 152.148C135.606 152.152 135.606 152.152 135.224 152.156C134.605 152.164 133.987 152.174 133.369 152.186C133.573 150.665 133.573 150.665 133.777 149.934C133.33 149.781 132.882 149.63 132.434 149.482C132.051 149.356 131.671 149.223 131.291 149.089C130.094 148.813 128.883 148.77 127.659 148.705C127.659 148.57 127.659 148.435 127.659 148.295C127.945 148.117 128.24 147.953 128.538 147.796C130.821 146.451 132.33 144.37 133.852 142.254C134.947 140.779 134.947 140.779 135.985 140.532C136.285 140.489 136.586 140.449 136.887 140.41C138.547 140.158 140.001 139.856 141.118 138.465C141.659 136.834 141.228 135.175 140.844 133.55C140.71 132.935 140.71 132.935 140.71 132.321C141.181 132.321 141.652 132.321 142.138 132.321C142.138 132.456 142.138 132.591 142.138 132.73C142.353 132.736 142.568 132.741 142.79 132.746C146.3 132.867 149.687 133.436 152.946 134.778C152.896 134.549 152.847 134.319 152.796 134.082C152.327 131.81 151.989 129.531 151.722 127.226C151.706 127.082 151.689 126.938 151.672 126.789C151.462 124.973 151.278 123.154 151.11 121.333C151.076 120.968 151.041 120.603 151.007 120.237C150.94 119.532 150.878 118.827 150.819 118.121C150.789 117.797 150.759 117.473 150.728 117.149C150.717 117.003 150.706 116.857 150.695 116.706C150.579 115.541 150.171 114.726 149.291 113.954C149.168 113.873 149.045 113.793 148.918 113.709C148.7 113.566 148.481 113.422 148.255 113.274C147.457 115.775 147.207 118.24 147.032 120.852C146.82 120.823 146.608 120.795 146.39 120.765C144.837 120.586 144.837 120.586 143.414 121.093C142.737 121.749 142.223 122.509 141.73 123.309C141.069 123.088 140.989 123.003 140.612 122.457C140.477 122.264 140.477 122.264 140.339 122.067C140.201 121.865 140.201 121.865 140.06 121.658C139.966 121.522 139.871 121.387 139.774 121.247C139.541 120.911 139.31 120.574 139.079 120.237C138.251 120.372 137.541 120.636 136.772 120.967C136.554 121.06 136.336 121.153 136.111 121.249C135.864 121.357 135.864 121.357 135.612 121.466C135.696 120.83 135.78 120.2 135.913 119.573C136.304 117.694 136.353 115.8 136.428 113.889C136.293 113.889 136.158 113.889 136.02 113.889C135.966 114.006 135.912 114.123 135.856 114.244C135.6 114.73 135.309 115.135 134.975 115.569C134.847 115.736 134.72 115.903 134.588 116.076C134.326 116.418 134.063 116.759 133.8 117.1C132.908 118.273 132.117 119.483 131.348 120.738C130.316 122.416 129.219 124.048 128.12 125.682C127.76 126.216 127.402 126.751 127.045 127.287C125.196 130.044 123.229 132.654 121.1 135.201C120.581 135.828 120.082 136.445 119.647 137.134C119.532 137.303 119.416 137.472 119.298 137.646C119.163 137.646 119.029 137.646 118.89 137.646C118.833 137.764 118.777 137.883 118.718 138.005C118.49 138.449 118.239 138.857 117.964 139.274C112.846 147.14 111.091 156.603 109.268 165.697C109.13 166.386 108.986 167.073 108.84 167.76C108.029 171.665 107.736 175.655 107.47 179.63C107.741 179.627 107.741 179.627 108.018 179.623C108.698 179.616 109.379 179.611 110.059 179.607C110.352 179.605 110.644 179.603 110.937 179.599C112.608 179.579 114.203 179.603 115.831 180.04C115.817 180.284 115.817 180.284 115.802 180.534C115.795 180.751 115.788 180.968 115.78 181.192C115.771 181.405 115.761 181.619 115.751 181.84C115.883 182.923 116.389 183.517 117.22 184.192C117.435 184.334 117.649 184.476 117.87 184.622C117.986 184.699 118.101 184.777 118.22 184.857C118.578 185.096 118.937 185.333 119.298 185.569C119.74 185.863 120.182 186.158 120.623 186.452C120.815 186.578 121.006 186.704 121.203 186.834C122.817 187.947 122.817 187.947 123.134 188.859C123.886 190.707 125.199 192.209 126.639 193.557C126.844 193.761 127.048 193.965 127.251 194.171C126.064 194.1 124.939 193.961 123.784 193.672C121.451 193.135 119.029 193.086 116.647 192.942C118.579 196.208 120.608 199.342 123.096 202.213C123.543 202.729 123.97 203.262 124.396 203.797C123.05 203.797 121.704 203.797 120.317 203.797C120.452 204.27 120.587 204.743 120.725 205.23C120.84 206.233 120.824 207.05 120.419 207.982C119.744 209.594 120.134 211.516 120.317 213.218C119.571 212.797 118.967 212.331 118.342 211.745C117.655 211.11 116.957 210.52 116.213 209.953C114.952 208.951 114.056 207.735 113.129 206.425C111.997 204.77 111.997 204.77 110.325 203.797C109.554 203.684 108.843 203.615 108.082 203.797C107.153 204.527 106.745 205.344 106.336 206.421C106.275 206.578 106.214 206.736 106.152 206.899C105.394 209.005 105.121 211.213 104.819 213.422C104.581 215.1 104.286 216.712 103.799 218.338C103.665 218.338 103.53 218.338 103.391 218.338C103.311 218.131 103.232 217.924 103.149 217.71C102.698 216.657 102.015 215.36 100.944 214.856C100.126 215.097 99.6732 215.468 99.0834 216.072C97.9691 217.122 96.7193 217.827 95.3748 218.546C94.3403 219.113 93.6894 219.635 92.9911 220.59C92.8565 220.726 92.7219 220.861 92.5832 221C92.5609 220.814 92.5385 220.629 92.5155 220.438C92.1822 217.614 92.1822 217.614 90.6865 215.309C90.3084 214.815 90.0853 214.301 89.8371 213.732C89.1617 212.229 88.5201 211.498 86.9752 210.875C86.4682 210.683 85.9635 210.512 85.4457 210.35C85.7232 209.615 86.0495 208.938 86.4303 208.252C86.5424 208.048 86.6546 207.844 86.7701 207.634C86.8882 207.42 87.0064 207.205 87.1281 206.984C89.153 203.252 90.8031 199.508 90.9518 195.195C90.783 195.249 90.6141 195.303 90.4402 195.358C88.7347 195.877 87.0671 196.213 85.2925 196.426C84.882 196.475 84.472 196.528 84.0621 196.582C82.6079 196.764 81.2008 196.873 79.7358 196.833C79.8031 196.158 79.8704 195.482 79.9397 194.785C79.7157 194.777 79.7157 194.777 79.4872 194.769C77.0238 194.64 74.6161 194.193 72.1904 193.761C72.7505 193.308 73.314 192.86 73.884 192.42C77.0622 190.065 77.0622 190.065 79.124 186.798C78.981 186.747 78.838 186.697 78.6906 186.644C78.0238 186.353 77.4638 186.005 76.8808 185.569C76.8808 185.434 76.8808 185.299 76.8808 185.16C77.0235 185.115 77.1662 185.071 77.3132 185.025C77.9725 184.82 78.6311 184.612 79.2897 184.404C79.514 184.335 79.7384 184.265 79.9696 184.194C82.0339 183.539 83.9368 182.663 85.8544 181.661C86.2614 181.473 86.2614 181.473 86.6693 181.473C87.1437 180.55 87.2963 179.621 87.0772 178.606C86.1966 177.186 84.0604 176.586 82.5907 175.944C82.2875 175.809 81.9842 175.675 81.681 175.541C81.1127 175.29 80.5437 175.041 79.9739 174.793C79.6194 174.638 79.266 174.479 78.92 174.305C78.92 174.17 78.92 174.035 78.92 173.896C79.7323 173.705 80.5014 173.657 81.3345 173.64C81.6017 173.634 81.8689 173.627 82.1443 173.62C82.5653 173.61 82.9863 173.601 83.4074 173.593C83.8168 173.585 84.2262 173.574 84.6356 173.564C85.0007 173.556 85.0007 173.556 85.3732 173.548C86.0689 173.485 86.628 173.317 87.2811 173.076C89.252 172.747 90.9391 173.326 92.7784 173.982C93.052 174.078 93.052 174.078 93.3312 174.176C93.4916 174.235 93.652 174.294 93.8173 174.355C94.6777 174.577 95.574 174.626 96.4578 174.715C96.3905 172.958 96.3232 171.2 96.2539 169.39C97.8618 170.313 97.8618 170.313 98.4485 170.792C98.5786 170.898 98.7088 171.004 98.8428 171.113C98.9769 171.225 99.111 171.336 99.2491 171.451C99.3908 171.567 99.5325 171.684 99.6785 171.804C100.771 172.71 101.821 173.655 102.858 174.625C103.954 175.651 105.094 176.621 106.246 177.582C106.719 175.504 106.959 173.431 107.151 171.31C107.618 166.229 108.338 161.306 109.549 156.349C110.24 153.477 110.685 150.624 110.937 147.681C107.009 148.832 103.218 150.354 99.4576 151.967C98.8892 152.193 98.3193 152.374 97.7324 152.545C93.1973 153.914 88.8662 155.892 84.5224 157.766C83.5373 158.19 82.5487 158.602 81.5513 158.996C81.0357 159.2 80.5261 159.418 80.0162 159.636C79.5832 159.816 79.1498 159.995 78.7161 160.174C78.4869 160.269 78.2577 160.364 78.0215 160.462C69.8258 163.713 60.5553 164.462 51.7977 164.27C51.8632 164.371 51.9288 164.471 51.9964 164.575C55.5111 169.998 58.6018 176.167 58.54 182.792C58.5391 182.98 58.5382 183.169 58.5372 183.364C58.5348 183.826 58.5315 184.288 58.5273 184.75C57.8323 184.352 57.2433 183.92 56.6409 183.393C55.7632 182.696 54.9674 182.367 53.8369 182.497C53.0812 183.003 53.0856 183.222 52.8818 184.089C52.8235 184.336 52.7652 184.582 52.7051 184.836C52.6446 185.106 52.5842 185.376 52.5241 185.646C52.4931 185.782 52.462 185.918 52.4299 186.059C51.8236 188.722 51.4101 191.4 51.0691 194.11C50.9165 195.293 50.7446 196.473 50.5741 197.653C49.611 197.439 48.7931 196.963 47.9322 196.496C47.5966 196.32 47.2503 196.166 46.9034 196.014C46.1518 196.266 46.0872 196.478 45.6798 197.141C45.1142 197.99 44.5381 198.57 43.7298 199.189C42.6285 200.044 42.0295 200.929 41.3973 202.158C41.1954 202.501 40.9919 202.842 40.7856 203.182C40.4268 202.642 40.2377 202.222 40.0208 201.621C39.3352 199.767 39.3352 199.767 37.9414 198.501C37.7943 198.441 37.6472 198.381 37.4956 198.319C37.0615 198.114 37.0615 198.114 36.707 197.857C36.5373 197.227 36.4819 196.815 36.4776 196.181C36.3993 194.791 36.1811 193.584 35.7001 192.277C35.6484 192.135 35.5967 191.994 35.5435 191.848C35.3023 191.214 35.0346 190.608 34.7307 190.001C34.4638 189.46 34.4638 189.46 34.4638 189.051C33.1963 189.253 31.9404 189.468 30.6914 189.765C30.1411 189.878 29.5942 189.943 29.0366 190.012C27.1942 190.292 25.4674 190.902 23.7066 191.496C23.3708 191.607 23.0349 191.719 22.6989 191.83C22.0802 192.035 21.4618 192.241 20.8438 192.448C20.7043 192.495 20.5647 192.542 20.4208 192.59C20.1117 192.695 19.8029 192.8 19.4942 192.905C19.3325 192.96 19.1708 193.015 19.0041 193.072C18.7847 193.147 18.7847 193.147 18.5609 193.224C18.0228 193.391 17.484 193.485 16.926 193.557C16.7547 193.16 16.5851 192.763 16.4162 192.366C16.3216 192.145 16.2269 191.924 16.1294 191.697C15.9064 191.099 15.9064 191.099 15.9064 190.484C15.7198 190.51 15.7198 190.51 15.5294 190.535C14.9631 190.608 14.3961 190.674 13.8289 190.74C13.6331 190.767 13.4374 190.793 13.2358 190.82C11.7619 190.984 11.7619 190.984 11.0551 190.522C10.8319 190.301 10.8319 190.301 10.6042 190.075C9.09428 189.449 7.54206 189.125 5.91391 189.051C6.18695 188.271 6.5334 187.721 7.04825 187.08C9.39293 183.841 10.0992 180.964 9.99246 176.968C10.1341 176.931 10.2757 176.894 10.4216 176.855C15.7371 175.573 15.7371 175.573 19.8352 172.108C20.0745 171.364 20.0271 170.627 20.0104 169.851C20.0086 169.688 20.0067 169.526 20.0048 169.359C20 168.959 19.9927 168.56 19.9849 168.161C19.7294 168.133 19.4739 168.104 19.2106 168.075C19.0428 168.056 18.8749 168.036 18.702 168.017C18.333 167.976 17.9636 167.939 17.5939 167.905C14.7961 167.636 14.7961 167.636 13.6632 167.137C12.991 166.293 12.8288 165.521 12.6435 164.475C12.0799 163.909 11.4268 163.763 10.6807 163.54C10.5281 163.494 10.3756 163.449 10.2183 163.402C8.65616 162.963 7.12119 162.86 5.50605 162.836C5.50079 162.636 5.49553 162.435 5.49012 162.229C5.47855 161.961 5.46698 161.692 5.45507 161.415C5.4456 161.152 5.43614 160.888 5.42639 160.616C5.25661 158.94 4.33032 157.593 3.32657 156.295C3.21989 156.155 3.11322 156.014 3.0033 155.869C2.22716 154.858 1.41083 153.899 0.539293 152.969C0.203928 152.596 0.203928 152.596 0 152.186C0.184802 152.179 0.369603 152.171 0.560005 152.163C2.49999 152.058 4.00171 151.933 5.54429 150.702C6.76708 149.781 8.1657 149.424 9.61662 149.009C10.6903 148.697 11.5821 148.416 12.4396 147.681C12.664 147.275 12.664 147.275 12.7072 146.81C12.7463 146.547 12.7463 146.547 12.7861 146.278C12.9103 144.972 12.9899 143.666 13.0514 142.356C13.6793 142.483 14.1288 142.691 14.6653 143.039C14.8952 143.187 14.8952 143.187 15.1298 143.338C15.2936 143.445 15.4573 143.552 15.626 143.662C15.9761 143.886 16.3263 144.111 16.6767 144.335C16.8543 144.449 17.032 144.563 17.2151 144.681C20.8079 146.983 24.2575 148.884 28.346 150.138C27.817 147.825 26.5806 146.015 25.2949 144.051C24.6512 143.063 24.078 142.059 23.5369 141.01C23.1262 140.304 22.6121 139.702 22.0696 139.094C21.8203 138.67 21.8203 138.67 21.881 138.193C22.0232 137.649 22.2155 137.166 22.4352 136.65C22.9677 135.209 22.9762 133.804 22.9929 132.282C22.9986 132.006 23.0047 131.731 23.0112 131.455C23.0255 130.788 23.0363 130.121 23.0438 129.453C23.8814 130.151 24.6629 130.851 25.3763 131.681C25.5148 131.841 25.6533 132.001 25.7961 132.165C25.9479 132.344 25.9479 132.344 26.1028 132.525C26.2794 132.466 26.4561 132.407 26.6381 132.346C26.8652 132.27 27.0923 132.194 27.3263 132.116C27.5198 132.015 27.7133 131.913 27.9126 131.809C28.5499 131.706 28.5499 131.706 28.9609 131.94C29.2428 132.156 29.5189 132.38 29.7878 132.612C30.5632 133.249 31.2105 133.455 32.2301 133.419C32.9583 133.283 33.2169 132.906 33.6481 132.321C34.3966 131.018 34.9513 129.628 35.4834 128.225C36.0482 128.792 36.0823 129.423 36.2354 130.183C37.1063 134.156 39.1431 138.771 42.6209 141.127C42.6924 140.87 42.7639 140.612 42.8376 140.346C43.5452 138.253 45.0006 136.562 46.3351 134.839C47.1238 133.815 47.8359 132.778 48.4998 131.667C48.5786 131.545 48.6575 131.423 48.7387 131.297C48.806 131.297 48.8733 131.297 48.9427 131.297C48.9671 131.415 48.9916 131.534 49.0168 131.656C49.6015 135.21 49.6015 135.21 51.5165 138.12C52.0906 138.824 51.9826 139.89 52.0581 140.766C52.231 141.67 52.5733 142.316 53.2251 142.97C53.2571 143.29 53.2763 143.611 53.2897 143.931C53.2982 144.125 53.3068 144.318 53.3156 144.517C53.3276 144.822 53.3276 144.822 53.3399 145.134C53.3487 145.338 53.3575 145.542 53.3665 145.752C53.3882 146.259 53.4091 146.765 53.4291 147.271C53.5371 147.234 53.6451 147.197 53.7563 147.158C54.246 146.99 54.7361 146.824 55.2262 146.657C55.3961 146.598 55.5661 146.54 55.7412 146.479C55.9048 146.424 56.0685 146.368 56.2371 146.311C56.3876 146.26 56.5382 146.208 56.6934 146.155C57.0998 146.042 57.0998 146.042 57.7116 146.042C57.1508 147.865 56.4112 149.612 55.6723 151.367C55.5388 151.691 55.5388 151.691 55.4026 152.022C55.0204 152.915 54.5761 153.775 54.1301 154.638C54.0419 154.81 53.9537 154.981 53.8628 155.159C53.4883 155.888 53.1126 156.617 52.737 157.346C52.4618 157.881 52.187 158.416 51.9124 158.951C51.8282 159.114 51.7441 159.277 51.6574 159.445C51.1892 160.357 50.7606 161.273 50.3702 162.222C55.8443 162.082 61.1136 161.692 66.4805 160.583C66.8442 160.512 67.208 160.442 67.5718 160.371C71.1489 159.653 74.6068 158.442 78.0279 157.191C78.4047 157.054 78.4047 157.054 78.7892 156.914C80.2526 156.371 81.6549 155.771 83.0539 155.079C83.6104 154.849 83.6104 154.849 84.4261 154.849C84.4261 154.714 84.4261 154.579 84.4261 154.439C84.2915 154.393 84.1569 154.346 84.0182 154.299C83.3455 154.003 82.7911 153.623 82.1956 153.195C81.7784 152.973 81.7784 152.973 81.2915 153.003C80.5318 153.297 80.0623 153.828 79.5191 154.414C78.2662 155.736 77.3908 156.373 75.6062 156.82C75.355 156.887 75.355 156.887 75.0988 156.955C74.0628 157.222 73.0504 157.401 71.9865 157.511C71.8483 156.932 71.7128 156.351 71.5786 155.771C71.5203 155.527 71.5203 155.527 71.4608 155.279C71.0747 153.59 71.0459 152.308 71.6806 150.65C71.8226 150.273 71.8226 150.273 71.9674 149.889C72.041 149.701 72.1146 149.513 72.1904 149.319C68.2077 149.262 68.2077 149.262 64.2373 149.524C64.2562 149.363 64.2751 149.203 64.2946 149.037C64.417 147.788 64.417 147.788 63.9457 146.685C63.6687 146.469 63.387 146.258 63.1021 146.053C62.4496 145.501 62.0054 144.863 61.5225 144.161C61.4368 144.036 61.3511 143.912 61.2629 143.784C61.0304 143.445 60.7985 143.105 60.5665 142.766C60.4417 142.623 60.3168 142.48 60.1882 142.333C59.9548 141.946 59.9548 141.946 59.938 141.449C60.4315 140.272 61.7407 139.619 62.8449 139.086C64.6117 138.437 66.5863 138.437 68.4468 138.318C69.5022 138.228 70.5384 138.047 71.5786 137.85C69.9214 135.189 67.6723 133.079 65.4608 130.887C65.7143 130.59 65.9678 130.292 66.2213 129.995C67.4025 128.462 67.1518 126.569 67.0922 124.743C67.333 124.849 67.5738 124.955 67.8219 125.064C68.1394 125.2 68.457 125.336 68.7746 125.473C68.9332 125.543 69.0917 125.613 69.255 125.685C69.4088 125.75 69.5626 125.816 69.721 125.883C69.9324 125.975 69.9324 125.975 70.1482 126.068C70.6386 126.198 70.9025 126.146 71.3747 125.972C71.7468 125.662 72.0788 125.329 72.4191 124.985C72.8022 124.743 72.8022 124.743 73.2738 124.74C74.0311 125.027 74.567 125.513 75.1601 126.049C75.2841 126.158 75.408 126.267 75.5357 126.38C76.5679 127.295 77.5825 128.229 78.5895 129.172C79.09 129.627 79.6162 130.054 80.1436 130.477C80.1436 128.382 80.1436 126.287 80.1436 124.129C80.4128 123.993 80.682 123.858 80.9593 123.719C80.9593 123.584 80.9593 123.449 80.9593 123.309C81.2401 123.084 81.5213 122.859 81.8037 122.635C82.4426 122.046 82.9401 121.343 83.4606 120.649C83.5773 120.513 83.6941 120.377 83.8143 120.237C83.9489 120.237 84.0835 120.237 84.2222 120.237C84.5169 120.538 84.5169 120.538 84.8594 120.954C85.6214 121.856 86.4388 122.688 87.2811 123.514C88.111 123.262 88.7867 122.943 89.5243 122.49C89.6589 122.49 89.7935 122.49 89.9321 122.49C89.722 125.094 89.4987 127.688 89.1164 130.273C89.7453 129.808 90.374 129.343 91.0028 128.877C91.1807 128.746 91.3587 128.614 91.5421 128.479C91.7142 128.351 91.8864 128.224 92.0638 128.093C92.2219 127.976 92.3799 127.859 92.5428 127.738C92.84 127.518 93.1322 127.29 93.4186 127.055C93.8068 126.791 93.8068 126.791 94.4186 126.791C94.4288 126.915 94.439 127.038 94.4495 127.166C94.4803 127.533 94.5117 127.901 94.5435 128.268C94.5794 128.685 94.6137 129.102 94.6465 129.52C94.7375 130.601 94.8857 131.562 95.2088 132.602C95.3378 133.235 95.3201 133.596 95.0116 134.166C94.4125 135.073 93.7353 135.908 93.0182 136.723C92.7463 137.021 92.7463 137.021 92.7871 137.441C93.4601 137.779 94.1331 138.117 94.8264 138.465C93.6728 140.782 91.8297 142.185 89.4335 143.006C87.6324 143.585 87.6324 143.585 87.0772 143.585C87.4204 144.684 87.7802 145.251 88.7898 145.813C89.9459 146.313 91.1545 146.592 92.3793 146.862C92.5132 146.893 92.6472 146.924 92.7852 146.956C94.8409 147.424 96.8764 147.543 98.9814 147.566C99.3376 147.572 99.3376 147.572 99.7009 147.579C104.986 147.566 108.898 143.548 112.441 140.052C113.198 139.279 113.913 138.476 114.607 137.646C114.733 137.497 114.858 137.348 114.987 137.195C116.718 135.088 118.139 132.782 119.527 130.439C121.654 126.853 124.08 123.513 126.652 120.237C128.102 118.39 129.418 116.459 130.718 114.503C129.641 114.503 128.564 114.503 127.455 114.503C127.417 113.595 127.385 112.69 127.365 111.782C127.357 111.473 127.346 111.165 127.332 110.857C127.217 108.293 127.217 108.293 127.802 107.448C128.235 107.074 128.235 107.074 128.667 106.792C129.801 106.044 130.727 104.51 131.022 103.204C131.146 102.016 130.837 101.358 130.131 100.41C129.878 100.097 129.623 99.7831 129.364 99.4744C128.876 98.8918 128.408 98.2945 127.939 97.6963C127.847 97.5841 127.756 97.4718 127.661 97.3561C127.409 97.0363 127.409 97.0363 127.047 96.4803C127.114 96.2776 127.182 96.0748 127.251 95.8659C127.768 95.6783 128.263 95.5291 128.793 95.3923C130.203 95.0053 131.563 94.5488 132.924 94.0161C134.003 93.5952 134.811 93.3817 135.969 93.3955C136.17 93.3973 136.371 93.3992 136.577 93.4011C136.806 93.4047 136.806 93.4047 137.039 93.4083C137.052 93.2652 137.064 93.1221 137.077 92.9747C137.094 92.7883 137.111 92.6019 137.129 92.4099C137.145 92.2246 137.162 92.0392 137.179 91.8483C137.243 91.3603 137.243 91.3603 137.447 90.9507C138.357 91.2591 139.069 91.7635 139.831 92.3331C140.971 93.17 142.131 93.937 143.361 94.6371C143.348 94.3389 143.348 94.3389 143.334 94.0347C143.336 93.1056 143.551 92.2647 143.795 91.3731C143.841 91.2017 143.888 91.0302 143.936 90.8536C144.08 90.3385 144.229 89.8252 144.381 89.3123C144.421 89.1735 144.462 89.0348 144.503 88.8919C145.154 86.7335 146.238 84.9034 147.387 82.9775C150.865 77.0952 152.017 70.7111 151.722 63.9168C151.711 63.6462 151.711 63.6462 151.699 63.3702C151.58 61.6181 150.834 60.4451 149.887 59.0015C149.777 58.8329 149.668 58.6642 149.555 58.4903C148.194 56.6786 145.771 56.3087 143.7 55.7138C142.449 55.3541 141.218 54.9475 139.986 54.5283C139.11 54.2309 138.233 53.9514 137.345 53.6895C135.374 53.0902 133.369 52.3687 131.533 51.4239C131.6 51.5751 131.666 51.7264 131.735 51.8823C132.028 52.976 131.992 54.0212 131.98 55.1487C131.978 55.3886 131.977 55.6286 131.976 55.8758C131.953 58.4896 131.854 61.1009 131.737 63.712C131.449 63.6536 131.16 63.5936 130.872 63.5328C130.631 63.4829 130.631 63.4829 130.386 63.432C129.758 63.2639 129.23 62.9831 128.659 62.6784C127.713 62.2033 126.666 61.8806 125.62 62.0736C123.739 63.1872 122.99 65.2019 122.382 67.2064C122.336 67.3862 122.291 67.566 122.244 67.7512C121.861 68.3572 121.428 68.468 120.765 68.6832C120.052 68.9205 119.394 69.261 118.724 69.6001C118.513 69.7067 118.513 69.7067 118.297 69.8155C116.878 70.5432 115.499 71.3356 114.266 72.3553C113.792 72.7233 113.792 72.7233 113.384 72.7233C113.379 72.491 113.373 72.2586 113.368 72.0193C113.388 69.6425 113.388 69.6425 112.364 67.6032C111.843 67.256 111.319 67.0012 110.733 66.784C111.085 64.9117 111.085 64.9117 111.37 64.0064C111.589 63.1408 111.585 62.3466 111.548 61.4592C110.34 60.7139 108.626 60.8284 107.275 61.1423C105.049 61.8122 102.942 62.9453 100.863 63.9719C100.536 64.1216 100.536 64.1216 100.332 64.1216C100.332 62.7699 100.332 61.4182 100.332 60.0256C99.9707 59.9664 99.609 59.9073 99.2364 59.8464C99.0145 59.8081 98.7926 59.7698 98.564 59.7304C98.138 59.6586 97.7111 59.5921 97.2831 59.5336C95.9362 59.3259 95.9362 59.3259 95.5274 58.7839C95.4068 57.9703 95.3019 57.159 95.2343 56.3391C95.0098 56.3015 95.0098 56.3015 94.7809 56.2632C94.2312 56.1381 93.812 55.9676 93.3121 55.7111C93.1498 55.6286 92.9874 55.5461 92.8202 55.4611C92.6537 55.3749 92.4871 55.2887 92.3156 55.1999C92.1451 55.1129 91.9746 55.0259 91.799 54.9363C91.38 54.7223 90.9617 54.5073 90.5439 54.2911C91.0376 53.7796 91.5435 53.403 92.1371 53.0111C93.6772 51.9453 93.6772 51.9453 94.5372 50.3383C94.6892 49.7369 94.8077 49.4232 95.2343 48.9662C95.9667 48.6804 96.7397 48.5736 97.5116 48.4439C100.557 47.9284 103.479 46.5866 106.042 44.8702C106.117 44.3241 106.117 44.3241 106.081 43.7182C106.072 43.4101 106.072 43.4101 106.064 43.0958C106.057 42.9379 106.05 42.78 106.042 42.6174C105.794 42.5667 105.546 42.516 105.29 42.4638C104.929 42.3802 104.568 42.2946 104.207 42.2078C103.991 42.1576 103.775 42.1075 103.552 42.0558C102.138 41.6818 101.292 41.2777 100.324 40.1782C98.9651 38.7211 97.0753 37.7811 95.2343 37.0877C95.3573 36.3363 95.677 35.9058 96.1519 35.3213C96.8549 34.4505 97.1417 33.9929 97.1269 32.8346C97.026 32.0288 96.6534 31.3779 96.2667 30.6749C95.4467 29.126 95.4467 29.126 95.2343 28.486C97.2982 28.6651 97.2982 28.6651 98.2804 28.806C99.3734 28.9376 100.462 29.059 101.556 28.8956C102.098 28.442 102.274 28.2585 102.576 27.6668C102.694 27.4459 102.694 27.4459 102.815 27.2204C103.018 26.8282 103.206 26.4288 103.391 26.0284C104.617 26.1476 105.655 26.6356 106.769 27.1292C106.974 27.2193 107.178 27.3093 107.389 27.4021C110.007 28.571 112.536 29.9143 115.015 31.3533C114.96 28.3165 114.238 25.3429 113.119 22.526C112.976 22.1372 112.976 22.1372 112.976 21.7276C113.716 21.66 114.456 21.5924 115.219 21.5228C115.271 21.2654 115.323 21.008 115.377 20.7428C115.629 19.6055 115.991 18.5151 116.366 17.4139C116.466 17.1187 116.466 17.1187 116.567 16.8175C116.729 16.3376 116.891 15.858 117.055 15.3787C117.789 15.7341 118.418 16.1677 119.081 16.6459C121.186 18.2815 121.186 18.2815 123.583 19.0707C124.218 18.7412 124.674 18.2353 125.161 17.7211C125.264 17.6146 125.367 17.5081 125.474 17.3983C125.728 17.1361 125.98 16.872 126.231 16.6075C126.687 17.2947 126.765 17.7302 126.907 18.5403C126.931 18.6774 126.955 18.8145 126.98 18.9558C127.037 19.2771 127.093 19.5985 127.149 19.92C127.269 20.5988 127.393 21.2768 127.517 21.9548C127.611 22.4721 127.705 22.9894 127.799 23.5068C127.845 23.7586 127.891 24.0105 127.939 24.2699C128.003 24.6284 128.003 24.6284 128.069 24.994C128.108 25.208 128.147 25.4221 128.187 25.6426C128.265 26.191 128.287 26.7043 128.271 27.2572C128.933 26.6336 129.505 25.9764 130.068 25.2604C131.26 23.7483 132.461 22.3035 133.981 21.1132C134.115 21.1132 134.25 21.1132 134.388 21.1132C134.418 21.2526 134.448 21.392 134.479 21.5356C135.083 24.1552 135.94 26.657 137.447 28.8956C137.887 29.5586 137.896 29.7619 137.761 30.519C137.541 31.3703 137.189 32.1706 136.848 32.9789C136.335 34.2031 135.898 35.3794 135.612 36.6781C135.762 36.6757 135.912 36.6734 136.067 36.6709C136.266 36.6691 136.465 36.6672 136.67 36.6653C136.964 36.6618 136.964 36.6618 137.265 36.6581C137.826 36.6771 138.329 36.7557 138.875 36.8829C138.395 39.628 137.476 41.9432 135.408 43.8462C135.272 43.9734 135.137 44.1007 134.997 44.2318C133.831 45.2283 131.483 46.9182 129.902 46.9182C130.42 47.9013 130.909 48.6199 131.737 49.3759C131.841 49.4828 131.944 49.5897 132.05 49.6999C134.526 52.1202 138.209 53.105 141.448 53.9973C142.39 54.26 143.309 54.5429 144.222 54.8935C148.186 56.4048 152.209 56.4128 156.209 54.9055C156.553 54.7086 156.895 54.5065 157.228 54.2911C157.363 54.2911 157.497 54.2911 157.636 54.2911C157.636 54.1559 157.636 54.0208 157.636 53.8815C159.294 52.114 161.489 50.753 163.454 49.3599C164.605 48.4615 165.458 47.3543 166.348 46.2062C167.069 45.4051 167.766 45.036 168.814 44.8318C168.975 44.7993 169.136 44.7669 169.302 44.7334C169.423 44.711 169.544 44.6885 169.668 44.6654C169.069 44.0312 168.437 43.5241 167.731 43.0142C165.584 41.4099 163.749 39.6437 162.123 37.4973C161.919 37.2364 161.919 37.2364 161.712 36.9701C160.524 35.3998 159.572 33.7069 158.656 31.9677C158.531 31.7347 158.531 31.7347 158.403 31.497C157.721 30.1884 157.24 28.8634 156.82 27.4492C156.75 27.2142 156.68 26.9792 156.608 26.7371C155.981 24.5152 155.625 22.2764 155.336 19.9883C154.968 16.558 154.968 16.558 153.269 13.6987C152.341 13.1193 151.279 13.1922 150.218 13.1771C149.906 13.168 149.906 13.168 149.587 13.1587C149.075 13.1443 148.563 13.1334 148.052 13.1259C148.052 12.9907 148.052 12.8555 148.052 12.7163C148.389 12.4377 148.74 12.1758 149.097 11.9227C149.301 11.7769 149.505 11.6312 149.715 11.4811C150.151 11.1778 150.589 10.8808 151.034 10.5915C151.537 10.3034 151.537 10.3034 151.722 9.84905C151.518 9.85143 151.314 9.8538 151.103 9.85625C150.83 9.85817 150.556 9.86004 150.282 9.86185C150.015 9.86423 149.747 9.8666 149.472 9.86905C148.701 9.84998 147.995 9.7701 147.236 9.64425C147.539 9.54287 147.539 9.54287 147.848 9.43945C147.848 9.23669 147.848 9.03394 147.848 8.82504C148.174 8.57449 148.174 8.57449 148.631 8.32983C148.879 8.19294 148.879 8.19294 149.132 8.05328C149.31 7.95737 149.487 7.86145 149.67 7.76263C151.662 6.6455 153.152 5.43858 154.629 3.69459C158.066 -0.158656 163.908 -0.786918 168.648 0.837757Z" fill="#006E90"/>
</svg>
