<svg width="240" height="214" viewBox="0 0 240 214" fill="none" xmlns="http://www.w3.org/2000/svg">
<path d="M24.3511 65.5068C26.2411 63.512 29.0424 62.9034 31.1181 61.1622C36.0963 56.564 40.1969 50.6811 41.4288 43.9022C42.2557 40.5212 41.2263 37.0219 39.5726 34.0804C37.7838 30.8854 36.2313 27.3691 33.3118 25.0024C34.0881 25.0024 34.8475 25.0701 35.6238 25.0363C36.7206 24.8503 37.615 23.9036 38.7963 24.0896C42.1545 24.191 44.4158 27.5213 47.8752 27.3522C52.094 27.758 55.5534 24.901 58.4729 22.2469C60.9704 19.9479 62.0504 16.6345 63.3836 13.6085C64.8348 9.09487 66.5561 4.64887 67.653 0.016905C67.9061 0.016905 68.4293 0 68.6993 0C69.3743 1.80883 68.9693 3.7529 69.1886 5.62935C69.9818 4.37839 70.7749 3.09361 71.8549 2.06241C71.6693 4.24315 71.0112 6.37317 70.1843 8.38486C71.3824 7.45509 72.5131 6.4577 73.7956 5.62935C74.2006 8.23272 72.1081 9.97393 71.0281 12.0701C72.8675 11.732 73.6437 9.78798 75.3312 9.14559C75.4494 11.0559 73.9812 12.4252 72.9181 13.8283C73.8125 13.5916 74.69 13.3549 75.5675 13.1352C75.2975 14.6228 74.3187 15.7892 73.2893 16.8373C74.015 16.8543 74.7237 16.905 75.4494 16.9557C74.9769 18.1221 73.8631 18.7983 72.8843 19.5083C73.4075 20.0831 74.42 20.5564 74.1162 21.5031C73.7956 22.3146 72.8 22.5681 72.2262 23.1767C71.8212 24.1065 74.015 24.191 73.3737 25.1546C72.4118 26.3548 72.3781 27.8425 72.5131 29.3301C71.4837 30.1923 70.8931 31.3587 70.6737 32.6773C69.2224 34.3171 67.3661 35.6188 65.1386 35.8385C65.628 38.2221 67.4842 40.031 69.2224 41.6031C72.1924 44.1896 76.3606 43.8684 80.0226 44.0543C80.8495 44.0205 81.7101 44.7813 81.5582 45.6434C81.4232 46.5563 80.4444 46.7761 79.7863 47.1987C80.2082 47.6044 80.5963 48.027 80.9845 48.4665C80.9507 48.7539 80.9001 49.3118 80.8663 49.5992C80.3094 49.7513 79.7694 49.9035 79.2126 50.0556C79.6513 51.1206 80.0057 52.2364 80.0394 53.4028C79.1282 53.7916 78.1325 53.7578 77.1706 53.6733C77.795 54.789 78.2507 56.0907 77.6263 57.3247C76.4113 57.4769 75.1962 57.4431 73.9981 57.2064C74.285 58.3391 74.4031 59.5393 73.6437 60.5367C72.4287 60.4353 71.1968 60.3 69.9649 60.3507C69.7624 60.8579 69.5768 61.3819 69.3743 61.906C68.9355 61.906 68.4968 61.906 68.058 61.906C66.3705 58.8969 66.5899 55.1102 64.3117 52.3885C63.0123 50.7825 61.4598 48.9568 59.2829 48.7201C58.8104 50.343 58.6416 52.0166 58.456 53.6902C58.2029 54.9242 56.7178 55.0426 55.7559 55.4652C55.5028 56.5302 55.5703 57.7136 55.0134 58.6771C54.3215 59.1505 53.3934 59.1167 52.7184 59.6407C52.1784 60.7226 52.4315 62.0581 51.8578 63.1063C50.8115 63.4105 49.9677 62.261 49.0733 61.8553C48.6177 63.3091 48.3477 64.7967 47.8921 66.2506C46.8289 65.3208 46.2383 63.9853 45.3777 62.9034C44.9895 64.8137 44.247 66.6732 42.897 68.1101C42.7282 66.6901 42.7282 65.2701 42.7789 63.8501C41.9013 66.2506 39.9607 68.6849 37.21 68.7863C37.4294 67.1465 37.6825 65.5237 37.7163 63.867C37.1931 65.1687 36.8219 66.6225 35.7419 67.5861C34.8981 68.2115 33.8181 68.3468 32.8225 68.6004C33.7506 67.1465 34.6619 65.6589 35.2019 64.0022C33.295 66.2168 30.6287 68.127 27.5742 67.9242C28.3168 66.6563 29.228 65.4899 30.1899 64.3741C28.5024 65.5913 26.4099 66.1491 24.3848 65.4899L24.3511 65.5068Z" fill="#4B3620"/>
<path d="M130.53 32.5589C131.306 32.2715 132.302 31.8827 132.302 30.8853C129.602 30.3612 126.834 30.7331 124.134 30.3274C122.632 30.1077 121.13 30.1753 119.629 30.1584C119.865 29.3807 120.32 28.7215 120.81 28.0791C120.692 27.7748 120.472 27.1662 120.354 26.8788C119.848 26.8788 119.342 26.9126 118.819 26.9295C118.616 27.7917 118.38 28.6707 117.806 29.3977C116.135 27.7072 114.06 26.5069 112.22 25.0024C110.752 23.8866 109.453 22.4328 107.613 21.8918C107.613 22.7709 107.85 23.6331 108.339 24.3769C110.381 27.4705 113.216 30.1922 116.895 31.1896C113.469 31.2234 110.381 29.3807 107.023 29.161C106.938 29.3469 106.787 29.7019 106.702 29.8879C108.896 32.9984 112.828 34.6044 116.574 34.2494C115.798 36.6161 114.785 38.8813 113.739 41.1466C114.026 41.1466 114.583 41.1128 114.853 41.0959C115.882 38.8137 116.709 36.4639 117.536 34.1141C119.797 37.5458 124.404 38.7292 128.269 37.8332C128.218 36.447 126.716 36.092 125.704 35.568C123.223 34.6213 120.945 33.2013 118.7 31.7982C122.329 33.776 126.649 33.7422 130.53 32.5758V32.5589Z" fill="#4B3620"/>
<path d="M206.148 203.384C204.613 202.386 205.288 200.358 204.781 198.887C204.343 196.605 202.216 194.914 199.921 194.914C198.656 194.796 197.593 195.574 196.394 195.81C195.736 195.574 195.129 195.252 194.487 194.982C194.285 195.185 193.897 195.607 193.677 195.827C192.732 194.678 191.939 193.41 190.927 192.328C190.083 191.449 188.75 191.55 187.653 191.263C189.611 189.048 191.585 186.867 193.711 184.839C194.471 183.858 195.719 184.518 196.698 184.619C196.597 183.909 196.479 183.199 196.378 182.506C200.866 178.584 206.131 175.727 210.924 172.228C205.237 173.969 200.006 176.961 195.297 180.579C194.454 179.649 193.812 178.533 192.851 177.705C191.096 176.944 189.155 176.809 187.349 176.234C187.349 176.099 187.332 175.828 187.315 175.693C188.885 174.392 190.083 172.752 191.18 171.044C189.459 171.433 187.687 172.109 186.59 173.563C186.084 174.223 185.999 175.152 185.375 175.71C184.312 175.795 183.232 175.727 182.169 175.71C183.957 172.295 186.708 169.557 188.936 166.446C189.594 165.533 190.522 164.468 191.771 164.604C193.981 164.925 195.584 166.632 197.458 167.68C199.972 169.185 202.891 169.861 205.794 169.946C203.701 167.816 201.204 166.159 198.723 164.519C196.496 163.031 193.711 163.657 191.214 163.353C193.779 158.805 197.036 154.663 200.428 150.708C201.997 148.611 204.798 148.527 206.891 147.208C210.148 146.448 213.725 146.651 216.763 148.155C217.421 147.107 217.691 145.89 218.045 144.723C214.991 142.458 211.346 145.095 207.988 144.605C209.793 142.999 212.46 143.354 214.434 142.052C215.379 141.427 215.244 139.567 213.962 139.517C211.565 139.753 209.675 141.444 207.515 142.357C208.781 140.683 210.924 138.976 209.844 136.609C208.781 136.761 207.87 137.319 207.009 137.928C206.823 136.998 206.739 136 206.3 135.155C205.575 134.428 204.646 134.749 203.786 135.003C203.381 136.119 203.111 137.268 202.824 138.418C201.828 136.626 201.609 134.327 199.921 132.974C198.892 132.112 197.576 132.822 196.411 132.738C195.331 132.366 194.251 131.96 193.087 132.078C192.716 133.127 193.087 134.141 193.542 135.088C192.142 133.803 190.184 133.667 188.379 133.684C190.707 129.762 193.644 126.28 196.31 122.612C193.897 125.164 191.517 127.768 189.459 130.608C184.025 137.995 179.013 145.771 175.199 154.139C174.372 154.106 173.528 154.089 172.718 154.089C173.798 152.009 175.722 149.761 174.71 147.293C174.119 147.158 173.427 146.583 172.837 147.022C170.541 148.307 169.883 151.063 169.276 153.413C168.28 152.635 167.622 151.333 166.373 150.995C165.361 151.198 164.416 151.671 163.437 151.959C162.964 151.012 162.627 149.998 162.003 149.152C161.277 148.392 160.146 148.561 159.184 148.51C159.387 150.251 160.956 151.418 161.226 153.125C159.353 152.466 158.088 150.454 155.944 150.556C154.476 150.251 153.413 151.705 151.911 151.435C153.194 144.706 155.151 138.097 156.721 131.419C156.923 130.337 157.362 129.137 158.577 128.866C161.361 128.089 164.011 130.033 166.812 129.864C168.483 129.526 169.951 128.63 171.554 128.106C172.988 127.548 174.558 127.345 175.891 126.517C172.364 125.401 168.584 124.742 164.905 125.367C162.34 125.57 159.809 126.297 157.733 127.852C158.543 124.302 159.674 120.82 160.99 117.422C161.648 114.768 162.559 112.164 163.437 109.578C163.825 108.344 165.006 107.313 166.34 107.414C169.208 107.465 172.313 107.566 174.845 106.028C176.583 104.726 176.313 102.207 177.612 100.618C179.013 99.4518 180.92 99.1814 182.675 99.0799C179.333 98.539 176.144 97.0851 172.718 97.0344C170.255 97.0006 168.415 98.8095 166.677 100.314C167.555 97.2711 168.668 94.3127 169.715 91.3374C170.322 91.067 170.946 91.3375 171.554 91.4389C171.503 91.067 171.436 90.712 171.385 90.3401C172.769 90.357 173.528 89.3258 173.528 88.0072C174.862 88.4129 176.161 88.9877 177.528 89.2751C179.806 89.816 182.253 89.7653 184.43 90.6782C186.235 91.6756 187.585 93.2984 188.969 94.803C191.872 98.3192 194.336 102.174 196.918 105.91C197.677 106.941 198.386 108.192 199.702 108.547C199.736 107.465 199.668 106.383 199.753 105.301C200.478 104.743 201.44 104.659 202.284 104.388C202.453 103.492 202.638 102.478 201.896 101.785C197.66 96.6794 193.07 91.8615 188.952 86.6548C191.315 87.0436 193.441 88.2607 195.821 88.5819C195.179 85.8264 193.677 83.3921 192.395 80.924C190.319 77.1542 188.024 73.5365 185.611 69.9696C183.974 67.5691 181.848 65.5574 179.857 63.4443C180.228 60.8578 182.557 59.4885 184.329 57.9332C185.004 57.4092 185.729 56.7837 186.657 56.8851C187.923 57.629 188.649 59.0997 190.066 59.6406C193.137 61.0607 196.732 59.8435 199.786 61.3311C201.676 62.1257 202.874 63.8838 204.292 65.27C204.292 64.0697 203.803 62.9709 203.128 62.0073C201.727 59.9787 200.293 57.8149 198.116 56.547C195.011 54.9749 191.399 55.4313 188.041 55.3806C185.83 55.2622 184.092 56.7499 182.304 57.798C183.822 53.7577 185.932 49.9541 187.889 46.1167C189.459 43.3273 190.944 40.4366 192.884 37.8839C195.061 35.4158 198.588 35.1961 201.659 35.0608C205.372 34.9087 207.751 31.6122 211.177 30.5979C207.363 30.0738 203.414 30.4965 199.753 31.6967C198.166 32.6434 197.069 34.3001 195.264 34.9087C196.546 32.001 198.774 29.6174 200.968 27.3691C204.545 24.6474 207.751 21.4016 210.266 17.6656C208.021 20.2859 204.157 20.2859 201.862 22.8047C200.411 24.2923 200.124 26.4393 199.044 28.1467C198.183 29.4653 197.289 30.8346 195.854 31.5784C196.124 27.2845 199.651 24.2416 200.934 20.3028C201.423 18.0544 200.006 16.0596 198.824 14.3015C198.183 17.2092 195.635 19.6773 196.529 22.8216C197.238 24.5797 197.407 26.845 195.821 28.1974C195.432 26.7774 194.96 25.3912 194.639 23.9542C194.437 21.9933 194.707 19.9647 193.931 18.1051C193.121 15.5525 190.319 14.741 188.463 13.1182C188.885 16.9556 190.421 20.6409 193.07 23.464C194.808 25.2728 195.095 27.9269 194.572 30.2936C193.677 33.9451 192.125 37.3937 190.167 40.6056C189.104 42.2961 188.379 44.1895 187.113 45.7617C187.029 43.6147 187.012 41.4678 186.455 39.3716C185.746 36.6668 186.607 33.9282 186.32 31.2065C186.016 29.0257 184.582 27.2338 183.249 25.5602C182.169 24.3938 181.139 23.0414 179.587 22.5173C180.43 25.7969 180.498 29.1948 180.684 32.5758C181.021 36.4639 184.312 38.9997 185.915 42.33C186.438 43.9021 186.64 45.6771 186.455 47.3338C183.89 52.3884 181.561 57.5613 179.35 62.785C177.055 60.2154 173.984 57.3247 174.608 53.521C174.693 51.8982 176.296 51.1712 177.19 50.0386C176.161 49.8019 175.115 49.7681 174.085 49.6667C173.039 49.1088 172.263 48.0945 171.065 47.841C169.394 47.5198 167.436 47.5536 166.188 48.8553C163.353 51.4417 162.998 55.482 162.188 58.9983C160.467 66.0814 160.771 74.0944 164.888 80.3323C166.205 82.5131 168.668 83.6626 169.9 85.8772C169.259 86.2322 168.297 86.3674 168.061 87.1957C167.369 88.6327 169.31 89.9005 168.635 91.3374C165.766 99.418 163.066 107.549 160.349 115.698C159.589 115.461 158.847 115.224 158.104 114.988C158.425 114.125 158.881 113.331 159.286 112.519C159.1 111.522 157.953 111.708 157.21 111.776C155.978 112.08 154.831 112.655 153.632 113.027C154.577 111.556 156.147 110.474 156.653 108.766C154.662 108.31 152.907 107.346 151.523 105.859C151 105.081 149.768 105.25 149.312 106.011C148.232 107.414 147.574 109.071 146.865 110.66C147.203 109.088 147.675 107.414 147.186 105.825C146.477 103.949 147.203 101.988 147.507 100.111C148.705 94.3634 149.414 88.5143 150.527 82.7497C152.789 81.6002 154.982 79.4194 154.712 76.6808C154.527 75.227 154.409 73.4858 153.143 72.556C151.962 71.3389 150.122 71.8967 148.688 72.2179C146.697 73.3337 145.431 75.7342 145.87 78.0332C146.258 80.4507 149.11 81.8031 148.907 84.4233C148.806 87.8212 147.827 91.1346 147.254 94.4649C146.764 93.5351 146.528 92.4701 145.887 91.6417C144.52 90.9824 142.95 91.1684 141.482 91.1177C141.668 92.1489 141.702 93.3492 142.512 94.1437C143.507 95.0904 145.11 94.6677 146.207 95.4116C146.967 96.392 146.967 97.7782 146.663 98.9447C146.174 101.176 145.836 103.475 144.975 105.605C144.402 103.999 141.837 103.577 141.212 105.318C141.145 106.704 141.297 108.09 141.111 109.46C140.267 107.634 140.318 105.267 138.462 104.033C137.061 103.053 135.542 104.354 134.428 105.2C133.855 104.997 133.281 104.777 132.707 104.625C131.796 104.98 131.711 106.045 131.441 106.839C130.75 106.789 130.058 106.789 129.349 106.839C129.298 107.651 129.265 108.462 129.248 109.274C128.37 109.24 127.51 109.24 126.632 109.307C126.716 109.629 126.885 110.271 126.97 110.575C129.13 111.928 131.863 112.807 133.298 115.038C130.496 114.649 127.695 112.891 124.826 113.855C125.518 115.698 127.78 115.816 129.45 116.036C128.809 116.424 128.387 117.05 128.201 117.777C130.125 118.047 132.37 117.608 133.939 119.011C135.762 120.431 136.268 122.95 138.124 124.336C139.356 125.164 141.685 125.198 141.719 127.108C141.735 129.543 141.044 131.909 140.655 134.293C138.428 145.366 136.015 156.388 133.939 167.494C133.416 171.737 132.538 175.947 131.188 180.004C131.087 180.511 130.716 180.849 130.328 181.154C129.231 177.806 130.108 174.206 128.978 170.875C128.37 168.12 127.358 165.516 126.261 162.93C126.851 150.657 127.172 138.215 124.708 126.111C126.21 124.522 127.915 123.034 128.86 121.023C127.594 121.378 126.396 122.088 125.046 122.003C122.43 121.952 119.713 121.513 117.199 122.46C113.992 123.812 111.394 126.348 109.672 129.357C109.926 120.008 109.926 110.643 110.331 101.294C112.963 101.413 115.849 102.731 118.346 101.294C120.759 99.9759 123.291 98.7756 126.075 98.4714C125.485 97.1697 124.084 96.6118 122.886 96.0032C120.287 94.8537 117.368 95.2932 114.634 95.513C112.558 95.7327 110.719 97.0175 109.807 98.9109C109.47 92.2334 108.44 85.6067 108.373 78.9123C108.238 76.9851 109.909 75.5651 111.546 74.9565C113.351 74.2127 115.781 74.6184 116.912 72.6744C118.211 73.6718 119.73 74.5339 121.401 74.6015C122.295 74.6523 123.459 74.0944 123.156 73.0294C123.139 71.5925 120.911 71.0853 121.131 69.7329C122.16 69.2765 123.594 69.2934 124.219 68.2284C124.506 67.0788 124.826 65.9462 125.147 64.8136C124.641 62.785 122.143 62.9371 120.506 62.8695C121.299 62.1088 122.616 61.5171 122.666 60.283C122.869 58.8292 121.755 57.5106 120.473 57.0204C119.747 57.0204 119.055 57.2739 118.363 57.4261C118.245 56.7161 118.11 55.9892 117.992 55.2792C114.364 56.3273 113.638 60.4352 111.596 63.0723C111.411 59.9449 113.385 57.1894 113.098 54.0451C111.782 53.6732 109.723 53.0984 109.031 54.7213C107.968 56.7161 107.614 58.9983 107.192 61.1959C107.124 58.7278 107.377 56.0568 106.145 53.8253C105.673 53.6901 105.2 53.5887 104.728 53.5549C103.884 55.5834 104.475 57.7642 104.593 59.8604C103.547 57.612 102.416 55.0425 100.02 53.9437C99.3616 53.5041 98.636 53.9437 98.0791 54.3156C98.2647 55.0425 98.4672 55.7863 98.6528 56.5132C97.8091 56.2935 96.9484 56.0906 96.0878 55.9384C95.8684 56.4287 95.6491 56.9189 95.4466 57.4092C94.3328 57.443 93.1853 57.3754 92.1221 57.7135C91.0252 58.1361 91.059 59.5392 91.2952 60.4859C92.5609 62.2947 94.7884 62.954 96.5097 64.2219C93.9615 63.1907 90.8734 62.075 88.3421 63.8331C89.2027 66.335 92.3921 64.9488 94.3497 65.4221C92.7971 66.8422 89.2027 65.9969 89.3377 68.9722C90.9915 70.257 93.1346 69.4117 95.0247 69.2934C94.4847 70.071 94.0628 70.9332 94.3328 71.8967C96.4591 72.4546 98.1803 70.781 100.239 70.6796C99.9522 71.9306 98.8216 72.6575 98.1803 73.7056C97.7753 74.5846 97.9947 75.582 98.0116 76.5287C98.6866 76.7654 99.3954 76.9513 100.121 76.8161C101.42 76.2075 102.197 74.5677 103.749 74.5339C104.93 74.4156 105.757 75.5144 106.196 76.478C107.276 79.3349 107.09 82.4454 107.479 85.4376C107.664 88.5819 108.187 91.7094 107.934 94.8537C105.487 91.4051 101.589 89.106 97.4716 88.396C98.906 89.6639 100.543 90.7458 101.606 92.3687C102.619 93.8901 103.969 95.158 105.403 96.2737C106.584 97.3218 108.052 98.353 108.373 100.01C109.234 104.861 108.626 109.798 108.542 114.7C108.373 117.422 108.525 120.177 108.289 122.899C107.867 129.982 107.884 137.082 107.31 144.165C105.572 141.224 103.361 138.57 101.083 136.051C100.037 134.8 98.4841 134.192 97.3028 133.143C96.9316 129.424 96.3578 125.722 96.2903 121.986C96.1384 119.146 98.3997 117.05 99.0241 114.413C99.6485 111.894 101.049 109.696 102.821 107.854C100.762 108.817 98.8047 110.153 97.556 112.097C96.5266 113.551 96.3072 115.343 95.784 117.016C95.2778 110.88 93.7253 104.895 92.7296 98.8433C92.3921 97.7444 93.1853 96.8654 93.6915 96.0032C94.4509 94.9551 94.2653 93.552 93.9953 92.3856C93.2021 90.0358 90.6709 88.8017 88.3589 88.5989C87.4308 88.5989 86.3508 89.3089 86.3002 90.3062C86.1314 92.1827 86.0639 94.2958 87.262 95.8849C88.0214 97.0851 89.7765 96.8823 90.6371 97.9135C91.7509 100.466 92.2571 103.239 92.9153 105.943C93.5396 108.885 94.3328 111.843 94.164 114.869C93.1684 113.094 92.8984 111.032 92.0715 109.189C90.7046 106.772 87.2958 106.603 85.0851 107.837C87.1777 109.392 89.1352 111.184 90.8059 113.212C92.3415 115.309 94.029 117.506 94.299 120.177C94.8222 124.488 95.5309 128.799 95.5478 133.143C94.6534 132.991 94.029 132.366 93.4721 131.707C93.624 133.786 93.7928 135.95 94.8559 137.775C95.4128 138.824 96.4084 139.753 96.3072 141.038C96.3072 143.81 96.7291 146.566 96.4591 149.338C95.4972 147.969 95.0247 146.312 93.9784 144.994C92.5946 143.625 90.5359 143.912 88.7808 143.912C91.0927 145.281 92.9996 147.31 94.1134 149.778C94.8222 151.57 96.5603 153.024 96.3747 155.103C96.4928 166.328 96.8641 177.553 96.7459 188.795C95.4297 187.341 94.1134 185.65 91.9702 185.6C89.8946 175.845 88.0214 166.024 85.2033 156.438C84.1233 152.635 82.6213 148.95 81.7776 145.078C82.1488 143.946 82.3345 142.796 82.0645 141.613C81.592 141.292 81.0182 141.072 80.6301 140.649C78.2507 132.873 76.5969 124.759 72.9518 117.422C74.2175 123.829 76.3438 130.033 77.8794 136.372C74.6056 138.688 72.0237 141.866 69.7962 145.18C70.623 142.475 73.4918 140.108 72.3949 137.065C71.1799 136.947 70.0662 137.319 69.273 138.249C69.0536 137.471 69.1211 136.423 68.3111 135.983C67.0286 135.561 66.1173 136.846 65.1892 137.522C64.4636 135.595 62.8604 134.006 62.5229 131.943C62.8267 129.965 63.7886 128.123 64.1767 126.145C62.6073 126.483 61.696 127.801 61.1729 129.221C60.8354 126.179 62.0335 123.017 60.8185 120.076C60.3123 119.028 60.4979 117.439 59.3335 116.864C59.0466 117.794 58.5741 118.707 58.6247 119.704C58.591 122.274 60.3629 124.471 60.1435 127.058C58.7091 125.063 57.6797 122.815 56.5322 120.651C56.0259 119.501 55.2497 118.318 55.5366 117.016C55.9753 114.92 55.9584 112.773 55.8572 110.643C55.7391 109.274 56.1272 107.769 55.3003 106.569C53.2753 108.344 53.8153 111.082 53.7984 113.466C53.039 112.164 54.0853 110.423 52.9378 109.291C51.9421 108.192 50.8452 107.211 49.6808 106.298C49.5458 106.856 49.3433 107.431 49.5627 108.006C50.2715 111.268 53.8828 113.043 53.8997 116.577C52.2965 116.019 51.2502 114.092 49.3771 114.447C47.8583 114.802 46.407 115.41 44.922 115.883C44.4833 116.712 45.5295 117.185 46.2045 117.253C48.9214 117.591 51.824 117.118 54.389 118.25C55.4016 119.467 55.9922 120.955 56.7347 122.358C58.0678 125.029 59.7385 127.565 60.6666 130.422C58.6416 129.576 56.3972 129.391 54.3384 130.27C55.9753 131.588 58.0172 132.028 60.076 132.129C62.8098 133.127 63.7548 136.254 64.5142 138.79C63.9573 138.536 63.4004 138.266 62.8604 137.978C62.4723 138.114 62.101 138.266 61.7298 138.418C60.5485 137.099 58.1016 137.201 57.241 138.773C57.7135 140.717 59.0635 142.374 59.7554 144.267C58.0678 143.084 56.5659 141.123 54.3047 141.275C52.8871 141.275 51.9927 142.509 51.0646 143.388C51.8071 144.301 52.6678 145.112 53.4778 145.957C51.4359 145.45 49.0902 144.098 47.1495 145.653C47.2002 145.89 47.3014 146.363 47.352 146.583C48.1452 146.752 48.9383 146.938 49.7315 147.141C49.1577 147.53 48.5671 147.918 48.0102 148.341C48.9383 149.389 50.4065 148.899 51.6215 149.034C52.7521 148.966 53.7309 149.575 54.6759 150.116C53.8997 150.556 53.0221 150.843 52.3978 151.485C52.9209 152.263 53.8996 152.229 54.7097 152.009C56.2959 151.57 57.9497 151.637 59.5866 151.705C59.6372 151.925 59.7216 152.398 59.7722 152.618C59.1816 152.483 58.591 152.364 58.0003 152.246C57.3591 153.041 56.6334 153.818 56.1947 154.765C56.3972 156.726 58.2535 157.977 58.7429 159.853C56.8697 159.295 55.6884 157.487 53.8321 156.929C52.7859 156.574 51.4527 157.487 51.8071 158.653C52.2796 159.972 53.7478 160.597 54.8109 161.392C53.1909 160.918 51.5371 160.191 49.8327 160.496C48.8708 160.851 47.9933 161.392 47.0652 161.814C46.1708 158.332 45.1583 154.9 44.3483 151.401C43.5214 147.175 42.2051 143.084 40.9732 138.976C37.8007 128.427 34.3581 117.963 31.1687 107.414C30.5612 105.301 29.5993 103.272 29.2449 101.092C29.6161 99.8407 30.2237 98.6911 30.7468 97.5078C30.6287 97.2373 30.3924 96.6963 30.2743 96.4258C29.2618 97.3049 29.2955 98.6911 29.093 99.9083C27.8611 97.643 27.473 95.0227 26.4773 92.6561C25.8361 90.8641 24.8404 89.2243 24.2667 87.4155C23.9967 86.0969 25.0429 85.1502 25.6336 84.119C26.3255 82.7666 26.5617 81.2114 26.528 79.7068C24.0304 81.1438 23.9123 84.3557 24.0811 86.9084C23.4567 86.8069 23.0179 86.4857 22.7479 85.9448C22.0223 84.6769 21.1448 83.4428 20.8748 81.989C21.3304 80.3154 23.0348 78.8109 22.2923 76.9513C20.4866 77.9656 20.5373 80.1971 20.5204 81.989C19.6766 81.279 19.0185 80.3323 18.681 79.2842C18.6135 77.8811 18.9847 76.4949 18.816 75.1087C18.3097 75.7849 18.1747 76.6132 17.9722 77.4078C17.2972 76.0892 16.8416 74.5508 15.4409 73.8239C15.1203 76.123 17.8035 77.0866 18.3435 79.1321C17.6178 79.0814 16.8922 79.0137 16.1666 78.9968C16.7909 80.028 18.0735 80.028 19.0016 80.6197C19.9297 81.7354 20.5879 83.0878 21.0435 84.474C19.0185 83.9162 17.2297 82.53 15.0528 82.6145C15.1034 82.8174 15.2047 83.24 15.2722 83.4428C16.5378 83.8485 17.8372 84.1359 19.086 84.6431C18.4447 84.9643 17.8203 85.2686 17.1791 85.5898C18.6135 86.2829 20.0647 85.6912 21.2291 84.7783C22.7648 86.7731 24.1823 88.9369 24.8404 91.4051C22.5792 90.7796 20.9423 89.106 19.3391 87.5169C18.6472 86.8576 16.8416 85.9955 16.5547 87.3986C17.5672 88.4467 18.816 89.3765 20.2841 89.6639C21.1616 89.9174 22.3767 90.1203 22.6129 91.1853C21.246 91.236 19.8622 91.4051 18.5628 91.8277C20.7904 92.9434 23.3048 90.6782 25.3636 92.4194C26.4267 94.1437 26.8992 96.1385 27.4561 98.0487C28.5193 102.123 29.903 106.095 31.2868 110.068C34.7462 120.972 37.8682 131.977 41.1926 142.931C43.9432 151.536 45.4114 160.479 47.2845 169.303C47.6221 170.774 47.8752 172.245 47.9258 173.766C42.3232 162.389 36.7713 150.978 31.3881 139.5C30.0043 136.66 28.7893 133.718 27.2199 130.963C24.9248 126.855 22.2754 122.95 19.4572 119.197C16.9428 116.019 14.4115 112.79 11.239 110.22C16.5884 116.492 21.1448 123.423 25.4817 130.439C29.6836 137.725 32.7381 145.585 36.3663 153.159C40.7201 162.034 44.8208 171.027 48.9383 180.021C50.069 182.303 50.2546 184.873 50.6427 187.358C45.732 178.973 40.2476 170.943 34.6619 162.998C33.8856 161.933 33.7 160.597 33.3962 159.363C30.9493 149.169 27.4899 139.246 23.136 129.712C25.7517 138.722 28.688 147.699 30.2912 156.963C26.1398 151.333 21.8704 145.771 17.1791 140.582C14.884 138.35 12.7746 135.612 9.56833 134.665C12.2009 136.305 14.3609 138.57 16.4366 140.852C21.5329 146.6 26.0048 152.872 30.3924 159.16C31.3881 160.428 31.5062 162.085 31.8099 163.606C32.7887 169.117 33.8856 174.628 34.3412 180.207C32.6874 178.821 31.2699 177.181 29.6836 175.71C25.0767 171.112 19.626 167.528 14.1584 164.08C9.70334 161.307 4.80951 159.414 -0.0336914 157.487C12.6059 163.91 25.3805 171.18 34.2906 182.506C35.2862 183.74 34.9487 185.414 35.1681 186.884C35.5394 189.741 35.6069 192.632 35.725 195.523C36.1975 201.659 35.4044 207.796 34.915 213.898C35.8937 213.865 36.8725 213.865 37.8513 213.882C38.4419 207.61 37.885 201.338 37.9188 195.066C37.9188 192.463 37.7332 189.877 37.6994 187.273C40.4669 191.026 42.762 195.1 45.6645 198.769C49.2252 203.384 52.0265 208.523 54.2034 213.915C54.9459 213.882 55.6884 213.865 56.4478 213.848C55.5197 208.016 54.1865 202.251 53.5284 196.385C56.0091 202.116 58.1691 207.982 60.1772 213.898C60.5654 213.898 61.3585 213.865 61.7467 213.848C61.7635 213.459 61.7973 212.715 61.831 212.326C62.9279 212.867 63.8898 213.949 65.2061 213.865C68.0242 213.865 70.8424 213.865 73.6775 213.831C72.3274 211.363 71.7368 208.59 70.9605 205.919C70.9774 203.772 71.3487 201.625 71.4668 199.462C70.8593 199.783 70.2012 200.053 69.7286 200.577C69.5768 201.287 69.543 202.014 69.4755 202.741C68.5136 199.495 66.6742 196.588 65.3917 193.46C65.0036 192.378 64.0079 191.178 64.8011 190.046C65.763 188.372 65.7123 186.343 65.2905 184.535C64.4298 182.016 62.0842 179.953 59.4347 179.683C58.3716 180.156 56.9541 180.494 56.5322 181.745C55.4353 184.602 55.5534 188.338 58.0847 190.401C59.6372 191.99 62.4892 191.837 63.4848 194.018C64.3454 195.759 65.0373 197.585 65.9148 199.326C67.5686 202.454 68.193 205.987 69.6949 209.165C70.3024 210.433 70.758 211.785 71.0787 213.155C69.0536 211.261 66.7924 209.452 63.9742 208.996C59.8904 198.904 55.4184 188.981 50.609 179.226C49.7483 177.671 49.5627 175.879 49.259 174.155C48.7696 171.281 48.0946 168.441 47.7233 165.55C48.2464 166.497 49.1915 167.021 50.204 167.342C49.9846 167.816 49.7821 168.306 49.5627 168.796C50.5077 169.506 51.6721 169.692 52.8196 169.844C52.7015 170.926 52.6509 172.042 52.9209 173.107C53.2584 173.124 53.9334 173.158 54.2709 173.158C55.2834 172.278 56.3803 171.501 57.5616 170.858C58.0172 171.247 58.3547 171.907 58.9791 172.059C60.3798 171.957 61.4598 170.284 62.8942 170.858C63.7379 171.078 64.0248 171.957 64.4636 172.617C65.7461 174.933 67.3661 177.046 68.5643 179.395C71.5005 185.092 74.2006 190.942 76.445 196.96C77.5588 199.732 77.7444 202.758 78.875 205.514C79.9551 207.982 79.9551 210.737 80.6132 213.341C80.7651 214.203 81.8957 213.696 82.4695 213.814C81.3051 206.257 79.4657 198.819 77.7275 191.381C78.9088 189.031 81.9801 188.626 83.5495 186.597C85.3889 184.416 85.0008 181.356 85.5239 178.719C84.0895 181.39 81.457 183.013 79.4826 185.228C78.3013 186.462 77.8794 188.135 77.12 189.623C75.1625 181.711 72.7156 173.918 70.8087 165.99C72.6987 165.263 74.8419 164.367 75.6181 162.321C75.0781 161.747 74.5212 161.189 73.9812 160.631C74.9431 160.005 76.0738 159.464 76.6138 158.399C76.7825 157.199 76.7488 155.982 76.8669 154.782C75.2806 155.154 74.2006 153.328 72.7156 153.92C71.0787 155.424 70.9774 158.095 68.9355 159.245C69.0368 157.115 70.218 153.937 67.5855 152.888C67.1805 153.463 66.7586 154.038 66.303 154.579C66.033 153.26 66.8261 152.229 67.4842 151.181C70.083 151.891 72.1924 149.947 74.6731 149.744C74.825 149.22 74.9769 148.696 75.1119 148.189C77.0188 147.749 78.7569 146.786 80.6807 146.363C84.1233 159.363 87.397 172.397 90.384 185.515C87.8189 185.836 85.2876 187.189 84.157 189.606C86.5533 189.623 88.9833 188.997 91.3459 189.674C91.2784 190.367 91.6496 191.246 90.9915 191.753C88.7808 193.883 87.2452 196.841 87.1102 199.935C88.9496 199.394 90.789 198.887 92.6115 198.261C93.6409 203.367 93.8265 208.624 93.9784 213.814C94.4678 213.814 94.9572 213.848 95.4466 213.865C95.7503 208.286 94.8728 202.758 94.0628 197.264C94.9572 196.453 95.8684 195.641 96.8472 194.931C96.9147 196.182 96.7291 197.416 96.4759 198.65C96.1216 200.172 96.6953 201.676 96.8472 203.198C96.9991 206.68 96.5941 210.196 97.0666 213.662C97.3197 213.696 97.826 213.763 98.0791 213.797C98.2816 209.993 97.7585 206.19 98.0453 202.386C98.906 201.304 100.56 201.423 101.809 201.085C101.184 205.361 100.053 209.571 99.0241 213.763C99.8679 213.763 100.712 213.78 101.555 213.797C102.72 209.638 103.378 205.361 104.137 201.118C105.133 199.969 105.943 198.701 106.196 197.163C107.614 198.244 108.66 199.698 109.858 201C108.829 201.44 107.411 201.828 107.276 203.147C107.057 205.277 107.276 207.661 108.727 209.351C109.892 207.846 111.225 206.494 112.744 205.361C114.009 207.999 113.773 210.991 113.908 213.831C114.802 213.797 115.714 213.78 116.625 213.78C117.604 208.624 117.486 203.367 118.009 198.177C118.178 192.649 118.886 187.121 118.211 181.61C118.127 180.089 117.891 178.55 118.178 177.046C118.886 175.473 120.861 175.355 122.346 175.186C122.278 174.983 122.143 174.594 122.093 174.408C120.557 173.428 118.869 174.189 117.452 175C117.806 171.89 114.735 169.777 111.951 169.658C113.216 171.619 115.022 173.208 116.001 175.372C114.937 175.135 113.857 174.882 112.761 174.916C114.178 176.336 116.119 177.502 116.625 179.581C117.351 184.923 117.435 190.384 116.726 195.726C114.667 195.235 112.086 195.117 110.55 196.824C110.449 197.704 110.685 198.566 110.736 199.462C108.643 198.566 107.394 196.571 105.943 194.931C106.01 194.762 106.145 194.407 106.213 194.221C107.732 193.934 109.031 195.151 110.55 194.88C110.871 194.339 110.752 193.917 110.212 193.596C108.812 192.429 107.276 191.246 105.437 190.925C106.28 184.94 106.652 178.888 107.225 172.87C107.9 172.684 108.575 172.498 109.251 172.346C108.896 171.146 107.377 170.47 107.563 169.134C107.9 162.271 108.491 155.407 108.744 148.544C109.149 143.709 109.031 138.824 109.605 134.022C111.883 132.484 114.127 130.895 116.574 129.627C119.089 128.275 121.89 127.683 124.421 126.381C125.164 131.96 125.231 137.606 125.181 143.236C124.911 149 125.096 154.799 124.59 160.563C121.485 158.129 117.874 156.472 114.735 154.072C114.819 156.658 115.579 159.143 116.169 161.628C116.439 162.676 116.676 163.775 117.249 164.722C119.426 167.697 121.131 171.027 123.611 173.8C123.763 176.944 123.189 180.089 123.021 183.233C122.126 193.477 121.249 203.755 118.903 213.797C119.949 213.797 120.996 213.797 122.042 213.831C123.122 211.853 123.78 209.706 124.54 207.593C127.29 199.36 129.821 191.043 132.201 182.692C132.775 181.035 132.336 178.956 133.585 177.587C134.901 177.198 136.386 177.384 137.635 176.708C139.677 175.372 141.33 173.411 141.989 171.027C138.833 171.805 135.981 173.513 133.737 175.862C134.968 172.701 135.306 169.32 135.981 166.024C136.96 161.189 137.77 156.32 138.883 151.502C140.065 146.093 140.892 140.615 142.107 135.206C142.343 134.31 142.529 133.363 143.069 132.602C144.57 131.419 146.494 130.997 148.013 129.83C149.566 128.681 151.709 128.326 152.822 126.635C150.646 127.176 148.35 127.041 146.174 127.632C144.925 127.92 144.149 129.019 143.372 129.965C143.49 128.799 143.541 127.616 143.811 126.483C144.165 124.065 147.405 123.947 148.215 121.8C148.384 121.175 148.452 120.532 148.553 119.907C150.055 120.346 151.624 120.363 153.194 120.346C153.312 119.873 153.413 119.383 153.531 118.909C154.426 119.011 155.337 119.062 156.265 119.112C156.586 118.707 156.906 118.318 157.227 117.912C157.986 118.03 158.763 118.149 159.522 118.284C156.417 128.376 153.227 138.435 150.527 148.645C149.836 150.978 149.616 153.48 148.435 155.627C148.435 156.608 148.502 157.605 148.232 158.569C147.557 161.341 147.152 164.164 146.309 166.886C146.309 164.435 145.954 162 145.853 159.549C145.802 156.827 147.54 154.19 146.714 151.468C146.224 149.626 144.267 148.781 143.389 147.158C142.68 146.11 142.562 144.825 142.394 143.608C140.537 147.513 142.292 151.874 143.474 155.712C145.431 161.29 145.684 167.325 145.026 173.174C144.199 178.128 143.052 183.013 142.124 187.966C141.567 187.983 141.01 188.017 140.453 188.051C140.79 188.997 141.28 189.893 141.499 190.891C140.318 196.824 139.086 202.741 137.854 208.675C137.517 210.348 137.044 211.988 136.96 213.713C137.668 214.084 138.09 213.882 138.242 213.121C139.744 206.274 140.942 199.36 142.36 192.497C143.457 193.748 144.452 195.151 145.971 195.945C148.3 197.196 150.781 198.228 152.89 199.867C152.957 200.003 153.109 200.256 153.177 200.374C154.172 204.804 153.548 209.351 153.413 213.831C153.902 213.831 154.392 213.831 154.898 213.865C155.016 210.146 154.628 206.443 154.459 202.724C154.274 198.752 155.084 194.813 156.079 190.992C156.467 189.657 156.839 188.237 157.784 187.172C159.505 186.901 161.26 187.121 162.998 187.07C160.653 195.912 158.391 204.804 156.906 213.831C157.531 213.814 158.172 213.814 158.796 213.814C160.096 205.852 161.749 197.94 163.707 190.113C164.044 188.913 164.163 187.628 164.753 186.529C166.61 185.583 168.618 184.94 170.44 183.909C168.786 183.706 167.15 183.47 165.53 183.047C166.829 177.84 168.297 172.633 170.525 167.731C170.845 168.441 171.166 169.168 171.52 169.895C172.094 169.844 172.685 169.81 173.258 169.692C173.596 168.982 173.714 168.204 173.849 167.461C174.878 167.461 175.756 166.886 176.718 166.598C177.967 167.308 178.996 168.424 180.397 168.881C181.46 168.712 181.207 167.461 180.852 166.767C180.008 165.111 177.562 165.5 176.718 163.877C178.996 163.843 181.274 164.688 183.535 164.029C183.367 163.488 183.265 162.845 182.59 162.778C180.852 161.983 178.76 162.254 177.173 161.155C179.198 160.563 182 161.358 183.265 159.211C182.574 158.281 182.236 157.182 182.017 156.067C179.907 155.34 177.832 156.794 175.672 156.506C175.79 155.948 175.958 155.424 176.178 154.917C179.671 147.817 183.603 140.954 187.754 134.225C188.26 136.186 189.999 137.319 191.534 138.435C192.564 139.094 192.935 140.345 193.796 141.173C194.741 141.799 195.888 142.035 196.85 142.627C197.711 143.388 198.031 144.52 198.588 145.484C199.111 146.532 199.938 147.428 200.276 148.561C199.01 150.539 197.508 152.347 196.006 154.139C195.939 152.702 196.411 151.097 195.483 149.862C194.707 148.764 194.015 147.513 192.834 146.786C192.395 148.071 191.602 149.474 192.277 150.826C192.834 152.584 194.437 153.768 195.112 155.458C195.146 157.132 193.407 158.146 192.581 159.464C187.602 166.193 182.236 172.701 178.355 180.156C175.705 184.788 173.191 189.538 171.537 194.627C169.495 200.949 167.74 207.339 166.036 213.763C166.846 213.763 167.673 213.763 168.483 213.763C169.715 208.202 170.693 202.589 172.145 197.078C173.663 190.789 176.684 185.025 179.873 179.446C180.515 178.449 180.852 177.096 182.05 176.623C183.181 176.302 184.43 176.217 185.544 176.589C186.691 177.367 186.337 179.04 186.995 180.156C187.72 182.033 189.695 182.793 191.399 183.52C182.422 191.821 175.098 202.099 171.031 213.696C172.06 213.729 173.107 213.729 174.136 213.763C176.026 209.723 177.612 205.514 179.907 201.676C181.561 198.599 183.772 195.878 185.932 193.156C186.286 192.717 186.725 192.362 187.164 192.04C186.995 192.97 186.117 193.9 186.573 194.863C187.518 196.064 188.969 196.706 190.252 197.484C189.56 197.687 188.885 197.889 188.21 198.109C188.21 198.43 188.21 199.073 188.21 199.377C188.75 199.495 189.29 199.631 189.83 199.749C189.087 200.865 188.142 202.065 188.48 203.502C191.45 203.671 194.116 201.338 197.12 202.335C196.107 204.651 194.741 206.781 193.475 208.962C192.564 210.551 191.366 211.988 190.826 213.763C191.332 213.746 191.855 213.729 192.378 213.713C194.319 210.281 196.124 206.781 198.166 203.417C199.415 205.378 199.331 207.965 201.001 209.706C201.609 209.706 202.216 209.74 202.841 209.706C204.191 208.489 203.313 206.579 203.212 205.04C204.63 205.716 206.115 206.41 207.144 207.627C208.207 208.641 209.051 210.044 210.586 210.365C210.553 208.878 210.924 207.441 211.025 205.987C210.08 204.195 207.549 204.449 206.131 203.198L206.148 203.384ZM54.3047 207.796C50.744 200.07 45.2764 193.427 39.9776 186.834C38.9819 185.414 37.1931 184.332 37.2606 182.421C36.7881 176.927 35.8431 171.484 34.9825 166.041C39.2857 172.329 43.2682 178.854 47.5208 185.194C49.1577 187.662 50.8959 190.164 51.7734 193.021C52.6509 197.923 53.5621 202.843 54.2878 207.779L54.3047 207.796ZM56.7178 197.332C58.4053 201.22 60.2785 205.04 61.7298 209.03C60.886 208.827 59.9747 208.489 59.7047 207.593C57.5785 202.352 55.4859 197.078 52.9715 192.023C52.0771 190.299 51.7902 188.338 51.7734 186.411C53.579 189.978 55.0303 193.714 56.7347 197.349L56.7178 197.332ZM47.7739 165.618C47.7064 165.06 47.6389 164.485 47.6052 163.927C48.3308 164.249 49.0733 164.553 49.8158 164.857C49.124 165.094 48.4489 165.347 47.7739 165.618ZM60.6666 153.345C61.021 153.311 61.7298 153.277 62.0842 153.243C62.2023 154.342 62.3373 155.424 62.4217 156.523C61.7635 155.492 61.156 154.444 60.6498 153.328L60.6666 153.345ZM67.9736 169.996C68.6318 169.793 69.2899 169.591 69.948 169.388C71.8212 177.299 74.4369 184.991 76.5463 192.835C74.3356 188.034 72.3443 183.131 69.7118 178.533C68.3618 175.947 66.843 173.445 65.5098 170.858C65.1386 170.267 65.223 168.982 66.1511 169.05C66.7755 169.32 67.3661 169.675 67.9736 169.996ZM73.8462 142.813C75.0275 141.173 76.715 139.99 78.0819 138.502C79.1451 138.469 78.7907 140.21 79.1957 140.954C77.3225 141.309 75.5844 142.052 73.8293 142.796L73.8462 142.813ZM113.79 200.02C114.802 199.834 115.815 199.58 116.811 199.309C116.794 202.352 116.321 205.378 115.528 208.303C114.937 205.632 112.946 203.603 112.204 201.017C112.102 200.138 113.233 200.189 113.79 200.003V200.02ZM101.437 193.629C100.374 194.441 99.1085 194.931 97.9103 195.489C97.826 194.018 98.9904 192.395 100.577 192.564C101.201 192.514 101.657 193.004 101.437 193.629ZM98.0453 188.338C98.3997 188.913 98.7541 189.488 99.1254 190.062C98.8722 190.012 98.366 189.927 98.1297 189.893C98.096 189.369 98.0791 188.845 98.0453 188.338ZM103.277 192.835C102.365 192.26 101.353 191.652 100.948 190.587C100.813 189.285 101.488 187.916 100.813 186.715C100.239 185.65 99.041 185.228 97.961 184.923C97.7078 182.743 97.5391 180.241 98.8554 178.347C100.83 176.589 102.804 174.679 105.335 173.732C104.914 180.122 104.34 186.529 103.294 192.835H103.277ZM105.707 169.32C104.019 169.405 102.214 169.709 100.931 170.892C99.5641 172.076 99.0916 173.901 97.8935 175.203C97.6403 163.826 97.8091 152.432 97.5728 141.055C99.9522 142.221 102.517 142.847 105.065 143.54C106.415 143.878 106.702 145.433 107.175 146.549C106.837 154.139 106.129 161.73 105.724 169.32H105.707ZM129.686 182.861C128.961 189.336 126.379 195.388 124.32 201.507C124.421 196.639 125.316 191.837 125.4 186.969C125.687 183.317 125.738 179.649 125.822 175.981C128.117 177.434 130.142 179.97 129.686 182.861ZM151.354 152.872C152.873 153.953 154.51 154.9 155.995 156.05C154.341 155.61 152.738 154.917 151 154.883C151.101 154.207 151.219 153.531 151.337 152.872H151.354ZM153.379 199.326C152.485 197.653 152.198 195.675 151 194.153C149.194 191.449 146.309 189.657 143.288 188.592C144.267 180.663 146.595 172.972 148.384 165.195C149.093 162.524 149.667 159.819 150.359 157.148C151.253 156.76 151.456 158.163 152.164 158.467C153.751 159.109 155.539 158.738 157.143 159.329C157.143 159.498 157.143 159.819 157.143 159.989C155.219 160.58 153.143 160.529 151.304 161.392C150.443 161.831 150.713 162.896 150.595 163.691C150.916 163.741 151.54 163.843 151.861 163.877C154.797 163.099 157.632 161.95 160.669 161.594C160.433 162.66 159.927 163.775 160.248 164.874C160.889 165.939 162.239 165.567 163.251 165.381C161.716 168.796 160.872 172.583 158.796 175.71C158.611 174.696 158.543 173.665 158.29 172.667C157.396 170.892 155.202 170.284 153.346 170.334C153.767 171.974 153.902 174.07 155.506 175.051C156.619 175.795 158.29 176.623 157.834 178.263C156.721 185.346 154.358 192.176 153.379 199.276V199.326ZM168.145 171.044C166.761 175.051 165.378 179.057 164.247 183.148C161.733 183.791 159.454 184.991 157.396 186.546C157.699 183.825 158.239 181.086 159.319 178.55C161.108 174.053 162.762 169.506 164.517 165.009C165.141 166.311 165.783 168.289 167.622 167.968C167.622 166.818 167.555 165.686 167.487 164.536C168.297 164.942 169.107 165.381 169.9 165.838C169.563 167.646 168.702 169.303 168.128 171.044H168.145Z" fill="#4B3620"/>
<path d="M186.235 55.1946C189.864 54.8227 193.441 53.4872 196.327 51.222C198.014 49.8527 200.124 49.2272 202.166 48.6355C199.398 48.7876 196.614 48.5341 193.88 49.1088C190.522 49.6836 187.737 52.2024 186.235 55.1777V55.1946Z" fill="#4B3620"/>
<path d="M29.8188 97.5925C32.2151 96.7472 33.0758 94.1608 33.7845 91.9631C31.557 92.9605 30.477 95.3779 29.8188 97.5925Z" fill="#4B3620"/>
<path d="M236.068 175.457C234.111 177.198 231.883 178.584 229.571 179.784C231.765 178.178 233.807 176.201 234.684 173.547C235.511 171.197 237.047 168.509 235.781 166.058C234.347 167.309 233.638 169.117 232.727 170.74C231.495 173.124 229.757 175.22 228.812 177.739C228.575 177.722 228.103 177.688 227.867 177.671C227.563 176.657 227.09 175.457 225.791 175.913C224.509 176.708 225.167 178.246 226.449 178.567C226.5 178.838 226.584 179.362 226.635 179.632C223.969 180.63 221.538 182.168 218.906 183.267C217.488 183.943 215.852 184.349 214.771 185.566C214.957 186.073 215.328 186.293 215.868 186.259C218.501 186.513 221.015 185.549 223.445 184.687C225.234 184.061 226.55 182.641 228.069 181.543C226.466 184.23 224.087 186.31 222.095 188.693C221.589 189.201 221.302 189.86 221.42 190.587C225.605 190.164 229.841 187.104 230.752 182.878C232.423 184.535 233.942 186.344 235.359 188.237C235.663 188.71 236.152 188.981 236.642 189.251C236.541 188.609 236.608 187.899 236.119 187.409C234.634 185.6 232.879 184.028 231.478 182.134C234.414 181.847 236.844 179.784 238.481 177.452C239.19 176.15 240.152 174.713 239.966 173.175C238.397 173.259 237.266 174.578 236.068 175.457Z" fill="#4B3620"/>
<path d="M4.13428 186.005C15.0357 191.314 22.0727 202.268 25.5152 213.611C26.7978 214.304 28.5359 213.746 30.0041 213.882C28.0634 208.252 24.739 203.181 21.0095 198.583C16.4026 193.241 10.8338 188.49 4.15115 186.005H4.13428Z" fill="#4B3620"/>
</svg>
