<svg width="91" height="73" viewBox="0 0 91 73" fill="none" xmlns="http://www.w3.org/2000/svg">
<path d="M47.1716 0.891357C47.291 1.00044 47.3636 1.11028 47.44 1.25263C47.4639 1.29698 47.4878 1.34134 47.5124 1.38704C47.551 1.4596 47.551 1.4596 47.5903 1.53362C47.6174 1.58431 47.6445 1.635 47.6724 1.68723C48.1731 2.62738 48.6585 3.57356 49.1117 4.53784C49.2449 4.81971 49.3807 5.10035 49.5161 5.38118C49.6987 5.76005 49.8807 6.1392 50.0609 6.51921C50.5967 7.64833 51.1608 8.75516 51.8008 9.82898C51.8296 9.87731 51.8584 9.92563 51.888 9.97542C52.4766 10.9536 53.1459 11.8784 53.8865 12.7458C54.0056 12.8857 54.1204 13.0287 54.2351 13.1723C54.3999 13.3758 54.5744 13.562 54.7632 13.7431C54.8578 13.8392 54.9449 13.9371 55.0324 14.0395C55.2039 14.2379 55.3884 14.4171 55.5808 14.5949C55.6142 14.6261 55.6477 14.6573 55.6822 14.6894C55.7798 14.7801 55.8776 14.8706 55.9755 14.9611C56.0249 15.0071 56.0743 15.0531 56.1237 15.0991C56.3726 15.3291 56.6278 15.5482 56.8911 15.7613C57.0116 15.8599 57.1298 15.9606 57.2475 16.0624C57.5281 16.3045 57.817 16.5314 58.1143 16.7524C58.3635 16.9376 58.6084 17.1279 58.8523 17.32C59.1268 17.5355 59.4039 17.7452 59.6888 17.9468C60.0826 18.2255 60.4689 18.5146 60.8559 18.8026C60.8901 18.828 60.9244 18.8534 60.9596 18.8796C61.3042 19.1358 61.6444 19.3957 61.9774 19.667C63.4848 20.8884 64.9668 21.7059 66.9532 21.5294C67.1749 21.5028 67.3873 21.4545 67.6024 21.3957C67.6339 21.3871 67.6653 21.3786 67.6977 21.3699C68.3423 21.1894 68.9378 20.8952 69.5412 20.6097C69.8229 20.4771 70.1059 20.3475 70.3895 20.2192C70.4407 20.1956 70.4918 20.1719 70.5445 20.1476C70.9115 19.9821 71.2813 19.8672 71.6694 19.763C71.744 19.7406 71.744 19.7406 71.8201 19.7178C72.7942 19.4275 73.8931 19.5894 74.7795 20.0511C75.2496 20.3074 75.6695 20.6221 76.0882 20.9544C76.7797 21.5019 77.4951 21.9727 78.3681 22.164C78.3681 22.1957 78.3681 22.2274 78.3681 22.26C78.2549 22.3427 78.1412 22.4204 78.0242 22.4971C77.653 22.7469 77.3138 23.0184 76.9805 23.3164C76.9439 23.3487 76.9439 23.3487 76.9065 23.3817C75.8989 24.2721 75.1169 25.3439 74.4924 26.5338C74.4682 26.5795 74.4682 26.5795 74.4435 26.6262C74.109 27.2683 73.8882 27.9549 73.679 28.6466C73.6646 28.6905 73.6501 28.7344 73.6352 28.7796C73.5075 29.2087 73.5154 29.6368 73.5194 30.0805C73.5205 30.212 73.5204 30.3434 73.5201 30.4749C73.5212 31.1914 73.5766 31.8957 73.7179 32.5992C73.7304 32.6623 73.7304 32.6623 73.7432 32.7266C73.7607 32.8134 73.7785 32.9001 73.7965 32.9868C73.8132 33.0675 73.8296 33.1482 73.8454 33.229C74.1004 34.5193 74.6106 35.7664 75.1623 36.954C75.202 37.0409 75.2417 37.1278 75.2813 37.2147C75.5656 37.8311 75.8828 38.4273 76.2149 39.0188C76.2429 39.0687 76.2709 39.1185 76.2997 39.1699C76.8475 40.1432 77.4226 41.0939 78.081 41.996C78.1417 42.0812 78.202 42.1667 78.2624 42.2522C78.9201 43.1825 79.624 44.0716 80.3777 44.9252C80.4218 44.9756 80.4218 44.9756 80.4668 45.0269C80.7425 45.3383 81.0295 45.6364 81.3229 45.9308C81.4002 46.0085 81.4771 46.0865 81.554 46.1646C81.8647 46.4781 82.1854 46.763 82.5308 47.0381C82.6176 47.1129 82.7044 47.188 82.791 47.2632C83.69 48.0154 84.6907 48.5853 85.7273 49.1198C85.885 49.2015 86.0422 49.2839 86.1993 49.3666C86.7071 49.6334 87.2159 49.8957 87.7342 50.1413C90.5954 51.4989 90.5954 51.4989 90.9998 52.3682C90.4833 52.4708 89.9812 52.4794 89.4567 52.4763C89.4148 52.4762 89.3729 52.4761 89.3297 52.476C87.6313 52.4712 87.6313 52.4712 87.0763 52.3202C87.0938 52.3522 87.1114 52.3843 87.1294 52.4173C88.5596 55.0373 88.5596 55.0373 88.5596 55.6335C88.3248 55.6371 88.09 55.6397 87.8552 55.6415C87.7755 55.6422 87.6959 55.6432 87.6163 55.6444C86.3789 55.6635 86.3789 55.6635 85.9459 55.2434C85.9201 55.22 85.8943 55.1965 85.8677 55.1724C85.8157 55.125 85.764 55.0772 85.7128 55.0289C85.61 54.9322 85.5041 54.839 85.3986 54.7452C85.2692 54.6274 85.1404 54.5088 85.0119 54.3899C84.9862 54.3662 84.9606 54.3424 84.9341 54.318C84.8843 54.2719 84.8345 54.2257 84.7848 54.1794C84.6604 54.064 84.5346 53.9558 84.3968 53.8568C84.444 54.4895 84.5768 55.1007 84.7132 55.7187C84.7244 55.7698 84.7244 55.7698 84.7358 55.8219C84.7564 55.9158 84.7773 56.0096 84.7982 56.1035C84.8275 56.2578 84.8275 56.2578 84.8275 56.4499C84.6553 56.5058 84.4827 56.5605 84.3101 56.6149C84.262 56.6306 84.214 56.6462 84.1644 56.6623C84.0194 56.7077 83.874 56.7479 83.727 56.786C83.684 56.7986 83.6409 56.8113 83.5966 56.8243C83.3383 56.8779 83.1799 56.8421 82.9571 56.6964C82.5706 56.4187 82.2363 56.0824 81.9058 55.7416C81.8533 55.6883 81.8007 55.6351 81.7481 55.582C81.6974 55.5304 81.6467 55.4788 81.5961 55.4272C81.5732 55.4039 81.5504 55.3807 81.5269 55.3567C81.414 55.2402 81.3069 55.1211 81.2046 54.9952C81.1091 54.8642 81.1091 54.8642 80.9997 54.8172C80.9949 54.8502 80.99 54.8831 80.9851 54.9171C80.9451 55.0856 80.8785 55.2248 80.8023 55.3803C80.7876 55.4105 80.7729 55.4408 80.7578 55.4719C80.7111 55.5679 80.664 55.6638 80.6169 55.7596C80.5698 55.8558 80.5229 55.952 80.476 56.0483C80.4335 56.1354 80.3908 56.2225 80.3481 56.3095C80.2793 56.4482 80.2793 56.4482 80.2341 56.5939C79.2924 56.2659 78.5704 55.124 78.1253 54.2909C78.081 54.193 78.081 54.193 78.081 54.0969C77.7683 54.3471 77.4667 54.6044 77.1748 54.8787C77.0512 54.9944 76.9267 55.1028 76.7891 55.2014C76.4182 55.0336 76.1836 54.6796 75.9548 54.355C75.928 54.3176 75.9013 54.2801 75.8738 54.2415C75.6536 53.9298 75.4502 53.6104 75.258 53.2806C74.8637 53.3413 74.8637 53.3413 74.4745 53.4277C74.0897 53.5275 73.6389 53.6297 73.2753 53.4216C72.8571 53.1122 72.7797 52.5485 72.6776 52.0657C72.576 51.5882 72.4625 51.1634 72.121 50.7956C71.9737 50.7198 71.9223 50.7399 71.7651 50.7836C71.6536 50.8349 71.6536 50.8349 71.5438 50.9008C71.5024 50.9247 71.461 50.9486 71.4183 50.9733C71.3749 50.9988 71.3314 51.0244 71.2867 51.0507C71.242 51.0765 71.1974 51.1023 71.1515 51.1289C70.9527 51.2446 70.7552 51.3617 70.5611 51.4851C70.5326 51.5032 70.5041 51.5213 70.4747 51.54C70.4005 51.5877 70.3268 51.6363 70.2531 51.6849C70.2152 51.7044 70.1773 51.7239 70.1383 51.744C70.091 51.7281 70.0436 51.7123 69.9948 51.6959C69.9371 51.5676 69.8886 51.4433 69.8426 51.3107C69.8285 51.2715 69.8144 51.2323 69.7999 51.1919C69.7547 51.066 69.7102 50.9398 69.6658 50.8136C69.6074 50.649 69.5487 50.4846 69.4898 50.3203C69.4757 50.2808 69.4615 50.2413 69.447 50.2006C69.3525 49.9389 69.2476 49.6852 69.126 49.4348C69.0857 49.343 69.0857 49.343 69.0857 49.247C68.2383 49.4453 68.2383 49.4453 67.3992 49.6754C67.146 49.7484 66.8913 49.8159 66.6365 49.8832C66.5878 49.8962 66.5391 49.9092 66.4889 49.9226C66.4432 49.9346 66.3975 49.9466 66.3503 49.959C66.3093 49.9698 66.2682 49.9807 66.2258 49.9919C66.1191 50.0153 66.1191 50.0153 65.9756 50.0153C65.9411 49.7574 65.9071 49.4995 65.8734 49.2415C65.8619 49.154 65.8503 49.0664 65.8386 48.9789C65.8217 48.8523 65.8051 48.7257 65.7887 48.5991C65.7835 48.5606 65.7782 48.5221 65.7728 48.4824C65.7377 48.2079 65.7306 47.9389 65.7364 47.6623C65.6998 47.6611 65.6633 47.6599 65.6257 47.6587C65.0036 47.638 64.3815 47.6173 63.7597 47.5903C63.6973 47.5877 63.6973 47.5877 63.6338 47.5851C63.5946 47.5834 63.5554 47.5816 63.515 47.5798C63.4817 47.5783 63.4485 47.5769 63.4142 47.5754C63.2464 47.5624 63.0803 47.54 62.9134 47.5183C62.8525 47.1869 62.7921 46.8556 62.732 46.5241C62.7116 46.4116 62.691 46.2991 62.6703 46.1866C62.6405 46.024 62.611 45.8614 62.5816 45.6988C62.5679 45.6245 62.5679 45.6245 62.5538 45.5486C62.4937 45.2135 62.4574 44.8808 62.4349 44.541C62.4067 44.5321 62.3785 44.5231 62.3495 44.5139C62.0686 44.424 61.8003 44.3145 61.5318 44.1929C61.49 44.174 61.4481 44.1551 61.405 44.1356C61.0919 43.9911 60.7998 43.8337 60.521 43.6287C60.479 43.6057 60.437 43.5828 60.3937 43.5591C60.0617 43.1958 60.1651 42.4322 60.1562 41.96C60.1543 41.8793 60.1525 41.7987 60.1506 41.718C60.146 41.5226 60.142 41.3271 60.1382 41.1317C60.0902 41.1068 60.0422 41.082 59.9928 41.0564C59.2971 40.6928 58.7627 40.2902 58.3679 39.595C58.3679 39.5634 58.3679 39.5317 58.3679 39.499C58.3392 39.5054 58.3105 39.5118 58.281 39.5183C57.9818 39.582 57.6874 39.6194 57.3827 39.6431C57.3356 39.647 57.2885 39.6509 57.24 39.6549C57.0907 39.6672 56.9413 39.6792 56.7919 39.6911C56.4538 39.7185 56.1157 39.7464 55.7777 39.7755C55.6872 39.7832 55.5968 39.7906 55.5064 39.7979C55.3816 39.808 55.257 39.819 55.1324 39.8303C55.0777 39.8344 55.0777 39.8344 55.0219 39.8386C54.6685 39.8725 54.4576 40.0305 54.2052 40.2673C54.1704 40.2944 54.1356 40.3214 54.0997 40.3493C53.4525 40.8669 53.0253 41.6536 52.6045 42.3535C52.2255 42.9819 51.8218 43.5935 51.4146 44.2037C51.0762 44.7111 50.7466 45.2231 50.4252 45.7415C47.9231 49.7685 47.9231 49.7685 46.4047 50.4938C46.2545 50.4965 46.1826 50.4145 46.0681 50.3214C45.4031 49.8156 44.6834 49.7033 43.863 49.7131C43.7964 49.7134 43.7298 49.7136 43.6631 49.7137C43.4902 49.7142 43.3174 49.7157 43.1445 49.7173C42.9671 49.7188 42.7897 49.7194 42.6123 49.7201C42.266 49.7216 41.9197 49.7241 41.5734 49.7272C41.5708 49.5833 41.569 49.4394 41.5675 49.2955C41.5663 49.2352 41.5663 49.2352 41.565 49.1737C41.5585 48.3302 42.0127 47.5337 42.4659 46.8479C42.5315 46.7525 42.5315 46.7525 42.5782 46.6539C42.518 46.6801 42.518 46.6801 42.4566 46.7068C41.1883 47.2389 39.9302 47.4445 38.5591 47.2782C38.4764 46.8614 38.4035 46.4444 38.3677 46.0207C38.3621 45.9707 38.3621 45.9707 38.3564 45.9197C38.3433 45.7308 38.3651 45.6493 38.472 45.4911C38.9998 44.968 39.6226 44.557 40.2511 44.1671C40.3074 44.1319 40.3074 44.1319 40.3649 44.0961C40.3984 44.0754 40.4319 44.0547 40.4664 44.0334C40.586 43.9532 40.696 43.8634 40.8079 43.7727C40.7708 43.773 40.7338 43.7732 40.6956 43.7734C40.3424 43.7753 39.9892 43.7768 39.636 43.7777C39.4545 43.7782 39.273 43.7789 39.0916 43.78C37.5492 43.7891 37.5492 43.7891 36.8366 43.6767C36.7054 43.3683 36.7136 43.1099 36.824 42.7968C36.9332 42.5644 37.0785 42.3546 37.2212 42.142C37.3196 42.0022 37.3196 42.0022 37.3629 41.852C37.3032 41.8332 37.2435 41.8144 37.182 41.7951C36.907 41.7031 36.6454 41.5856 36.382 41.4648C36.3102 41.4326 36.3102 41.4326 36.237 41.3998C36.1916 41.3791 36.1462 41.3584 36.0994 41.3371C36.0583 41.3184 36.0172 41.2997 35.9748 41.2804C35.8796 41.2277 35.8796 41.2277 35.8318 41.1317C35.8416 41.0396 35.8416 41.0396 35.8639 40.927C35.872 40.8855 35.88 40.8439 35.8884 40.8011C35.8973 40.7567 35.9063 40.7123 35.9155 40.6665C35.9243 40.6214 35.9332 40.5763 35.9423 40.5299C35.9689 40.3943 35.996 40.2588 36.0232 40.1233C36.0381 40.0476 36.0531 39.972 36.068 39.8963C36.1005 39.7318 36.1335 39.5673 36.1667 39.403C36.1303 39.3784 36.1303 39.3784 36.0931 39.3533C35.6368 39.0445 35.1862 38.7328 34.7537 38.391C34.6337 38.2947 34.6337 38.2947 34.492 38.2025C34.4763 38.0802 34.4763 38.0802 34.4801 37.9264C34.4813 37.871 34.4825 37.8156 34.4838 37.7585C34.4968 37.4738 34.5161 37.1899 34.5399 36.906C34.8623 36.7778 35.1898 36.681 35.5237 36.5878C35.5763 36.5728 35.6288 36.5579 35.6829 36.5424C35.7596 36.5209 35.7596 36.5209 35.8379 36.4989C35.8839 36.486 35.9298 36.4731 35.9771 36.4598C36.1352 36.4218 36.2927 36.3986 36.4538 36.3777C36.4443 36.3495 36.4348 36.3213 36.425 36.2922C36.3262 35.9978 36.2277 35.7033 36.1293 35.4088C36.0926 35.2989 36.0558 35.1891 36.0189 35.0793C35.9659 34.9213 35.9131 34.7632 35.8604 34.6051C35.8356 34.5318 35.8356 34.5318 35.8104 34.4569C35.7362 34.2335 35.6683 34.0196 35.6404 33.7847C36.0968 33.6667 36.5422 33.6759 37.01 33.6796C37.0936 33.68 37.1772 33.6804 37.2607 33.6807C38.8528 33.6894 38.8528 33.6894 39.4203 33.7847C40.2647 33.8772 41.1137 33.8909 41.9622 33.8927C42.0071 33.893 42.052 33.8932 42.0983 33.8935C42.8906 33.8969 43.6814 33.8597 44.4592 33.6977C44.5 33.6895 44.5408 33.6814 44.5828 33.6731C44.9433 33.6005 45.3025 33.5212 45.6615 33.4412C45.9138 33.3853 46.1661 33.3343 46.4206 33.2893C48.7689 32.8706 51.4266 32.1553 52.9611 30.1832C52.8177 30.1409 52.6741 30.0989 52.5305 30.0572C52.4633 30.0376 52.4633 30.0376 52.3948 30.0177C52.1026 29.9338 51.8095 29.8588 51.5137 29.7889C50.6511 29.5838 49.6517 29.2844 49.1554 28.4791C48.9969 28.1727 48.8876 27.8908 48.8941 27.5422C48.8339 27.5323 48.7737 27.5224 48.7117 27.5121C48.6686 27.5019 48.6254 27.4917 48.581 27.4812C48.4496 27.4533 48.3279 27.4375 48.1949 27.4246C47.9343 27.3862 47.7055 27.3405 47.5065 27.158C47.2278 26.64 47.1552 26.0035 47.0759 25.4293C47.034 25.416 46.9922 25.4027 46.949 25.389C46.8006 25.3374 46.6632 25.2781 46.5217 25.21C46.4732 25.1867 46.4247 25.1634 46.3747 25.1394C46.3249 25.1152 46.275 25.0911 46.2236 25.0662C46.1728 25.0418 46.122 25.0174 46.0697 24.9923C45.6948 24.8116 45.6948 24.8116 45.6405 24.757C45.6357 24.6671 45.6343 24.577 45.6345 24.4869C45.6344 24.4378 45.6342 24.3886 45.6341 24.338C45.6405 24.1808 45.6405 24.1808 45.6638 24.0249C45.6948 23.797 45.7008 23.5732 45.7033 23.3435C45.7047 23.3001 45.706 23.2567 45.7075 23.2121C45.7107 22.8731 45.6438 22.6184 45.4167 22.3613C45.378 22.329 45.378 22.329 45.3384 22.296C44.9259 21.9016 44.7298 21.3742 44.6357 20.8194C44.6389 20.7024 44.6428 20.5853 44.6476 20.4683C44.641 20.3053 44.6358 20.1956 44.5182 20.0768C44.3644 19.9606 44.2008 19.8698 44.0301 19.7812C43.9967 19.7628 43.9632 19.7444 43.9288 19.7254C43.8542 19.6845 43.7781 19.6463 43.7011 19.6103C43.5601 19.5288 43.4827 19.4672 43.3916 19.3308C43.3509 19.0702 43.3604 18.8199 43.3756 18.5572C43.3874 18.3451 43.3916 18.1329 43.3948 17.9204C43.3955 17.8794 43.3961 17.8383 43.3968 17.7959C43.3987 17.4585 43.3532 17.1645 43.224 16.8514C43.1297 16.6214 43.0602 16.3965 43.0083 16.1535C43.0003 16.1166 42.9923 16.0797 42.984 16.0417C42.8783 15.5372 42.8161 15.0258 42.7491 14.515C42.7317 14.384 42.7141 14.2531 42.6962 14.1222C42.6905 14.0811 42.6849 14.0399 42.6791 13.9976C42.643 13.7473 42.5938 13.511 42.5043 13.2735C42.4769 13.1613 42.4895 13.0998 42.5304 12.9923C42.6417 12.8673 42.7563 12.7492 42.8762 12.6326C42.9584 12.551 42.9584 12.551 43.0567 12.416C43.0412 12.2306 42.9718 12.0867 42.8866 11.9233C42.8614 11.8741 42.8361 11.8249 42.8101 11.7742C42.783 11.7215 42.7558 11.6689 42.7278 11.6147C42.4971 11.1605 42.2827 10.7037 42.0848 10.2341C42.0508 10.154 42.0508 10.154 42.0162 10.0722C41.8605 9.69781 41.8605 9.69781 41.8605 9.53486C42.566 9.56382 43.2648 9.64428 43.9658 9.72694C43.9502 9.68377 43.9345 9.6406 43.9184 9.59612C42.548 5.80299 42.548 5.80299 42.961 4.06064C43.4257 4.26898 43.8105 4.70432 44.1801 5.0495C44.2524 5.11665 44.3253 5.18317 44.3983 5.2495C44.7267 5.54808 45.0428 5.85627 45.3534 6.1735C45.3404 6.1395 45.3274 6.10551 45.314 6.07048C45.0944 5.49298 44.8755 4.91685 44.7074 4.32175C44.6964 4.28277 44.6854 4.24379 44.6741 4.20363C44.4194 3.27119 44.253 2.10948 44.5878 1.17947C45.796 2.18989 46.5311 3.62897 47.3151 4.97301C47.299 4.91272 47.2828 4.85243 47.2662 4.79031C46.9277 3.51974 46.7498 2.22811 47.1237 0.939377C47.1395 0.92353 47.1553 0.907684 47.1716 0.891357Z" fill="white"/>
<path d="M2.29379 34.2393C2.57591 34.3076 2.72374 34.5466 2.87246 34.7777C3.06377 35.1132 3.1981 35.4606 3.32861 35.8236C3.62627 36.6495 3.98584 37.4064 4.50418 38.1168C4.5224 38.1418 4.54063 38.1668 4.55941 38.1926C4.92727 38.6923 5.33687 39.1602 5.75534 39.6178C5.78942 39.6553 5.82351 39.6927 5.85863 39.7313C6.36319 40.2841 6.87568 40.8277 7.40666 41.3552C7.49554 41.4435 7.58428 41.532 7.67299 41.6205C7.86081 41.8078 8.0488 41.9949 8.23681 42.182C8.45623 42.4004 8.67558 42.6188 8.89475 42.8374C8.98159 42.924 9.06856 43.0104 9.15553 43.0968C9.62916 43.5685 9.62916 43.5685 9.83101 43.8082C9.91271 43.9041 10.0025 43.9912 10.0927 44.0791C10.2382 44.223 10.3758 44.3695 10.5086 44.525C10.598 44.6266 10.6904 44.7246 10.7834 44.8228C11.6651 45.7567 12.3995 46.8447 12.4533 48.1656C12.455 48.2018 12.4567 48.2381 12.4584 48.2754C12.4625 48.3637 12.4662 48.452 12.4699 48.5404C12.9417 47.5537 12.9417 47.5537 13.3405 46.5364C13.3531 46.4999 13.3657 46.4634 13.3787 46.4257C13.4862 46.0999 13.5564 45.7716 13.5803 45.4289C13.5834 45.3863 13.5865 45.3436 13.5898 45.2996C13.5918 45.2683 13.5938 45.237 13.5959 45.2048C13.7315 45.1838 13.867 45.163 14.0026 45.1423C14.041 45.1363 14.0793 45.1303 14.1189 45.1242C14.156 45.1186 14.1931 45.1129 14.2313 45.1071C14.2654 45.1019 14.2994 45.0966 14.3345 45.0912C14.4301 45.0797 14.4301 45.0797 14.5969 45.0797C14.597 45.0273 14.597 45.0273 14.5972 44.9737C14.6254 44.0954 14.9678 43.2949 15.3893 42.5364C15.6783 42.5364 15.9673 42.5364 16.2651 42.5364C16.2376 42.4237 16.21 42.3111 16.1817 42.195C16.1018 41.8238 16.0798 41.4589 16.0774 41.0797C16.0767 41.0299 16.0759 40.9801 16.0751 40.9288C16.0781 40.4804 16.1836 40.0983 16.3902 39.7012C16.5188 39.7267 16.6063 39.7679 16.7134 39.8429C16.7422 39.8629 16.7711 39.8829 16.8007 39.9035C16.8304 39.9244 16.8601 39.9454 16.8907 39.967C16.9203 39.9876 16.95 40.0083 16.9806 40.0295C17.1193 40.1263 17.2562 40.2247 17.3911 40.3266C17.3916 40.3038 17.392 40.281 17.3924 40.2575C17.397 40.016 17.4018 39.7744 17.4067 39.5329C17.4084 39.4432 17.4102 39.3536 17.4119 39.264C17.4426 37.6406 17.4426 37.6406 17.5397 37.1709C17.5455 37.1406 17.5513 37.1104 17.5572 37.0793C17.5709 37.0081 17.5852 36.937 17.5997 36.866C17.7923 36.866 17.985 36.866 18.1835 36.866C18.1881 36.9433 18.1927 37.0207 18.1974 37.1004C18.2697 38.2909 18.3769 39.471 18.5408 40.6526C18.9181 43.4146 18.6727 46.4143 17.1826 48.8322C17.2195 48.8313 17.2565 48.8305 17.2945 48.8296C18.6604 48.8015 18.6604 48.8015 19.1845 48.999C19.234 49.0162 19.2835 49.0334 19.3345 49.0511C19.9459 49.2852 20.3325 49.6331 20.6641 50.1862C20.7411 50.3139 20.8199 50.4404 20.8988 50.5669C21.0182 50.759 21.1372 50.9513 21.2554 51.1441C21.2803 51.1847 21.3051 51.2252 21.3307 51.267C21.3841 51.3574 21.433 51.4477 21.4783 51.5423C21.4556 51.5547 21.4329 51.5671 21.4095 51.5798C21.3052 51.6371 21.2015 51.6952 21.0977 51.7534C21.062 51.7728 21.0263 51.7923 20.9895 51.8123C20.5655 52.052 20.3816 52.3635 20.1567 52.7879C20.1315 52.8353 20.1062 52.8827 20.0802 52.9316C19.6787 53.6956 19.3478 54.4681 19.1271 55.3026C18.9537 55.9476 18.7255 56.5705 18.4338 57.171C18.4172 57.2052 18.4007 57.2394 18.3836 57.2746C17.8399 58.3834 17.1074 59.366 16.2729 60.272C16.2535 60.2932 16.2341 60.3143 16.2141 60.3361C16.1388 60.4181 16.0633 60.4997 15.9854 60.5792C15.6627 60.9222 15.4639 61.3943 15.2563 61.8121C15.2424 61.84 15.2285 61.8679 15.2142 61.8967C15.1544 62.0171 15.095 62.1376 15.0371 62.2589C14.8774 62.5768 14.6837 62.8864 14.3883 63.0916C14.1123 63.1357 13.8573 63.0783 13.5907 63.0056C12.9421 62.8487 12.529 63.1308 11.9903 63.4564C11.9499 63.4802 11.9095 63.504 11.8679 63.5284C11.2284 63.9146 10.9219 64.302 10.6974 65.0043C10.6811 65.0546 10.6648 65.1048 10.6479 65.1566C10.2948 66.2525 10.0389 67.3705 9.88417 68.5119C9.88001 68.5425 9.87586 68.5731 9.87157 68.6046C9.71468 69.7674 9.62968 70.925 9.59223 72.0976C9.49318 72.0987 9.39414 72.0995 9.29508 72.1002C9.26734 72.1005 9.2396 72.1009 9.21102 72.1012C9.04098 72.1021 8.88344 72.0858 8.71642 72.0559C8.64899 72.0523 8.58145 72.0504 8.51392 72.0503C8.47766 72.0503 8.4414 72.0502 8.40404 72.0502C8.36692 72.0503 8.32979 72.0505 8.29155 72.0506C8.25394 72.0505 8.21634 72.0503 8.17759 72.0502C8.14149 72.0502 8.10539 72.0503 8.0682 72.0503C8.0355 72.0504 8.0028 72.0504 7.96911 72.0505C7.87413 72.0526 7.87413 72.0526 7.7572 72.0976C7.18228 72.1699 6.64005 71.8784 6.1227 71.663C5.77158 71.5173 5.47054 71.4492 5.08805 71.4304C5.06009 71.308 5.03231 71.1855 5.00464 71.063C4.99271 71.0109 4.99271 71.0109 4.98053 70.9577C4.97301 70.9243 4.96548 70.8908 4.95772 70.8563C4.95074 70.8256 4.94375 70.7948 4.93655 70.763C4.92123 70.68 4.92123 70.68 4.92123 70.5549C4.87839 70.58 4.83554 70.6052 4.79139 70.6311C4.34502 70.8902 3.95924 71.1077 3.43287 71.1177C3.40363 71.1185 3.37439 71.1193 3.34426 71.1201C2.97787 71.1156 2.71479 70.9148 2.43455 70.6982C2.39133 70.6653 2.39133 70.6653 2.34723 70.6316C2.25964 70.5647 2.1724 70.4973 2.08527 70.4298C2.04731 70.4005 2.04731 70.4005 2.00858 70.3705C1.5671 70.0289 1.13452 69.6759 0.703126 69.3216C0.471463 69.1314 0.237765 68.9445 0 68.762C0.163336 68.5921 0.337726 68.4431 0.521317 68.2956C0.565639 68.2598 0.565639 68.2598 0.610857 68.2232C0.852073 68.0291 1.09674 67.8399 1.3429 67.652C1.76535 67.3288 2.1839 67.0011 2.59562 66.6642C2.77295 66.5193 2.95226 66.3774 3.13312 66.2369C3.35901 66.0611 3.57758 65.878 3.79385 65.6904C3.93528 65.5679 4.07871 65.4491 4.22527 65.3327C4.5253 65.0891 4.80123 64.8194 5.08093 64.5531C5.16861 64.4702 5.257 64.3882 5.34578 64.3064C5.60805 64.065 5.86313 63.8268 6.08898 63.5503C6.13293 63.5015 6.13293 63.5015 6.17777 63.4517C6.84075 62.6947 7.0765 61.7024 7.2437 60.7348C7.29916 60.4139 7.36102 60.0946 7.42576 59.7755C7.43795 59.7151 7.44998 59.6547 7.46183 59.5943C7.57253 59.03 7.74369 58.4975 7.9579 57.9632C7.97202 57.9279 7.98613 57.8926 8.00067 57.8561C8.08851 57.6411 8.18624 57.4364 8.29937 57.2336C8.61951 56.6527 8.9222 56.0558 8.79983 55.3782C8.67211 55.008 8.42514 54.7211 8.16953 54.4323C8.04772 54.2943 7.93476 54.1505 7.82236 54.0049C7.64417 53.7753 7.45824 53.5537 7.26807 53.3339C7.09194 53.1301 6.92271 52.9216 6.75627 52.7098C6.72315 52.6682 6.69003 52.6266 6.65591 52.5837C6.37236 52.2267 6.09501 51.8651 5.82555 51.4974C5.73159 51.3696 5.6349 51.2476 5.53003 51.1286C5.14844 50.6759 5.16056 50.2333 5.20235 49.6582C5.21153 49.5588 5.22258 49.4602 5.23581 49.3612C5.25531 49.204 5.259 49.0531 5.25748 48.8948C5.25711 48.8436 5.25673 48.7924 5.25634 48.7397C5.25586 48.7014 5.25537 48.6632 5.25488 48.6237C5.21162 48.607 5.21162 48.607 5.16748 48.59C5.03757 48.5397 4.90772 48.4892 4.77787 48.4387C4.73247 48.4212 4.68707 48.4036 4.64029 48.3855C4.59715 48.3688 4.55401 48.352 4.50955 48.3347C4.4496 48.3114 4.4496 48.3114 4.38844 48.2877C4.29565 48.2485 4.29565 48.2485 4.25395 48.2068C4.22757 47.8906 4.27281 47.5982 4.34778 47.2921C4.35715 47.2524 4.36651 47.2127 4.37616 47.1718C4.44514 46.8855 4.52518 46.6062 4.62929 46.3306C4.6044 46.3249 4.57951 46.3193 4.55387 46.3135C4.17361 46.2191 3.82073 46.0673 3.46154 45.9136C3.41644 45.3625 3.49562 44.992 3.84765 44.5426C3.93828 44.4397 4.0313 44.3422 4.12883 44.2459C4.17441 44.2003 4.21997 44.1547 4.26551 44.109C4.30298 44.0716 4.34046 44.0342 4.37906 43.9957C4.35114 43.9848 4.32323 43.9739 4.29446 43.9627C2.99179 43.4504 2.99179 43.4504 2.70922 42.9727C2.56209 42.5954 2.70085 42.1616 2.79426 41.7859C3.23646 41.6934 3.6786 41.6777 4.12883 41.6608C3.89844 41.2779 3.63352 40.9397 3.33952 40.604C2.80353 39.9906 2.17443 39.2532 2.20045 38.3922C2.21798 38.2006 2.25374 38.013 2.29379 37.825C2.45357 37.8503 2.57946 37.8978 2.72339 37.971C2.76412 37.9916 2.80484 38.0122 2.8468 38.0333C2.90982 38.0656 2.90982 38.0656 2.97411 38.0986C3.01693 38.1203 3.05975 38.1419 3.10387 38.1643C3.20931 38.2177 3.31463 38.2714 3.41984 38.3253C3.35399 38.1801 3.28789 38.0351 3.22174 37.8901C3.2013 37.8452 3.18086 37.8003 3.1598 37.754C3.05248 37.5194 2.94309 37.2863 2.82798 37.0554C2.40438 36.2051 2.08278 35.4189 2.21038 34.4477C2.23601 34.3774 2.2633 34.3076 2.29379 34.2393Z" fill="white"/>
</svg>
