<svg width="40" height="41" viewBox="0 0 40 41" fill="none" xmlns="http://www.w3.org/2000/svg">
<g clip-path="url(#clip0_104_2296)">
<rect y="0.952148" width="40" height="40" rx="10" fill="#41BDD8"/>
<mask id="mask0_104_2296" style="mask-type:luminance" maskUnits="userSpaceOnUse" x="11" y="14" width="17" height="15">
<path d="M27.7769 14.2855H11.5547V28.3744H27.7769V14.2855Z" fill="white"/>
</mask>
<g mask="url(#mask0_104_2296)">
<path d="M21.407 27.8855V25.4055C25.4336 25.1122 24.8736 21.2366 24.8736 21.2366H19.1936V15.4944C19.1948 15.391 19.1754 15.2883 19.1366 15.1923C19.0979 15.0964 19.0404 15.0091 18.9677 14.9355C18.8949 14.862 18.8083 14.8035 18.7128 14.7637C18.6173 14.7238 18.5149 14.7033 18.4114 14.7033H15.2292C15.1257 14.7033 15.0232 14.7238 14.9278 14.7637C14.8323 14.8035 14.7456 14.862 14.6729 14.9355C14.6001 15.0091 14.5427 15.0964 14.5039 15.1923C14.4651 15.2883 14.4458 15.391 14.447 15.4944V22.17C14.4252 22.8625 14.621 23.5445 15.0069 24.12C15.3927 24.6956 15.9492 25.1358 16.5981 25.3789V27.85" fill="white"/>
<path d="M11.5547 27.9567H27.7769" stroke="white" stroke-width="0.96"/>
<path d="M25.7629 21.2454H13.6562" stroke="#41BDD8" stroke-width="0.96"/>
</g>
</g>
<defs>
<clipPath id="clip0_104_2296">
<rect y="0.952148" width="40" height="40" rx="20" fill="white"/>
</clipPath>
</defs>
</svg>
