<svg width="50" height="50" viewBox="0 0 50 50" fill="none" xmlns="http://www.w3.org/2000/svg">
<circle cx="25" cy="25" r="25" fill="#FFBA4F"/>
<path d="M19.9247 19.9667L27.4413 17.4584C30.8163 16.3334 32.6497 18.1751 31.533 21.5501L29.0247 29.0667C27.3413 34.1251 24.5747 34.1251 22.8913 29.0667L22.1497 26.8334L19.9163 26.0917C14.8663 24.4167 14.8663 21.6584 19.9247 19.9667Z" fill="#006E90"/>
<path d="M24.0996 24.6916L27.2746 21.5083L24.0996 24.6916Z" fill="#FFBA4F"/>
<path d="M22.4411 27.5002C22.2019 27.5002 21.9627 27.4124 21.7738 27.2243C21.4087 26.8608 21.4087 26.259 21.7738 25.8954L26.5582 21.1062C26.9234 20.7426 27.5277 20.7426 27.8928 21.1062C28.2579 21.4698 28.2579 22.0715 27.8928 22.4351L23.1084 27.2243C22.9196 27.3999 22.6804 27.5002 22.4411 27.5002Z" fill="#FFBA4F"/>
</svg>
