<svg width="50" height="50" viewBox="0 0 50 50" fill="none" xmlns="http://www.w3.org/2000/svg">
<circle cx="25" cy="25" r="25" fill="#FFBA4F"/>
<g clip-path="url(#clip0_128_3096)">
<path d="M24.9683 31.9952C25.4758 31.9952 25.6833 31.6568 25.6775 31.2327C25.6517 29.6352 26.2725 28.7752 27.3933 29.896C28.6333 31.136 28.89 31.9952 30.3958 31.9952H33.0625C33.7358 31.9952 34.0008 31.7785 34.0008 31.4385C34.0008 30.7193 32.8167 29.4502 31.8133 28.5185C30.4083 27.2143 30.3425 27.1835 31.5525 25.6135C33.0533 23.6643 35.0167 21.1668 33.28 21.1668H29.9625C29.3192 21.1668 29.2725 21.5293 29.0433 22.0693C28.2142 24.0252 26.6383 26.5585 26.04 26.171C25.4142 25.7668 25.7008 24.166 25.7483 21.7868C25.7608 21.1585 25.7575 20.7277 24.7975 20.5043C24.2733 20.3835 23.7633 20.3335 23.29 20.3335C21.3958 20.3335 20.0892 21.1277 20.8317 21.266C22.1408 21.5102 22.015 24.3427 21.71 25.566C21.1783 27.696 19.18 23.8793 18.3475 21.9785C18.1467 21.5218 18.085 21.1668 17.3683 21.1668H14.6558C14.2458 21.1668 14 21.3002 14 21.5968C14 22.0985 16.4667 27.1968 18.8217 29.7385C21.1183 32.2177 23.3883 31.9952 24.9683 31.9952Z" fill="#006E90"/>
</g>
<defs>
<clipPath id="clip0_128_3096">
<rect width="20" height="20" fill="white" transform="translate(14 17)"/>
</clipPath>
</defs>
</svg>
