<svg width="40" height="40" viewBox="0 0 40 40" fill="none" xmlns="http://www.w3.org/2000/svg">
<circle cx="20" cy="20" r="20" fill="#006E90"/>
<path d="M15.6703 16.2441L21.7856 14.2034C24.5313 13.2882 26.0228 14.7865 25.1144 17.5322L23.0737 23.6475C21.7042 27.7628 19.4533 27.7628 18.0839 23.6475L17.4805 21.8305L15.6635 21.2272C11.555 19.8644 11.555 17.6204 15.6703 16.2441Z" fill="white"/>
<path d="M19.0669 20.0884L21.6499 17.4985L19.0669 20.0884Z" fill="#FFBA4F"/>
<path d="M17.7173 22.3729C17.5227 22.3729 17.3281 22.3015 17.1744 22.1486C16.8774 21.8528 16.8774 21.3632 17.1744 21.0674L21.0668 17.1711C21.3639 16.8753 21.8556 16.8753 22.1526 17.1711C22.4497 17.4669 22.4497 17.9564 22.1526 18.2522L18.2602 22.1486C18.1066 22.2913 17.912 22.3729 17.7173 22.3729Z" fill="#006E90"/>
</svg>
