<svg width="40" height="40" viewBox="0 0 40 40" fill="none" xmlns="http://www.w3.org/2000/svg">
<circle cx="20" cy="20" r="20" fill="#006E90"/>
<g clip-path="url(#clip0_100_1207)">
<path d="M20.4483 25.7589C20.8612 25.7589 21.03 25.4837 21.0252 25.1386C21.0042 23.8389 21.5093 23.1393 22.4212 24.0511C23.43 25.06 23.6388 25.7589 24.8639 25.7589H27.0334C27.5812 25.7589 27.7968 25.5827 27.7968 25.3061C27.7968 24.721 26.8334 23.6884 26.0171 22.9305C24.8741 21.8695 24.8205 21.8444 25.8049 20.5671C27.0259 18.9813 28.6232 16.9495 27.2103 16.9495H24.5113C23.988 16.9495 23.95 17.2444 23.7635 17.6837C23.089 19.2749 21.8069 21.3359 21.3202 21.0206C20.811 20.6918 21.0442 19.3895 21.0829 17.4539C21.093 16.9427 21.0903 16.5922 20.3093 16.4105C19.8829 16.3122 19.468 16.2715 19.0829 16.2715C17.5419 16.2715 16.4788 16.9176 17.0829 17.0301C18.148 17.2288 18.0456 19.5332 17.7974 20.5284C17.3649 22.2613 15.7391 19.1562 15.0619 17.6098C14.8985 17.2383 14.8483 16.9495 14.2652 16.9495H12.0585C11.7249 16.9495 11.5249 17.0579 11.5249 17.2993C11.5249 17.7074 13.5317 21.8552 15.4476 23.923C17.3161 25.94 19.1629 25.7589 20.4483 25.7589Z" fill="white"/>
</g>
<defs>
<clipPath id="clip0_100_1207">
<rect width="16.2712" height="16.2712" fill="white" transform="translate(11.5249 13.5596)"/>
</clipPath>
</defs>
</svg>
