<svg width="60" height="60" viewBox="0 0 60 60" fill="none" xmlns="http://www.w3.org/2000/svg">
<path d="M24.1938 24.6836H26.1193V29.0119H24.1938V24.6836Z" fill="#41BDD8"/>
<path d="M21.0234 29.0121H22.8332V24.0037C22.8332 23.8233 22.9049 23.6503 23.0324 23.5228C23.16 23.3953 23.333 23.3236 23.5134 23.3236H26.799C26.9794 23.3236 27.1524 23.3953 27.2799 23.5228C27.4075 23.6503 27.4791 23.8233 27.4791 24.0037V29.0121H29.2896V7.13135L21.0234 11.2549V29.0121ZM26.1189 12.8151C26.1189 12.6347 26.1905 12.4617 26.3181 12.3342C26.4456 12.2066 26.6186 12.135 26.799 12.135C26.9794 12.135 27.1524 12.2066 27.2799 12.3342C27.4075 12.4617 27.4791 12.6347 27.4791 12.8151V12.9851C27.4791 13.1655 27.4075 13.3385 27.2799 13.466C27.1524 13.5936 26.9794 13.6652 26.799 13.6652C26.6186 13.6652 26.4456 13.5936 26.3181 13.466C26.1905 13.3385 26.1189 13.1655 26.1189 12.9851V12.8151ZM26.1189 15.7056C26.1189 15.5252 26.1905 15.3522 26.3181 15.2247C26.4456 15.0971 26.6186 15.0255 26.799 15.0255C26.9794 15.0255 27.1524 15.0971 27.2799 15.2247C27.4075 15.3522 27.4791 15.5252 27.4791 15.7056V15.8756C27.4791 16.056 27.4075 16.229 27.2799 16.3565C27.1524 16.4841 26.9794 16.5557 26.799 16.5557C26.6186 16.5557 26.4456 16.4841 26.3181 16.3565C26.1905 16.229 26.1189 16.056 26.1189 15.8756V15.7056ZM26.1189 18.5961C26.1189 18.4157 26.1905 18.2427 26.3181 18.1152C26.4456 17.9876 26.6186 17.916 26.799 17.916C26.9794 17.916 27.1524 17.9876 27.2799 18.1152C27.4075 18.2427 27.4791 18.4157 27.4791 18.5961V18.7661C27.4791 18.9465 27.4075 19.1195 27.2799 19.247C27.1524 19.3746 26.9794 19.4462 26.799 19.4462C26.6186 19.4462 26.4456 19.3746 26.3181 19.247C26.1905 19.1195 26.1189 18.9465 26.1189 18.7661V18.5961ZM22.8332 12.8151C22.8332 12.6347 22.9049 12.4617 23.0324 12.3342C23.16 12.2066 23.333 12.135 23.5134 12.135C23.6937 12.135 23.8667 12.2066 23.9943 12.3342C24.1218 12.4617 24.1935 12.6347 24.1935 12.8151V12.9851C24.1935 13.1655 24.1218 13.3385 23.9943 13.466C23.8667 13.5936 23.6937 13.6652 23.5134 13.6652C23.333 13.6652 23.16 13.5936 23.0324 13.466C22.9049 13.3385 22.8332 13.1655 22.8332 12.9851V12.8151ZM22.8332 15.7056C22.8332 15.5252 22.9049 15.3522 23.0324 15.2247C23.16 15.0971 23.333 15.0255 23.5134 15.0255C23.6937 15.0255 23.8667 15.0971 23.9943 15.2247C24.1218 15.3522 24.1935 15.5252 24.1935 15.7056V15.8756C24.1935 16.056 24.1218 16.229 23.9943 16.3565C23.8667 16.4841 23.6937 16.5557 23.5134 16.5557C23.333 16.5557 23.16 16.4841 23.0324 16.3565C22.9049 16.229 22.8332 16.056 22.8332 15.8756V15.7056ZM22.8332 18.5961C22.8332 18.4157 22.9049 18.2427 23.0324 18.1152C23.16 17.9876 23.333 17.916 23.5134 17.916C23.6937 17.916 23.8667 17.9876 23.9943 18.1152C24.1218 18.2427 24.1935 18.4157 24.1935 18.5961V18.7661C24.1935 18.9465 24.1218 19.1195 23.9943 19.247C23.8667 19.3746 23.6937 19.4462 23.5134 19.4462C23.333 19.4462 23.16 19.3746 23.0324 19.247C22.9049 19.1195 22.8332 18.9465 22.8332 18.7661V18.5961Z" fill="#41BDD8"/>
<path d="M47.5277 21.0751C47.5277 11.41 39.6648 3.54712 29.9997 3.54712C20.3345 3.54712 12.4717 11.41 12.4717 21.0751C12.4717 30.7403 20.3345 38.6024 29.9997 38.6024C39.6648 38.6024 47.5277 30.7396 47.5277 21.0751ZM26.799 30.3723H17.8052C17.6248 30.3723 17.4518 30.3007 17.3242 30.1731C17.1967 30.0456 17.125 29.8726 17.125 29.6922C17.125 29.5118 17.1967 29.3388 17.3242 29.2113C17.4518 29.0838 17.6248 29.0121 17.8052 29.0121H19.6632V10.8339C19.6632 10.7074 19.6985 10.5835 19.7651 10.476C19.8316 10.3684 19.9268 10.2816 20.04 10.2252L29.6664 5.4222C29.7701 5.37073 29.8853 5.34656 30.0009 5.35198C30.1166 5.35739 30.2289 5.39221 30.3274 5.45315C30.4258 5.51408 30.5071 5.59912 30.5635 5.70021C30.62 5.80131 30.6497 5.91513 30.6499 6.03091V11.8752L39.8723 15.3859C40.0011 15.435 40.112 15.5221 40.1903 15.6357C40.2685 15.7493 40.3103 15.8839 40.3103 16.0218V29.0114H42.1343C42.3147 29.0114 42.4877 29.0831 42.6153 29.2106C42.7428 29.3382 42.8145 29.5112 42.8145 29.6915C42.8145 29.8719 42.7428 30.0449 42.6153 30.1724C42.4877 30.3 42.3147 30.3717 42.1343 30.3717H26.7997L26.799 30.3723ZM35.7446 52.4204C34.4922 53.7696 33.2031 55.0843 31.8788 56.363C31.3751 56.8513 30.7012 57.1243 29.9997 57.1243C29.2982 57.1243 28.6242 56.8513 28.1205 56.363C26.7966 55.084 25.5075 53.7693 24.2547 52.4204C22.0253 53.225 20.6481 54.4587 20.6481 55.702C20.6481 57.7416 24.4057 59.9255 29.9997 59.9255C35.5936 59.9255 39.3513 57.7416 39.3513 55.702C39.3513 54.4587 37.9741 53.225 35.7446 52.4204Z" fill="#41BDD8"/>
<path d="M38.9497 16.4916L30.6836 13.3447V29.0126H38.9497V16.4916ZM33.8543 23.8913C33.8543 24.0717 33.7826 24.2447 33.6551 24.3722C33.5276 24.4998 33.3546 24.5714 33.1742 24.5714C32.9938 24.5714 32.8208 24.4998 32.6933 24.3722C32.5657 24.2447 32.4941 24.0717 32.4941 23.8913V23.7213C32.4941 23.5409 32.5657 23.3679 32.6933 23.2404C32.8208 23.1128 32.9938 23.0412 33.1742 23.0412C33.3546 23.0412 33.5276 23.1128 33.6551 23.2404C33.7826 23.3679 33.8543 23.5409 33.8543 23.7213V23.8913ZM33.8543 21.0008C33.8543 21.1812 33.7826 21.3542 33.6551 21.4817C33.5276 21.6093 33.3546 21.6809 33.1742 21.6809C32.9938 21.6809 32.8208 21.6093 32.6933 21.4817C32.5657 21.3542 32.4941 21.1812 32.4941 21.0008V20.8308C32.4941 20.6504 32.5657 20.4774 32.6933 20.3499C32.8208 20.2223 32.9938 20.1507 33.1742 20.1507C33.3546 20.1507 33.5276 20.2223 33.6551 20.3499C33.7826 20.4774 33.8543 20.6504 33.8543 20.8308V21.0008ZM33.8543 18.1103C33.8543 18.2907 33.7826 18.4637 33.6551 18.5912C33.5276 18.7188 33.3546 18.7904 33.1742 18.7904C32.9938 18.7904 32.8208 18.7188 32.6933 18.5912C32.5657 18.4637 32.4941 18.2907 32.4941 18.1103V17.9403C32.4941 17.7599 32.5657 17.5869 32.6933 17.4594C32.8208 17.3318 32.9938 17.2602 33.1742 17.2602C33.3546 17.2602 33.5276 17.3318 33.6551 17.4594C33.7826 17.5869 33.8543 17.7599 33.8543 17.9403V18.1103ZM37.14 23.8913C37.14 24.0717 37.0683 24.2447 36.9408 24.3722C36.8132 24.4998 36.6402 24.5714 36.4598 24.5714C36.2795 24.5714 36.1065 24.4998 35.9789 24.3722C35.8514 24.2447 35.7797 24.0717 35.7797 23.8913V23.7213C35.7797 23.5409 35.8514 23.3679 35.9789 23.2404C36.1065 23.1128 36.2795 23.0412 36.4598 23.0412C36.6402 23.0412 36.8132 23.1128 36.9408 23.2404C37.0683 23.3679 37.14 23.5409 37.14 23.7213V23.8913ZM37.14 21.0008C37.14 21.1812 37.0683 21.3542 36.9408 21.4817C36.8132 21.6093 36.6402 21.6809 36.4598 21.6809C36.2795 21.6809 36.1065 21.6093 35.9789 21.4817C35.8514 21.3542 35.7797 21.1812 35.7797 21.0008V20.8308C35.7797 20.6504 35.8514 20.4774 35.9789 20.3499C36.1065 20.2223 36.2795 20.1507 36.4598 20.1507C36.6402 20.1507 36.8132 20.2223 36.9408 20.3499C37.0683 20.4774 37.14 20.6504 37.14 20.8308V21.0008ZM37.14 18.1103C37.14 18.2907 37.0683 18.4637 36.9408 18.5912C36.8132 18.7188 36.6402 18.7904 36.4598 18.7904C36.2795 18.7904 36.1065 18.7188 35.9789 18.5912C35.8514 18.4637 35.7797 18.2907 35.7797 18.1103V17.9403C35.7797 17.7599 35.8514 17.5869 35.9789 17.4594C36.1065 17.3318 36.2795 17.2602 36.4598 17.2602C36.6402 17.2602 36.8132 17.3318 36.9408 17.4594C37.0683 17.5869 37.14 17.7599 37.14 17.9403V18.1103Z" fill="#41BDD8"/>
<path d="M29.0642 55.3835C29.3153 55.6262 29.6508 55.7618 30 55.7618C30.3492 55.7618 30.6847 55.6262 30.9358 55.3835C35.6423 50.8519 51 34.9868 51 21.0749C51 9.49594 41.579 0.0749512 30 0.0749512C18.421 0.0749512 9 9.49594 9 21.0749C9 34.9868 24.3577 50.8519 29.0642 55.3835ZM11.1118 21.0749C11.1118 10.6603 19.5847 2.18672 30 2.18672C40.4153 2.18672 48.8882 10.6596 48.8882 21.0749C48.8882 31.4903 40.4153 39.9625 30 39.9625C19.5847 39.9625 11.1118 31.4896 11.1118 21.0749Z" fill="#41BDD8"/>
</svg>
