<svg width="60" height="60" viewBox="0 0 60 60" fill="none" xmlns="http://www.w3.org/2000/svg">
<path d="M1.875 14.0625V6.5625C1.87649 5.31975 2.37083 4.12834 3.24958 3.24958C4.12834 2.37083 5.31975 1.87649 6.5625 1.875H14.0625C14.3111 1.875 14.5496 1.97377 14.7254 2.14959C14.9012 2.3254 15 2.56386 15 2.8125C15 3.06114 14.9012 3.2996 14.7254 3.47541C14.5496 3.65123 14.3111 3.75 14.0625 3.75H6.5625C5.81681 3.75074 5.10187 4.0473 4.57458 4.57458C4.0473 5.10187 3.75074 5.81681 3.75 6.5625V14.0625C3.75 14.3111 3.65123 14.5496 3.47541 14.7254C3.2996 14.9012 3.06114 15 2.8125 15C2.56386 15 2.3254 14.9012 2.14959 14.7254C1.97377 14.5496 1.875 14.3111 1.875 14.0625ZM14.0625 56.25H6.5625C5.81681 56.2493 5.10187 55.9527 4.57458 55.4254C4.0473 54.8981 3.75074 54.1832 3.75 53.4375V45.9375C3.75 45.6889 3.65123 45.4504 3.47541 45.2746C3.2996 45.0988 3.06114 45 2.8125 45C2.56386 45 2.3254 45.0988 2.14959 45.2746C1.97377 45.4504 1.875 45.6889 1.875 45.9375V53.4375C1.87649 54.6802 2.37083 55.8717 3.24958 56.7504C4.12834 57.6292 5.31975 58.1235 6.5625 58.125H14.0625C14.3111 58.125 14.5496 58.0262 14.7254 57.8504C14.9012 57.6746 15 57.4361 15 57.1875C15 56.9389 14.9012 56.7004 14.7254 56.5246C14.5496 56.3488 14.3111 56.25 14.0625 56.25ZM53.4375 1.875H45.9375C45.6889 1.875 45.4504 1.97377 45.2746 2.14959C45.0988 2.3254 45 2.56386 45 2.8125C45 3.06114 45.0988 3.2996 45.2746 3.47541C45.4504 3.65123 45.6889 3.75 45.9375 3.75H53.4375C54.1832 3.75074 54.8981 4.0473 55.4254 4.57458C55.9527 5.10187 56.2493 5.81681 56.25 6.5625V14.0625C56.25 14.3111 56.3488 14.5496 56.5246 14.7254C56.7004 14.9012 56.9389 15 57.1875 15C57.4361 15 57.6746 14.9012 57.8504 14.7254C58.0262 14.5496 58.125 14.3111 58.125 14.0625V6.5625C58.1235 5.31975 57.6292 4.12834 56.7504 3.24958C55.8717 2.37083 54.6802 1.87649 53.4375 1.875ZM57.1875 45C56.9389 45 56.7004 45.0988 56.5246 45.2746C56.3488 45.4504 56.25 45.6889 56.25 45.9375V53.4375C56.2493 54.1832 55.9527 54.8981 55.4254 55.4254C54.8981 55.9527 54.1832 56.2493 53.4375 56.25H45.9375C45.6889 56.25 45.4504 56.3488 45.2746 56.5246C45.0988 56.7004 45 56.9389 45 57.1875C45 57.4361 45.0988 57.6746 45.2746 57.8504C45.4504 58.0262 45.6889 58.125 45.9375 58.125H53.4375C54.6802 58.1235 55.8717 57.6292 56.7504 56.7504C57.6292 55.8717 58.1235 54.6802 58.125 53.4375V45.9375C58.125 45.6889 58.0262 45.4504 57.8504 45.2746C57.6746 45.0988 57.4361 45 57.1875 45ZM30 31.875C32.0396 31.875 34.0334 31.2702 35.7293 30.137C37.4252 29.0039 38.747 27.3933 39.5275 25.5089C40.308 23.6246 40.5123 21.5511 40.1143 19.5506C39.7164 17.5502 38.7343 15.7127 37.292 14.2705C35.8498 12.8282 34.0123 11.8461 32.0119 11.4482C30.0114 11.0502 27.9379 11.2545 26.0536 12.035C24.1692 12.8155 22.5586 14.1373 21.4255 15.8332C20.2923 17.5291 19.6875 19.5229 19.6875 21.5625C19.6905 24.2966 20.7779 26.9179 22.7113 28.8512C24.6446 30.7846 27.2659 31.872 30 31.875ZM11.2688 46.8572C11.2664 47.1049 11.3132 47.3506 11.4063 47.5802C11.4995 47.8097 11.6372 48.0185 11.8116 48.1945C11.9859 48.3705 12.1934 48.5103 12.4221 48.6056C12.6507 48.7009 12.896 48.75 13.1438 48.75H46.8563C47.104 48.75 47.3493 48.7009 47.5779 48.6056C47.8066 48.5103 48.0141 48.3705 48.1884 48.1945C48.3628 48.0185 48.5005 47.8097 48.5937 47.5802C48.6868 47.3506 48.7336 47.1049 48.7313 46.8572L48.7153 45C48.4755 41.9402 47.0916 39.0831 44.8393 36.9981C42.587 34.9131 39.6317 33.7534 36.5625 33.75H23.4375C20.3685 33.7536 17.4134 34.9134 15.1613 36.9984C12.9092 39.0833 11.5254 41.9403 11.2856 45L11.2688 46.8572Z" fill="#41BDD8"/>
</svg>
