<svg width="60" height="60" viewBox="0 0 60 60" fill="none" xmlns="http://www.w3.org/2000/svg">
<path d="M12.1101 39.7918C12.1101 38.9146 12.2703 38.0711 12.574 37.2952H7.79998V33.0003C7.79998 32.6595 7.60177 32.35 7.29222 32.2074L2.75103 30.1156V26.5503C2.75103 26.3825 2.68438 26.2216 2.56575 26.103C2.44711 25.9844 2.28621 25.9177 2.11844 25.9177C1.95066 25.9177 1.78976 25.9844 1.67112 26.103C1.55249 26.2216 1.48584 26.3825 1.48584 26.5503V54.5642C1.48584 54.7319 1.55249 54.8928 1.67112 55.0115C1.78976 55.1301 1.95066 55.1968 2.11844 55.1968C2.28621 55.1968 2.44711 55.1301 2.56575 55.0115C2.68438 54.8928 2.75103 54.7319 2.75103 54.5642V50.9972L7.29222 48.9062C7.60177 48.7637 7.79998 48.4541 7.79998 48.1134V43.816H13.3736C12.5807 42.6773 12.1084 41.2856 12.1084 39.7926L12.1101 39.7918ZM19.1614 34.0048C15.9647 34.0048 13.3753 36.5942 13.3753 39.791C13.3753 42.9792 15.9647 45.5771 19.1614 45.5771C22.3497 45.5771 24.9475 42.9792 24.9475 39.791C24.9475 36.5942 22.3497 34.0048 19.1614 34.0048ZM19.1614 42.2201C17.8203 42.2201 16.7322 41.1321 16.7322 39.791C16.7322 38.4499 17.8203 37.3534 19.1614 37.3534C20.5025 37.3534 21.5906 38.4499 21.5906 39.791C21.5906 41.1321 20.5025 42.2201 19.1614 42.2201ZM48.7668 28.5991L47.3498 27.9665L45.5364 32.285L46.9618 32.9176C47.0551 32.9595 47.1559 32.982 47.2581 32.9837C47.3603 32.9855 47.4618 32.9665 47.5565 32.9278C47.6511 32.8892 47.7369 32.8317 47.8087 32.7589C47.8805 32.6861 47.9367 32.5995 47.974 32.5043L49.1633 29.5859C49.2405 29.4024 49.2422 29.1958 49.168 29.011C49.0938 28.8262 48.9496 28.6782 48.7668 28.5991Z" fill="#41BDD8"/>
<path d="M44.7264 23.3275C44.6464 23.2906 44.5598 23.2704 44.4717 23.2679C44.3836 23.2655 44.296 23.2808 44.214 23.3132C44.1321 23.3455 44.0575 23.394 43.9948 23.4559C43.9321 23.5178 43.8826 23.5918 43.8492 23.6733L42.2804 27.5532C42.044 28.1423 41.6362 28.6469 41.11 29.0017C40.5837 29.3566 39.963 29.5454 39.3283 29.5438C38.9403 29.5438 38.5608 29.4679 38.1896 29.3329L10.9627 18.8909L10.2036 21.1176C9.80719 22.3069 10.4229 23.5889 11.5953 24.0191L23.0208 28.1968L20.7376 32.9168C23.0908 33.4566 24.9971 35.1772 25.7984 37.4208L29.0811 30.4117L40.7782 34.688C41.9337 35.1098 43.2074 34.5531 43.6881 33.4228L47.4162 24.5496L44.7264 23.3275Z" fill="#41BDD8"/>
<path d="M55.5002 19.8583L15.1465 4.92398C14.9058 4.83478 14.6496 4.7949 14.3931 4.80672C14.1367 4.81853 13.8852 4.88179 13.6537 4.99274C13.4222 5.10369 13.2154 5.26007 13.0456 5.45256C12.8757 5.64506 12.7463 5.86974 12.665 6.11326L9.66823 15.0818C9.51165 15.5499 9.54189 16.0603 9.75264 16.5067C9.96339 16.953 10.3384 17.3007 10.7993 17.4772L38.6453 28.1495C39.1144 28.3292 39.6353 28.3176 40.096 28.1173C40.5568 27.917 40.9205 27.5439 41.1091 27.0783L42.6787 23.1984C42.7756 22.9586 42.92 22.7408 43.1032 22.5583C43.2865 22.3757 43.5048 22.2321 43.7449 22.1361C43.9851 22.0402 44.2423 21.9938 44.5008 21.9998C44.7594 22.0058 45.0141 22.064 45.2496 22.1711L50.7751 24.6795C51.0576 24.8077 51.3723 24.847 51.6776 24.7924C51.9829 24.7377 52.2644 24.5916 52.4848 24.3733L55.7726 21.1201C55.8642 21.0296 55.9314 20.9176 55.9682 20.7942C56.0049 20.6708 56.0099 20.5402 55.9828 20.4144C55.9556 20.2886 55.8971 20.1717 55.8128 20.0745C55.7284 19.9773 55.6209 19.9029 55.5002 19.8583Z" fill="#41BDD8"/>
</svg>
