<svg width="60" height="60" viewBox="0 0 60 60" fill="none" xmlns="http://www.w3.org/2000/svg">
<path fill-rule="evenodd" clip-rule="evenodd" d="M6.85106 56.6456V4.93757H53.1489V56.6456H54.4375V3.35449H5.56152V56.6456H6.85106ZM36.8298 17.2717V45.3582L52.1031 56.1582V6.47172L36.8298 17.2717ZM7.89783 6.47172V56.1582L23.1711 45.3582V17.2717L7.89783 6.47172ZM41.2338 35.6973V33.0083L42.2381 33.1431V36.9536L38.6852 35.7831V30.5059L42.2381 29.3446V31.8286L41.2338 32.0059V30.7551L39.6904 31.1991V35.2717L41.2338 35.6973ZM18.9092 35.6973V33.0083L17.904 33.1431V36.9536L21.4569 35.7831V30.5059L17.904 29.3446V31.8286L18.9092 32.0059V30.7551L20.4526 31.1991V35.2717L18.9092 35.6973ZM40.6357 32.5468L43.9412 32.8606L43.9375 31.7917L40.6357 32.3908V32.5468ZM19.5074 32.5468L16.2009 32.8606L16.2055 31.7917L19.5074 32.3908V32.5468Z" fill="#41BDD8"/>
</svg>
